<?xml version="1.0" encoding="us-ascii" standalone="no"?><svg xmlns="http://www.w3.org/2000/svg" xmlns:xlink="http://www.w3.org/1999/xlink" contentStyleType="text/css" height="268px" preserveAspectRatio="none" style="width:424px;height:268px;background:#FFFFFF;" version="1.1" viewBox="0 0 424 268" width="424px" zoomAndPan="magnify"><defs/><g><text fill="#000000" font-family="sans-serif" font-size="14" font-weight="bold" lengthAdjust="spacing" textLength="145" x="132.5" y="22.9951">Application Server</text><!--cluster Application_Server--><g id="cluster_Application_Server"><polygon fill="#616161" points="16,53.2969,26,43.2969,407,43.2969,407,241.2969,397,251.2969,16,251.2969,16,53.2969" style="stroke:#181818;stroke-width:1.0;"/><line style="stroke:#181818;stroke-width:1.0;" x1="397" x2="407" y1="53.2969" y2="43.2969"/><line style="stroke:#181818;stroke-width:1.0;" x1="16" x2="397" y1="53.2969" y2="53.2969"/><line style="stroke:#181818;stroke-width:1.0;" x1="397" x2="397" y1="53.2969" y2="251.2969"/><text fill="#000000" font-family="sans-serif" font-size="14" font-weight="bold" lengthAdjust="spacing" textLength="145" x="135" y="69.292">Application Server</text></g><!--entity HyperData_Service--><g id="elem_HyperData_Service"><a href="./hyperdata.svg" target="_top" title="./hyperdata.svg" xlink:actuate="onRequest" xlink:href="./hyperdata.svg" xlink:show="new" xlink:title="./hyperdata.svg" xlink:type="simple"><polygon fill="#9E9E9E" points="32,93.2969,42,83.2969,198,83.2969,198,119.5938,188,129.5938,32,129.5938,32,93.2969" style="stroke:#181818;stroke-width:0.5;"/><line style="stroke:#181818;stroke-width:0.5;" x1="188" x2="198" y1="93.2969" y2="83.2969"/><line style="stroke:#181818;stroke-width:0.5;" x1="32" x2="188" y1="93.2969" y2="93.2969"/><line style="stroke:#181818;stroke-width:0.5;" x1="188" x2="188" y1="93.2969" y2="129.5938"/><text fill="#000000" font-family="sans-serif" font-size="14" lengthAdjust="spacing" textLength="126" x="47" y="116.292">HyperData Service</text></a></g><!--entity Sessions_Service--><g id="elem_Sessions_Service"><a href="./sessions.svg" target="_top" title="./sessions.svg" xlink:actuate="onRequest" xlink:href="./sessions.svg" xlink:show="new" xlink:title="./sessions.svg" xlink:type="simple"><polygon fill="#9E9E9E" points="233.5,93.2969,243.5,83.2969,390.5,83.2969,390.5,119.5938,380.5,129.5938,233.5,129.5938,233.5,93.2969" style="stroke:#181818;stroke-width:0.5;"/><line style="stroke:#181818;stroke-width:0.5;" x1="380.5" x2="390.5" y1="93.2969" y2="83.2969"/><line style="stroke:#181818;stroke-width:0.5;" x1="233.5" x2="380.5" y1="93.2969" y2="93.2969"/><line style="stroke:#181818;stroke-width:0.5;" x1="380.5" x2="380.5" y1="93.2969" y2="129.5938"/><text fill="#000000" font-family="sans-serif" font-size="14" lengthAdjust="spacing" textLength="117" x="248.5" y="116.292">Sessions Service</text></a></g><!--entity Tenants_Service--><g id="elem_Tenants_Service"><a href="./tenants.svg" target="_top" title="./tenants.svg" xlink:actuate="onRequest" xlink:href="./tenants.svg" xlink:show="new" xlink:title="./tenants.svg" xlink:type="simple"><polygon fill="#9E9E9E" points="39.5,199.2969,49.5,189.2969,190.5,189.2969,190.5,225.5938,180.5,235.5938,39.5,235.5938,39.5,199.2969" style="stroke:#181818;stroke-width:0.5;"/><line style="stroke:#181818;stroke-width:0.5;" x1="180.5" x2="190.5" y1="199.2969" y2="189.2969"/><line style="stroke:#181818;stroke-width:0.5;" x1="39.5" x2="180.5" y1="199.2969" y2="199.2969"/><line style="stroke:#181818;stroke-width:0.5;" x1="180.5" x2="180.5" y1="199.2969" y2="235.5938"/><text fill="#000000" font-family="sans-serif" font-size="14" lengthAdjust="spacing" textLength="111" x="54.5" y="222.292">Tenants Service</text></a></g><!--SRC=[TOqn2uCm44PtVyM7xfOkXOw53jtj9Y91ZpOWCUGEePJ-zoOQYq7AjxtZlGD4oq2uM3leJeaU3Ifo4xai0ypO4_BzBOVYhT8k6CNf68QtTrVxzhBahahKxEgEPlb7sqXHr-NX6MZlQSdJesbGd2biKwk8sJ_a9BR2fCKH_atToIWZQIco92GBstK-Nm00]--></g></svg>