<?xml version="1.0" encoding="us-ascii" standalone="no"?><svg xmlns="http://www.w3.org/2000/svg" xmlns:xlink="http://www.w3.org/1999/xlink" contentStyleType="text/css" height="219px" preserveAspectRatio="none" style="width:254px;height:219px;background:#FFFFFF;" version="1.1" viewBox="0 0 254 219" width="254px" zoomAndPan="magnify"><defs/><g><text fill="#000000" font-family="sans-serif" font-size="14" font-weight="bold" lengthAdjust="spacing" textLength="145" x="47.5" y="22.9951">Application Server</text><!--cluster Application_Server--><g id="cluster_Application_Server"><polygon fill="#616161" points="16,110.2969,26,100.2969,237,100.2969,237,192.2969,227,202.2969,16,202.2969,16,110.2969" style="stroke:#181818;stroke-width:1.0;"/><line style="stroke:#181818;stroke-width:1.0;" x1="227" x2="237" y1="110.2969" y2="100.2969"/><line style="stroke:#181818;stroke-width:1.0;" x1="16" x2="227" y1="110.2969" y2="110.2969"/><line style="stroke:#181818;stroke-width:1.0;" x1="227" x2="227" y1="110.2969" y2="202.2969"/><text fill="#000000" font-family="sans-serif" font-size="14" font-weight="bold" lengthAdjust="spacing" textLength="145" x="50" y="126.292">Application Server</text></g><!--entity Tenants_Service--><g id="elem_Tenants_Service"><a href="./tenants.svg" target="_top" title="./tenants.svg" xlink:actuate="onRequest" xlink:href="./tenants.svg" xlink:show="new" xlink:title="./tenants.svg" xlink:type="simple"><polygon fill="#757575" points="50.5,150.2969,60.5,140.2969,201.5,140.2969,201.5,176.5938,191.5,186.5938,50.5,186.5938,50.5,150.2969" style="stroke:#181818;stroke-width:0.5;"/><line style="stroke:#181818;stroke-width:0.5;" x1="191.5" x2="201.5" y1="150.2969" y2="140.2969"/><line style="stroke:#181818;stroke-width:0.5;" x1="50.5" x2="191.5" y1="150.2969" y2="150.2969"/><line style="stroke:#181818;stroke-width:0.5;" x1="191.5" x2="191.5" y1="150.2969" y2="186.5938"/><text fill="#000000" font-family="sans-serif" font-size="14" lengthAdjust="spacing" textLength="111" x="65.5" y="173.292">Tenants Service</text></a></g><!--entity Tenants_REST_API--><g id="elem_Tenants_REST_API"><ellipse cx="126" cy="51.2969" fill="#F1F1F1" rx="8" ry="8" style="stroke:#181818;stroke-width:0.5;"/><text fill="#000000" font-family="sans-serif" font-size="14" lengthAdjust="spacing" textLength="123" x="64.5" y="81.292">Tenants REST API</text></g><!--link Tenants_REST_API to Tenants_Service--><g id="link_Tenants_REST_API_Tenants_Service"><path d="M126,60.5669 C126,77.2569 126,115.4569 126,140.0069 " fill="none" id="Tenants_REST_API-Tenants_Service" style="stroke:#181818;stroke-width:1.0;"/></g><!--SRC=[POuz2y9044Jx_8eXgHEnKEiK5dPYqeLm7ESg2-4IxfOqud_tBX-WaUqUysOM49QEK0v3nqOBznOLkP5SaW1iXTn36q9QazLMF6xdgaPvlQJG7WjK4Qe0esFxUuZ_zqt25rOpHdRSnyChkAkzZiK86_hPMXYQfjZ9p0e_FjiMsUaGR-hPVeOytpQ4tFi3]--></g></svg>