<?xml version="1.0" encoding="us-ascii" standalone="no"?><svg xmlns="http://www.w3.org/2000/svg" xmlns:xlink="http://www.w3.org/1999/xlink" contentStyleType="text/css" height="162px" preserveAspectRatio="none" style="width:409px;height:162px;background:#FFFFFF;" version="1.1" viewBox="0 0 409 162" width="409px" zoomAndPan="magnify"><defs/><g><text fill="#000000" font-family="sans-serif" font-size="14" font-weight="bold" lengthAdjust="spacing" textLength="145" x="125" y="22.9951">Application Server</text><!--cluster Application_Server--><g id="cluster_Application_Server"><polygon fill="#616161" points="16,53.2969,26,43.2969,392,43.2969,392,135.2969,382,145.2969,16,145.2969,16,53.2969" style="stroke:#181818;stroke-width:1.0;"/><line style="stroke:#181818;stroke-width:1.0;" x1="382" x2="392" y1="53.2969" y2="43.2969"/><line style="stroke:#181818;stroke-width:1.0;" x1="16" x2="382" y1="53.2969" y2="53.2969"/><line style="stroke:#181818;stroke-width:1.0;" x1="382" x2="382" y1="53.2969" y2="145.2969"/><text fill="#000000" font-family="sans-serif" font-size="14" font-weight="bold" lengthAdjust="spacing" textLength="145" x="127.5" y="69.292">Application Server</text></g><!--entity Sessions_Service--><g id="elem_Sessions_Service"><a href="./sessions.svg" target="_top" title="./sessions.svg" xlink:actuate="onRequest" xlink:href="./sessions.svg" xlink:show="new" xlink:title="./sessions.svg" xlink:type="simple"><polygon fill="#9E9E9E" points="218.5,93.2969,228.5,83.2969,375.5,83.2969,375.5,119.5938,365.5,129.5938,218.5,129.5938,218.5,93.2969" style="stroke:#181818;stroke-width:0.5;"/><line style="stroke:#181818;stroke-width:0.5;" x1="365.5" x2="375.5" y1="93.2969" y2="83.2969"/><line style="stroke:#181818;stroke-width:0.5;" x1="218.5" x2="365.5" y1="93.2969" y2="93.2969"/><line style="stroke:#181818;stroke-width:0.5;" x1="365.5" x2="365.5" y1="93.2969" y2="129.5938"/><text fill="#000000" font-family="sans-serif" font-size="14" lengthAdjust="spacing" textLength="117" x="233.5" y="116.292">Sessions Service</text></a></g><!--entity Tenants_Service--><g id="elem_Tenants_Service"><a href="./tenants.svg" target="_top" title="./tenants.svg" xlink:actuate="onRequest" xlink:href="./tenants.svg" xlink:show="new" xlink:title="./tenants.svg" xlink:type="simple"><polygon fill="#9E9E9E" points="32.5,93.2969,42.5,83.2969,183.5,83.2969,183.5,119.5938,173.5,129.5938,32.5,129.5938,32.5,93.2969" style="stroke:#181818;stroke-width:0.5;"/><line style="stroke:#181818;stroke-width:0.5;" x1="173.5" x2="183.5" y1="93.2969" y2="83.2969"/><line style="stroke:#181818;stroke-width:0.5;" x1="32.5" x2="173.5" y1="93.2969" y2="93.2969"/><line style="stroke:#181818;stroke-width:0.5;" x1="173.5" x2="173.5" y1="93.2969" y2="129.5938"/><text fill="#000000" font-family="sans-serif" font-size="14" lengthAdjust="spacing" textLength="111" x="47.5" y="116.292">Tenants Service</text></a></g><!--SRC=[POp12a1054Ntlk9czcIZB7q3EqaJBqrfo7lPoByRp1Jfxivxvm1YP2AKopAPNekPBIfQDrgZ2B3pG8Z_jnYQtqhtOAWykuRTkS6kYDczyAsQdcutmCv3D4sIieS9RsFRGXLqxPMgoMehtv9ddv0yxDSvJW00]--></g></svg>