<?xml version="1.0" encoding="us-ascii" standalone="no"?><svg xmlns="http://www.w3.org/2000/svg" xmlns:xlink="http://www.w3.org/1999/xlink" contentStyleType="text/css" height="592px" preserveAspectRatio="none" style="width:799px;height:592px;background:#FFFFFF;" version="1.1" viewBox="0 0 799 592" width="799px" zoomAndPan="magnify"><defs/><g><text fill="#000000" font-family="sans-serif" font-size="14" font-weight="bold" lengthAdjust="spacing" textLength="81" x="352.25" y="22.9951">Client App</text><!--cluster Client_App--><g id="cluster_Client_App"><polygon fill="#616161" points="16,137.2969,26,127.2969,718,127.2969,718,565.2969,708,575.2969,16,575.2969,16,137.2969" style="stroke:#181818;stroke-width:1.0;"/><line style="stroke:#181818;stroke-width:1.0;" x1="708" x2="718" y1="137.2969" y2="127.2969"/><line style="stroke:#181818;stroke-width:1.0;" x1="16" x2="708" y1="137.2969" y2="137.2969"/><line style="stroke:#181818;stroke-width:1.0;" x1="708" x2="708" y1="137.2969" y2="575.2969"/><text fill="#000000" font-family="sans-serif" font-size="14" font-weight="bold" lengthAdjust="spacing" textLength="81" x="322.5" y="153.292">Client App</text></g><!--cluster Worker_Thread--><g id="cluster_Worker_Thread"><polygon fill="#757575" points="190,193.2969,200,183.2969,686,183.2969,686,398.2969,676,408.2969,190,408.2969,190,193.2969" style="stroke:#181818;stroke-width:1.0;"/><line style="stroke:#181818;stroke-width:1.0;" x1="676" x2="686" y1="193.2969" y2="183.2969"/><line style="stroke:#181818;stroke-width:1.0;" x1="190" x2="676" y1="193.2969" y2="193.2969"/><line style="stroke:#181818;stroke-width:1.0;" x1="676" x2="676" y1="193.2969" y2="408.2969"/><text fill="#000000" font-family="sans-serif" font-size="14" font-weight="bold" lengthAdjust="spacing" textLength="119" x="374.5" y="209.292">Worker Thread</text></g><!--cluster Main_Thread--><g id="cluster_Main_Thread"><polygon fill="#757575" points="205,459.2969,215,449.2969,378,449.2969,378,541.2969,368,551.2969,205,551.2969,205,459.2969" style="stroke:#181818;stroke-width:1.0;"/><line style="stroke:#181818;stroke-width:1.0;" x1="368" x2="378" y1="459.2969" y2="449.2969"/><line style="stroke:#181818;stroke-width:1.0;" x1="205" x2="368" y1="459.2969" y2="459.2969"/><line style="stroke:#181818;stroke-width:1.0;" x1="368" x2="368" y1="459.2969" y2="551.2969"/><text fill="#000000" font-family="sans-serif" font-size="14" font-weight="bold" lengthAdjust="spacing" textLength="97" x="239" y="475.292">Main Thread</text></g><!--entity HDMLAggregator--><g id="elem_HDMLAggregator"><rect fill="#BDBDBD" height="46.2969" rx="2.5" ry="2.5" style="stroke:#181818;stroke-width:0.5;" width="157" x="365.5" y="231.2969"/><rect fill="#BDBDBD" height="10" style="stroke:#181818;stroke-width:0.5;" width="15" x="502.5" y="236.2969"/><rect fill="#BDBDBD" height="2" style="stroke:#181818;stroke-width:0.5;" width="4" x="500.5" y="238.2969"/><rect fill="#BDBDBD" height="2" style="stroke:#181818;stroke-width:0.5;" width="4" x="500.5" y="242.2969"/><text fill="#000000" font-family="sans-serif" font-size="14" lengthAdjust="spacing" textLength="117" x="380.5" y="264.292">HDMLAggregator</text></g><!--entity HDMLParser--><g id="elem_HDMLParser"><rect fill="#BDBDBD" height="46.2969" rx="2.5" ry="2.5" style="stroke:#181818;stroke-width:0.5;" width="124" x="222" y="338.2969"/><rect fill="#BDBDBD" height="10" style="stroke:#181818;stroke-width:0.5;" width="15" x="326" y="343.2969"/><rect fill="#BDBDBD" height="2" style="stroke:#181818;stroke-width:0.5;" width="4" x="324" y="345.2969"/><rect fill="#BDBDBD" height="2" style="stroke:#181818;stroke-width:0.5;" width="4" x="324" y="349.2969"/><text fill="#000000" font-family="sans-serif" font-size="14" lengthAdjust="spacing" textLength="84" x="237" y="371.292">HDMLParser</text></g><!--entity HDMLClient--><g id="elem_HDMLClient"><rect fill="#BDBDBD" height="46.2969" rx="2.5" ry="2.5" style="stroke:#181818;stroke-width:0.5;" width="119" x="542.5" y="338.2969"/><rect fill="#BDBDBD" height="10" style="stroke:#181818;stroke-width:0.5;" width="15" x="641.5" y="343.2969"/><rect fill="#BDBDBD" height="2" style="stroke:#181818;stroke-width:0.5;" width="4" x="639.5" y="345.2969"/><rect fill="#BDBDBD" height="2" style="stroke:#181818;stroke-width:0.5;" width="4" x="639.5" y="349.2969"/><text fill="#000000" font-family="sans-serif" font-size="14" lengthAdjust="spacing" textLength="79" x="557.5" y="371.292">HDMLClient</text></g><!--entity HDMLBroker--><g id="elem_HDMLBroker"><rect fill="#BDBDBD" height="46.2969" rx="2.5" ry="2.5" style="stroke:#181818;stroke-width:0.5;" width="126" x="381" y="338.2969"/><rect fill="#BDBDBD" height="10" style="stroke:#181818;stroke-width:0.5;" width="15" x="487" y="343.2969"/><rect fill="#BDBDBD" height="2" style="stroke:#181818;stroke-width:0.5;" width="4" x="485" y="345.2969"/><rect fill="#BDBDBD" height="2" style="stroke:#181818;stroke-width:0.5;" width="4" x="485" y="349.2969"/><text fill="#000000" font-family="sans-serif" font-size="14" lengthAdjust="spacing" textLength="86" x="396" y="371.292">HDMLBroker</text></g><!--entity hdml_io--><g id="elem_hdml_io"><rect fill="#BDBDBD" height="46.2969" rx="2.5" ry="2.5" style="stroke:#181818;stroke-width:0.5;" width="115" x="233.5" y="489.2969"/><rect fill="#BDBDBD" height="10" style="stroke:#181818;stroke-width:0.5;" width="15" x="328.5" y="494.2969"/><rect fill="#BDBDBD" height="2" style="stroke:#181818;stroke-width:0.5;" width="4" x="326.5" y="496.2969"/><rect fill="#BDBDBD" height="2" style="stroke:#181818;stroke-width:0.5;" width="4" x="326.5" y="500.2969"/><text fill="#000000" font-family="sans-serif" font-size="14" lengthAdjust="spacing" textLength="75" x="248.5" y="522.292">&lt;hdml-io&gt;</text></g><!--entity Public_REST_API--><g id="elem_Public_REST_API"><ellipse cx="589" cy="51.2969" fill="#F1F1F1" rx="8" ry="8" style="stroke:#181818;stroke-width:0.5;"/><text fill="#000000" font-family="sans-serif" font-size="14" lengthAdjust="spacing" textLength="81" x="548.5" y="81.292">/api/v1/hdio</text></g><!--entity Sessions_REST_API--><g id="elem_Sessions_REST_API"><ellipse cx="736" cy="51.2969" fill="#F1F1F1" rx="8" ry="8" style="stroke:#181818;stroke-width:0.5;"/><text fill="#000000" font-family="sans-serif" font-size="14" lengthAdjust="spacing" textLength="113" x="679.5" y="81.292">/api/v1/sessions</text></g><!--reverse link Public_REST_API to HDMLClient--><g id="link_Public_REST_API_HDMLClient"><path d="M589.7713,70.528 C591.4613,110.608 598.44,275.8469 601.07,338.1869 " fill="none" id="Public_REST_API-backto-HDMLClient" style="stroke:#181818;stroke-width:1.0;"/><path d="M581.03,63.9686 A9,9 0 0 0 597.9294 63.256" fill="none" style="stroke:#181818;stroke-width:1.5;"/></g><!--reverse link Sessions_REST_API to HDMLClient--><g id="link_Sessions_REST_API_HDMLClient"><path d="M728.4236,69.8909 C714.5736,102.0409 667.56,211.1169 625,308.2969 C620.72,318.0669 615.96,328.8469 611.89,338.0469 " fill="none" id="Sessions_REST_API-backto-HDMLClient" style="stroke:#181818;stroke-width:1.0;"/><path d="M723.395,60.1879 A9,9 0 0 0 738.9293 66.8799" fill="none" style="stroke:#181818;stroke-width:1.5;"/></g><!--link HDMLBroker to HDMLClient--><g id="link_HDMLBroker_HDMLClient"><path d="M507.26,361.2969 C518.98,361.2969 530.7,361.2969 542.42,361.2969 " fill="none" id="HDMLBroker-HDMLClient" style="stroke:#181818;stroke-width:1.0;"/><path d="M517.7689,354.2258 A10,10 0 0 0 517.7689 368.3679" fill="none" style="stroke:#181818;stroke-width:1.5;"/><ellipse cx="524.84" cy="361.2969" fill="#FFFFFF" rx="6" ry="6" style="stroke:#181818;stroke-width:1.5;"/></g><!--link HDMLAggregator to HDMLBroker--><g id="link_HDMLAggregator_HDMLBroker"><path d="M444,277.3069 C444,295.1069 444,320.0669 444,337.9569 " fill="none" id="HDMLAggregator-HDMLBroker" style="stroke:#181818;stroke-width:1.0;"/><path d="M436.9289,314.6692 A10,10 0 0 0 451.0711 314.6692" fill="none" style="stroke:#181818;stroke-width:1.5;"/><ellipse cx="444" cy="307.5981" fill="#FFFFFF" rx="6" ry="6" style="stroke:#181818;stroke-width:1.5;"/></g><!--link HDMLParser to HDMLBroker--><g id="link_HDMLParser_HDMLBroker"><path d="M346.19,361.2969 C357.78,361.2969 369.37,361.2969 380.96,361.2969 " fill="none" id="HDMLParser-HDMLBroker" style="stroke:#181818;stroke-width:1.0;"/><path d="M370.6461,368.3679 A10,10 0 0 0 370.6461 354.2258" fill="none" style="stroke:#181818;stroke-width:1.5;"/><ellipse cx="363.575" cy="361.2969" fill="#FFFFFF" rx="6" ry="6" style="stroke:#181818;stroke-width:1.5;"/></g><!--reverse link Worker_Thread to hdml_io--><g id="link_Worker_Thread_hdml_io"><path d="M184.3686,260.4314 C184.1595,260.5133 189.2254,258.5374 189.0095,258.6226 C187.2831,259.3041 185.3446,260.0903 183.2267,260.9813 C174.7553,264.545 163.4144,269.7844 151.2963,276.6994 C127.06,290.5294 99.715,311.0619 86,338.2969 C68.81,372.4369 64.9,392.4269 86,424.2969 C118.44,473.2969 184.63,494.7869 233.05,504.1469 " fill="none" id="Worker_Thread-backto-hdml_io" style="stroke:#181818;stroke-width:1.0;"/><polygon fill="#181818" points="189.9581,258.2503,180.1197,257.7956,185.3002,260.0679,183.0279,265.2483,189.9581,258.2503" style="stroke:#181818;stroke-width:1.0;"/><text fill="#000000" font-family="sans-serif" font-size="13" lengthAdjust="spacing" textLength="118" x="87" y="365.8638">initialize/terminate</text></g><!--link HDMLBroker to hdml_io--><g id="link_HDMLBroker_hdml_io"><path d="M421.09,384.6069 C392.25,412.6969 342.98,460.6769 314.06,488.8369 " fill="none" id="HDMLBroker-hdml_io" style="stroke:#181818;stroke-width:1.0;"/><ellipse cx="367.605" cy="436.6956" fill="#FFFFFF" rx="10" ry="10" style="stroke:#FFFFFF;stroke-width:1.0;"/><path d="M357.6059,436.5631 A10,10 0 0 0 367.4724 446.6947" fill="none" style="stroke:#181818;stroke-width:1.5;"/><path d="M377.6041,436.8282 A10,10 0 0 0 367.7376 426.6965" fill="none" style="stroke:#181818;stroke-width:1.5;"/><ellipse cx="367.605" cy="436.6956" fill="#FFFFFF" rx="6" ry="6" style="stroke:#181818;stroke-width:1.5;"/></g><!--SRC=[ZP9TQuCm58Rl_HK7lLalWkl5DXXbu3vWWnLaBUnIKitqK4qaPhlOyBylCMcDhOCH4DxuFEISam0eL3M3XnePLv2qRH0085TCVj2SGHZJ5kElPLmLA4AW7QIVknhpxErfiysIz6MUxbZNeU3TO6nS61qjSL5eVZns86tCT8JeUcaM_6ZsGByBkMSIjfLaj1W4kvFP7OXkhino3a0kcbPmSq3u_BX-JSfIif8g8GTtkWNHhZ0hc7TJAZisUZOU7QlCcxQde-awdfedCuK58SIZ7NKsnpDkle9xAVPUxJQULE2LHcfskI0UwY7UlCYVa1iEaJY3z85teMkAtBzEa_zncQkgQ6g2ucwGJCXGJ1hgX-_qTQpqh1nxgzyiAgGrVhDOFzu6ELKiE3JW9aGkJFrEqJ_xNm00]--></g></svg>