<?xml version="1.0" encoding="us-ascii" standalone="no"?><svg xmlns="http://www.w3.org/2000/svg" xmlns:xlink="http://www.w3.org/1999/xlink" contentStyleType="text/css" height="780px" preserveAspectRatio="none" style="width:882px;height:780px;background:#FFFFFF;" version="1.1" viewBox="0 0 882 780" width="882px" zoomAndPan="magnify"><defs/><g><text fill="#000000" font-family="sans-serif" font-size="14" font-weight="bold" lengthAdjust="spacing" textLength="161" x="353.5" y="22.9951">General Deployment</text><!--cluster Client_Device--><g id="cluster_Client_Device"><polygon fill="#616161" points="263,53.2969,273,43.2969,646,43.2969,646,207.2969,636,217.2969,263,217.2969,263,53.2969" style="stroke:#181818;stroke-width:1.0;"/><line style="stroke:#181818;stroke-width:1.0;" x1="636" x2="646" y1="53.2969" y2="43.2969"/><line style="stroke:#181818;stroke-width:1.0;" x1="263" x2="636" y1="53.2969" y2="53.2969"/><line style="stroke:#181818;stroke-width:1.0;" x1="636" x2="636" y1="53.2969" y2="217.2969"/><text fill="#000000" font-family="sans-serif" font-size="14" font-weight="bold" lengthAdjust="spacing" textLength="103" x="399" y="69.292">Client Device</text></g><!--cluster Browser_Environment--><g id="cluster_Browser_Environment"><polygon fill="#757575" points="287,101.2969,297,91.2969,622,91.2969,622,183.2969,612,193.2969,287,193.2969,287,101.2969" style="stroke:#181818;stroke-width:1.0;"/><line style="stroke:#181818;stroke-width:1.0;" x1="612" x2="622" y1="101.2969" y2="91.2969"/><line style="stroke:#181818;stroke-width:1.0;" x1="287" x2="612" y1="101.2969" y2="101.2969"/><line style="stroke:#181818;stroke-width:1.0;" x1="612" x2="612" y1="101.2969" y2="193.2969"/><text fill="#000000" font-family="sans-serif" font-size="14" font-weight="bold" lengthAdjust="spacing" textLength="171" x="365" y="117.292">Browser Environment</text></g><!--cluster Server_Device--><g id="cluster_Server_Device"><polygon fill="#616161" points="16,321.2969,26,311.2969,865,311.2969,865,753.2969,855,763.2969,16,763.2969,16,321.2969" style="stroke:#181818;stroke-width:1.0;"/><line style="stroke:#181818;stroke-width:1.0;" x1="855" x2="865" y1="321.2969" y2="311.2969"/><line style="stroke:#181818;stroke-width:1.0;" x1="16" x2="855" y1="321.2969" y2="321.2969"/><line style="stroke:#181818;stroke-width:1.0;" x1="855" x2="855" y1="321.2969" y2="763.2969"/><text fill="#000000" font-family="sans-serif" font-size="14" font-weight="bold" lengthAdjust="spacing" textLength="111" x="381" y="337.292">Server Device</text></g><!--cluster Singleton_Container--><g id="cluster_Singleton_Container"><polygon fill="#757575" points="40,369.2969,50,359.2969,841,359.2969,841,729.2969,831,739.2969,40,739.2969,40,369.2969" style="stroke:#181818;stroke-width:1.0;"/><line style="stroke:#181818;stroke-width:1.0;" x1="831" x2="841" y1="369.2969" y2="359.2969"/><line style="stroke:#181818;stroke-width:1.0;" x1="40" x2="831" y1="369.2969" y2="369.2969"/><line style="stroke:#181818;stroke-width:1.0;" x1="831" x2="831" y1="369.2969" y2="739.2969"/><text fill="#000000" font-family="sans-serif" font-size="14" font-weight="bold" lengthAdjust="spacing" text-decoration="underline" textLength="156" x="358.5" y="385.292">Singleton Container</text><text fill="#000000" font-family="sans-serif" font-size="14" font-weight="bold" lengthAdjust="spacing" textLength="187" x="345.5" y="401.5889">Minimum: 4vCPUs/16GB</text><text fill="#000000" font-family="sans-serif" font-size="14" font-weight="bold" lengthAdjust="spacing" textLength="245" x="316.5" y="417.8857">Recommended: 16vCPUs/32GB</text></g><!--cluster Querying--><g id="cluster_Querying"><rect fill="#9E9E9E" height="266.5" rx="2.5" ry="2.5" style="stroke:#181818;stroke-width:1.0;" width="292" x="64" y="448.7969"/><path d="M146,448.7969 L146,458.0938 L136,468.0938 L64,468.0938 " fill="none" style="stroke:#181818;stroke-width:1.0;"/><text fill="#000000" font-family="sans-serif" font-size="14" font-weight="bold" lengthAdjust="spacing" textLength="72" x="67" y="462.792">Querying</text></g><!--cluster Caching--><g id="cluster_Caching"><rect fill="#9E9E9E" height="268" rx="2.5" ry="2.5" style="stroke:#181818;stroke-width:1.0;" width="262" x="555" y="439.2969"/><path d="M628,439.2969 L628,448.5938 L618,458.5938 L555,458.5938 " fill="none" style="stroke:#181818;stroke-width:1.0;"/><text fill="#000000" font-family="sans-serif" font-size="14" font-weight="bold" lengthAdjust="spacing" textLength="63" x="558" y="453.292">Caching</text></g><!--entity Main_Thread--><g id="elem_Main_Thread"><polygon fill="#BDBDBD" points="480.5,141.2969,490.5,131.2969,605.5,131.2969,605.5,167.5938,595.5,177.5938,480.5,177.5938,480.5,141.2969" style="stroke:#181818;stroke-width:0.5;"/><line style="stroke:#181818;stroke-width:0.5;" x1="595.5" x2="605.5" y1="141.2969" y2="131.2969"/><line style="stroke:#181818;stroke-width:0.5;" x1="480.5" x2="595.5" y1="141.2969" y2="141.2969"/><line style="stroke:#181818;stroke-width:0.5;" x1="595.5" x2="595.5" y1="141.2969" y2="177.5938"/><text fill="#000000" font-family="sans-serif" font-size="14" lengthAdjust="spacing" textLength="85" x="495.5" y="164.292">Main Thread</text></g><!--entity Worker_Thread--><g id="elem_Worker_Thread"><polygon fill="#BDBDBD" points="303,141.2969,313,131.2969,445,131.2969,445,167.5938,435,177.5938,303,177.5938,303,141.2969" style="stroke:#181818;stroke-width:0.5;"/><line style="stroke:#181818;stroke-width:0.5;" x1="435" x2="445" y1="141.2969" y2="131.2969"/><line style="stroke:#181818;stroke-width:0.5;" x1="303" x2="435" y1="141.2969" y2="141.2969"/><line style="stroke:#181818;stroke-width:0.5;" x1="435" x2="435" y1="141.2969" y2="177.5938"/><text fill="#000000" font-family="sans-serif" font-size="14" lengthAdjust="spacing" textLength="102" x="318" y="164.292">Worker Thread</text></g><!--entity Application_Server--><g id="elem_Application_Server"><a href="./application.svg" target="_top" title="./application.svg" xlink:actuate="onRequest" xlink:href="./application.svg" xlink:show="new" xlink:title="./application.svg" xlink:type="simple"><polygon fill="#9E9E9E" points="372.5,502.2969,382.5,492.2969,535.5,492.2969,535.5,528.5938,525.5,538.5938,372.5,538.5938,372.5,502.2969" style="stroke:#181818;stroke-width:0.5;"/><line style="stroke:#181818;stroke-width:0.5;" x1="525.5" x2="535.5" y1="502.2969" y2="492.2969"/><line style="stroke:#181818;stroke-width:0.5;" x1="372.5" x2="525.5" y1="502.2969" y2="502.2969"/><line style="stroke:#181818;stroke-width:0.5;" x1="525.5" x2="525.5" y1="502.2969" y2="538.5938"/><text fill="#000000" font-family="sans-serif" font-size="14" lengthAdjust="spacing" textLength="123" x="387.5" y="525.292">Application Server</text></a></g><!--entity File_System--><g id="elem_File_System"><a href="./fs.svg" target="_top" title="./fs.svg" xlink:actuate="onRequest" xlink:href="./fs.svg" xlink:show="new" xlink:title="./fs.svg" xlink:type="simple"><path d="M405,645.2969 C405,635.2969 454,635.2969 454,635.2969 C454,635.2969 503,635.2969 503,645.2969 L503,670.5938 C503,680.5938 454,680.5938 454,680.5938 C454,680.5938 405,680.5938 405,670.5938 L405,645.2969 " fill="#9E9E9E" style="stroke:#181818;stroke-width:0.5;"/><path d="M405,645.2969 C405,655.2969 454,655.2969 454,655.2969 C454,655.2969 503,655.2969 503,645.2969 " fill="none" style="stroke:#181818;stroke-width:0.5;"/><text fill="#000000" font-family="sans-serif" font-size="14" lengthAdjust="spacing" textLength="78" x="415" y="672.292">File System</text></a></g><!--entity Apache_Pulsar--><g id="elem_Apache_Pulsar"><path d="M112,483.7969 L332,483.7969 C337,483.7969 337,515.2422 337,515.2422 C337,515.2422 337,546.6875 332,546.6875 L112,546.6875 C107,546.6875 107,515.2422 107,515.2422 C107,515.2422 107,483.7969 112,483.7969 " fill="#BDBDBD" style="stroke:#181818;stroke-width:0.5;"/><path d="M332,483.7969 C327,483.7969 327,515.2422 327,515.2422 C327,546.6875 332,546.6875 332,546.6875 " fill="none" style="stroke:#181818;stroke-width:0.5;"/><text fill="#000000" font-family="sans-serif" font-size="14" lengthAdjust="spacing" textLength="161" x="116" y="518.0889">Memory minimum: 2GB</text><text fill="#000000" font-family="sans-serif" font-size="14" lengthAdjust="spacing" textLength="200" x="116" y="534.3857">Memory recommended: 8GB</text><line style="stroke:#181818;stroke-width:0.5;" x1="108" x2="169.4547" y1="496.9453" y2="496.9453"/><text fill="#000000" font-family="sans-serif" font-size="14" lengthAdjust="spacing" textLength="98" x="169.4547" y="501.292">Apache Pulsar</text><line style="stroke:#181818;stroke-width:0.5;" x1="267.4547" x2="328.9093" y1="496.9453" y2="496.9453"/></g><!--entity Apache_Trino--><g id="elem_Apache_Trino"><polygon fill="#BDBDBD" points="80.5,626.2969,90.5,616.2969,339.5,616.2969,339.5,689.1875,329.5,699.1875,80.5,699.1875,80.5,626.2969" style="stroke:#181818;stroke-width:0.5;"/><line style="stroke:#181818;stroke-width:0.5;" x1="329.5" x2="339.5" y1="626.2969" y2="616.2969"/><line style="stroke:#181818;stroke-width:0.5;" x1="80.5" x2="329.5" y1="626.2969" y2="626.2969"/><line style="stroke:#181818;stroke-width:0.5;" x1="329.5" x2="329.5" y1="626.2969" y2="699.1875"/><text fill="#000000" font-family="sans-serif" font-size="14" lengthAdjust="spacing" textLength="161" x="99.5" y="665.5889">Memory minimum: 4GB</text><text fill="#000000" font-family="sans-serif" font-size="14" lengthAdjust="spacing" textLength="209" x="99.5" y="681.8857">Memory recommended: 16GB</text><line style="stroke:#181818;stroke-width:0.5;" x1="80.5" x2="329.5" y1="644.4453" y2="644.4453"/><line style="stroke:#181818;stroke-width:0.5;" x1="329.5" x2="339.5" y1="644.4453" y2="634.4453"/><rect fill="#BDBDBD" height="16.2969" style="stroke:#181818;stroke-width:0.5;" width="91" x="159.5" y="635.7969"/><text fill="#000000" font-family="sans-serif" font-size="14" lengthAdjust="spacing" textLength="91" x="159.5" y="648.792">Apache Trino</text></g><!--entity Apache_Airflow--><g id="elem_Apache_Airflow"><polygon fill="#BDBDBD" points="571.5,634.2969,581.5,624.2969,782.5,624.2969,782.5,680.8906,772.5,690.8906,571.5,690.8906,571.5,634.2969" style="stroke:#181818;stroke-width:0.5;"/><line style="stroke:#181818;stroke-width:0.5;" x1="772.5" x2="782.5" y1="634.2969" y2="624.2969"/><line style="stroke:#181818;stroke-width:0.5;" x1="571.5" x2="772.5" y1="634.2969" y2="634.2969"/><line style="stroke:#181818;stroke-width:0.5;" x1="772.5" x2="772.5" y1="634.2969" y2="690.8906"/><text fill="#000000" font-family="sans-serif" font-size="14" lengthAdjust="spacing" textLength="161" x="590.5" y="673.5889">Memory minimum: 4GB</text><line style="stroke:#181818;stroke-width:0.5;" x1="571.5" x2="772.5" y1="652.4453" y2="652.4453"/><line style="stroke:#181818;stroke-width:0.5;" x1="772.5" x2="782.5" y1="652.4453" y2="642.4453"/><rect fill="#BDBDBD" height="16.2969" style="stroke:#181818;stroke-width:0.5;" width="100" x="622" y="643.7969"/><text fill="#000000" font-family="sans-serif" font-size="14" lengthAdjust="spacing" textLength="100" x="622" y="656.792">Apache Airflow</text></g><!--entity ClickHouse--><g id="elem_ClickHouse"><path d="M571,484.2969 C571,474.2969 686,474.2969 686,474.2969 C686,474.2969 801,474.2969 801,484.2969 L801,546.1875 C801,556.1875 686,556.1875 686,556.1875 C686,556.1875 571,556.1875 571,546.1875 L571,484.2969 " fill="#BDBDBD" style="stroke:#181818;stroke-width:0.5;"/><path d="M571,484.2969 C571,494.2969 686,494.2969 686,494.2969 C686,494.2969 801,494.2969 801,484.2969 " fill="none" style="stroke:#181818;stroke-width:0.5;"/><text fill="#000000" font-family="sans-serif" font-size="14" lengthAdjust="spacing" textLength="161" x="585" y="527.5889">Memory minimum: 2GB</text><text fill="#000000" font-family="sans-serif" font-size="14" lengthAdjust="spacing" textLength="200" x="585" y="543.8857">Memory recommended: 4GB</text><path d="M571,501.4453 C571,511.4453 686,511.4453 686,511.4453 C686,511.4453 801,511.4453 801,501.4453 " fill="none" style="stroke:#181818;stroke-width:0.5;"/><rect fill="#BDBDBD" height="16.2969" style="stroke:#181818;stroke-width:0.5;" width="77" x="647.5" y="497.7969"/><text fill="#000000" font-family="sans-serif" font-size="14" lengthAdjust="spacing" textLength="77" x="647.5" y="510.792">ClickHouse</text></g><!--entity Public_REST_API--><g id="elem_Public_REST_API"><ellipse cx="374" cy="266.2969" fill="#F1F1F1" rx="8" ry="8" style="stroke:#181818;stroke-width:0.5;"/><text fill="#000000" font-family="sans-serif" font-size="14" lengthAdjust="spacing" textLength="107" x="320.5" y="296.292">Public REST API</text></g><!--entity Private_REST_API--><g id="elem_Private_REST_API"><ellipse cx="534" cy="266.2969" fill="#F1F1F1" rx="8" ry="8" style="stroke:#181818;stroke-width:0.5;"/><text fill="#000000" font-family="sans-serif" font-size="14" lengthAdjust="spacing" textLength="112" x="478" y="296.292">Private REST API</text></g><!--link Worker_Thread to Main_Thread--><g id="link_Worker_Thread_Main_Thread"><path d="M445.3,154.2969 C457,154.2969 468.7,154.2969 480.41,154.2969 " fill="none" id="Worker_Thread-Main_Thread" style="stroke:#181818;stroke-width:1.0;"/><ellipse cx="462.8513" cy="154.2969" fill="#FFFFFF" rx="6" ry="6" style="stroke:#181818;stroke-width:1.5;"/></g><!--link Apache_Pulsar to Application_Server--><g id="link_Apache_Pulsar_Application_Server"><path d="M337.09,515.2969 C348.81,515.2969 360.54,515.2969 372.26,515.2969 " fill="none" id="Apache_Pulsar-Application_Server" style="stroke:#181818;stroke-width:1.0;"/><path d="M361.7461,522.3679 A10,10 0 0 0 361.7461 508.2258" fill="none" style="stroke:#181818;stroke-width:1.5;"/><ellipse cx="354.675" cy="515.2969" fill="#FFFFFF" rx="6" ry="6" style="stroke:#181818;stroke-width:1.5;"/></g><!--link Apache_Pulsar to Apache_Trino--><!--link Application_Server to Apache_Trino--><g id="link_Application_Server_Apache_Trino"><path d="M415.61,538.4069 C379.51,559.1969 324.58,590.8169 280.58,616.1569 " fill="none" id="Application_Server-Apache_Trino" style="stroke:#181818;stroke-width:1.0;"/><path d="M360.7136,578.1754 A10,10 0 0 0 353.6573 565.9195" fill="none" style="stroke:#181818;stroke-width:1.5;"/><ellipse cx="351.0575" cy="575.5756" fill="#FFFFFF" rx="6" ry="6" style="stroke:#181818;stroke-width:1.5;"/></g><!--link Application_Server to Apache_Airflow--><g id="link_Application_Server_Apache_Airflow"><path d="M489.34,538.5569 C525.93,561.6169 583.5,597.8869 625.23,624.1769 " fill="none" id="Application_Server-Apache_Airflow" style="stroke:#181818;stroke-width:1.0;"/><path d="M557.5708,589.9076 A10,10 0 0 0 565.1095 577.9424" fill="none" style="stroke:#181818;stroke-width:1.5;"/><ellipse cx="555.3575" cy="580.1556" fill="#FFFFFF" rx="6" ry="6" style="stroke:#181818;stroke-width:1.5;"/></g><!--link ClickHouse to Apache_Airflow--><g id="link_ClickHouse_Apache_Airflow"><path d="M683.42,556.5569 C682.05,577.9669 680.39,603.9469 679.09,624.0969 " fill="none" id="ClickHouse-Apache_Airflow" style="stroke:#181818;stroke-width:1.0;"/><path d="M673.7202,597.404 A10,10 0 0 0 687.8334 598.308" fill="none" style="stroke:#181818;stroke-width:1.5;"/><ellipse cx="681.2288" cy="590.7994" fill="#FFFFFF" rx="6" ry="6" style="stroke:#181818;stroke-width:1.5;"/></g><!--link Application_Server to ClickHouse--><g id="link_Application_Server_ClickHouse"><path d="M535.56,515.2969 C547.32,515.2969 559.07,515.2969 570.82,515.2969 " fill="none" id="Application_Server-ClickHouse" style="stroke:#181818;stroke-width:1.0;"/><path d="M546.1227,508.2258 A10,10 0 0 0 546.1227 522.3679" fill="none" style="stroke:#181818;stroke-width:1.5;"/><ellipse cx="553.1938" cy="515.2969" fill="#FFFFFF" rx="6" ry="6" style="stroke:#181818;stroke-width:1.5;"/></g><!--link Apache_Pulsar to File_System--><g id="link_Apache_Pulsar_File_System"><path d="M272.63,546.9569 C316.62,573.6069 379.25,611.5269 418.22,635.1269 " fill="none" id="Apache_Pulsar-File_System" style="stroke:#181818;stroke-width:1.0;"/><path d="M344.9217,582.4744 A10,10 0 0 0 337.5963 594.5714" fill="none" style="stroke:#181818;stroke-width:1.5;"/><ellipse cx="347.3075" cy="592.1856" fill="#FFFFFF" rx="6" ry="6" style="stroke:#181818;stroke-width:1.5;"/></g><!--link Apache_Trino to File_System--><g id="link_Apache_Trino_File_System"><path d="M339.62,657.7969 C361.37,657.7969 383.11,657.7969 404.85,657.7969 " fill="none" id="Apache_Trino-File_System" style="stroke:#181818;stroke-width:1.0;"/><path d="M365.1677,650.7258 A10,10 0 0 0 365.1677 664.8679" fill="none" style="stroke:#181818;stroke-width:1.5;"/><ellipse cx="372.2388" cy="657.7969" fill="#FFFFFF" rx="6" ry="6" style="stroke:#181818;stroke-width:1.5;"/></g><!--link Application_Server to File_System--><g id="link_Application_Server_File_System"><path d="M454,538.5569 C454,565.0269 454,608.8869 454,635.0969 " fill="none" id="Application_Server-File_System" style="stroke:#181818;stroke-width:1.0;"/><path d="M461.0711,579.8533 A10,10 0 0 0 446.9289 579.8533" fill="none" style="stroke:#181818;stroke-width:1.5;"/><ellipse cx="454" cy="586.9244" fill="#FFFFFF" rx="6" ry="6" style="stroke:#181818;stroke-width:1.5;"/></g><!--link ClickHouse to File_System--><g id="link_ClickHouse_File_System"><path d="M619.83,556.3669 C577.51,581.9969 524.26,614.2469 489.69,635.1769 " fill="none" id="ClickHouse-File_System" style="stroke:#181818;stroke-width:1.0;"/><path d="M561.565,599.9199 A10,10 0 0 0 554.2393 587.8231" fill="none" style="stroke:#181818;stroke-width:1.5;"/><ellipse cx="551.8538" cy="597.5344" fill="#FFFFFF" rx="6" ry="6" style="stroke:#181818;stroke-width:1.5;"/></g><!--link File_System to Apache_Airflow--><g id="link_File_System_Apache_Airflow"><path d="M503.22,657.7969 C525.96,657.7969 548.7,657.7969 571.44,657.7969 " fill="none" id="File_System-Apache_Airflow" style="stroke:#181818;stroke-width:1.0;"/><path d="M544.4011,664.8679 A10,10 0 0 0 544.4011 650.7258" fill="none" style="stroke:#181818;stroke-width:1.5;"/><ellipse cx="537.33" cy="657.7969" fill="#FFFFFF" rx="6" ry="6" style="stroke:#181818;stroke-width:1.5;"/></g><!--link Worker_Thread to Public_REST_API--><g id="link_Worker_Thread_Public_REST_API"><path d="M374,177.5569 C374,202.1669 374,230.5269 374,247.1569 " fill="none" id="Worker_Thread-to-Public_REST_API" style="stroke:#181818;stroke-width:1.0;"/><path d="M382.4572,254.0787 A9,9 0 0 0 365.5428 254.0787" fill="none" style="stroke:#181818;stroke-width:1.5;"/></g><!--link Public_REST_API to Application_Server--><g id="link_Public_REST_API_Application_Server"><path d="M376.66,275.5169 C387.67,309.4969 429.85,439.7369 446.84,492.1969 " fill="none" id="Public_REST_API-Application_Server" style="stroke:#181818;stroke-width:1.0;"/></g><!--link Private_REST_API to Application_Server--><g id="link_Private_REST_API_Application_Server"><path d="M531.34,275.5169 C520.33,309.4969 478.15,439.7369 461.16,492.1969 " fill="none" id="Private_REST_API-Application_Server" style="stroke:#181818;stroke-width:1.0;"/></g><!--SRC=[bLHDRnen4BtpAqPmIG-RX3IbRMv0Kzf391geUg38CkmGhEpQrFiHeIZ_lVu4inYgoaB2p_FUl9dn6g1aPOOmGewIPl05DvdOviZBLWk0YnIXFSoOsgkZcYsn3RG0Yn2BGAVNrGjU5SDp1bAy52ZXdjTC2gu53TFX9C2Xy_63Nexl5Hueup1TIwIfOUeziNleB5Az3k9_2Vci4WOCYpGvZdHuc4XsdOGfJDHRI_zsVPYWh5M6e0yMETS7GYQCFsLO2Wv3mKkLGH78RmuFZBEyok_WjXwEVnPNtTveeE17N8fSjIN5z0wwFNls_cOqi0cz6Dc9dMXVVxF9s9AMJ2MsDer001DNpsnsUKNty6LHFytdqFcCUlbshIJDbUgF2kLMUJ1QVkDZTmu0_bHOcUhx6xfS8uohhA2kRio5t4BkoxynPJjKXjL_SaLR3M8r6hE7ngaUvBiaKcPhH_23STQcad4HTNPxqfcULMZDQFpBsMpDqXJvF3bW1T57aqakhgF1Rusf35M47uhx7vb9e-u-awjCl9ogF2pFXKOAFBPikn_IzfrFQKaNj30kr1EoVFucgWB_yrPuRtk18r_1KSpFEVkIwPxl1PeTtvVmbQbdSx8jIioD7xqdTcy-gLNH-9AYbq9d2vY7GVPQEK-ngFYDEOuC6t8sevzqac4iRlSWCbwYN57rwBN7rKAfm-FzP0hzyNVJ2uiHZH65jOwUs-GY4jD0LDI9xpZCBbbDIsoaj-21TWCw8VuN]--></g></svg>