<?xml version="1.0" encoding="us-ascii" standalone="no"?><svg xmlns="http://www.w3.org/2000/svg" xmlns:xlink="http://www.w3.org/1999/xlink" contentStyleType="text/css" height="886px" preserveAspectRatio="none" style="width:882px;height:886px;background:#FFFFFF;" version="1.1" viewBox="0 0 882 886" width="882px" zoomAndPan="magnify"><defs/><g><text fill="#000000" font-family="sans-serif" font-size="14" font-weight="bold" lengthAdjust="spacing" textLength="161" x="353.5" y="22.9951">General Deployment</text><!--cluster Client_Device--><g id="cluster_Client_Device"><polygon fill="#616161" points="233,53.2969,243,43.2969,528,43.2969,528,313.2969,518,323.2969,233,323.2969,233,53.2969" style="stroke:#181818;stroke-width:1.0;"/><line style="stroke:#181818;stroke-width:1.0;" x1="518" x2="528" y1="53.2969" y2="43.2969"/><line style="stroke:#181818;stroke-width:1.0;" x1="233" x2="518" y1="53.2969" y2="53.2969"/><line style="stroke:#181818;stroke-width:1.0;" x1="518" x2="518" y1="53.2969" y2="323.2969"/><text fill="#000000" font-family="sans-serif" font-size="14" font-weight="bold" lengthAdjust="spacing" textLength="103" x="325" y="69.292">Client Device</text></g><!--cluster Browser_Environment--><g id="cluster_Browser_Environment"><polygon fill="#757575" points="257,101.2969,267,91.2969,504,91.2969,504,289.2969,494,299.2969,257,299.2969,257,101.2969" style="stroke:#181818;stroke-width:1.0;"/><line style="stroke:#181818;stroke-width:1.0;" x1="494" x2="504" y1="101.2969" y2="91.2969"/><line style="stroke:#181818;stroke-width:1.0;" x1="257" x2="494" y1="101.2969" y2="101.2969"/><line style="stroke:#181818;stroke-width:1.0;" x1="494" x2="494" y1="101.2969" y2="299.2969"/><text fill="#000000" font-family="sans-serif" font-size="14" font-weight="bold" lengthAdjust="spacing" textLength="171" x="291" y="117.292">Browser Environment</text></g><!--cluster Server_Device--><g id="cluster_Server_Device"><polygon fill="#616161" points="16,427.2969,26,417.2969,865,417.2969,865,859.2969,855,869.2969,16,869.2969,16,427.2969" style="stroke:#181818;stroke-width:1.0;"/><line style="stroke:#181818;stroke-width:1.0;" x1="855" x2="865" y1="427.2969" y2="417.2969"/><line style="stroke:#181818;stroke-width:1.0;" x1="16" x2="855" y1="427.2969" y2="427.2969"/><line style="stroke:#181818;stroke-width:1.0;" x1="855" x2="855" y1="427.2969" y2="869.2969"/><text fill="#000000" font-family="sans-serif" font-size="14" font-weight="bold" lengthAdjust="spacing" textLength="111" x="381" y="443.292">Server Device</text></g><!--cluster Singleton_Container--><g id="cluster_Singleton_Container"><polygon fill="#757575" points="40,475.2969,50,465.2969,841,465.2969,841,835.2969,831,845.2969,40,845.2969,40,475.2969" style="stroke:#181818;stroke-width:1.0;"/><line style="stroke:#181818;stroke-width:1.0;" x1="831" x2="841" y1="475.2969" y2="465.2969"/><line style="stroke:#181818;stroke-width:1.0;" x1="40" x2="831" y1="475.2969" y2="475.2969"/><line style="stroke:#181818;stroke-width:1.0;" x1="831" x2="831" y1="475.2969" y2="845.2969"/><text fill="#000000" font-family="sans-serif" font-size="14" font-weight="bold" lengthAdjust="spacing" text-decoration="underline" textLength="156" x="358.5" y="491.292">Singleton Container</text><text fill="#000000" font-family="sans-serif" font-size="14" font-weight="bold" lengthAdjust="spacing" textLength="187" x="345.5" y="507.5889">Minimum: 4vCPUs/16GB</text><text fill="#000000" font-family="sans-serif" font-size="14" font-weight="bold" lengthAdjust="spacing" textLength="245" x="316.5" y="523.8857">Recommended: 16vCPUs/32GB</text></g><!--cluster Querying--><g id="cluster_Querying"><rect fill="#9E9E9E" height="266.5" rx="2.5" ry="2.5" style="stroke:#181818;stroke-width:1.0;" width="292" x="64" y="554.7969"/><path d="M146,554.7969 L146,564.0938 L136,574.0938 L64,574.0938 " fill="none" style="stroke:#181818;stroke-width:1.0;"/><text fill="#000000" font-family="sans-serif" font-size="14" font-weight="bold" lengthAdjust="spacing" textLength="72" x="67" y="568.792">Querying</text></g><!--cluster Caching--><g id="cluster_Caching"><rect fill="#9E9E9E" height="268" rx="2.5" ry="2.5" style="stroke:#181818;stroke-width:1.0;" width="262" x="555" y="545.2969"/><path d="M628,545.2969 L628,554.5938 L618,564.5938 L555,564.5938 " fill="none" style="stroke:#181818;stroke-width:1.0;"/><text fill="#000000" font-family="sans-serif" font-size="14" font-weight="bold" lengthAdjust="spacing" textLength="63" x="558" y="559.292">Caching</text></g><!--entity Main_Thread--><g id="elem_Main_Thread"><polygon fill="#BDBDBD" points="317.5,141.2969,327.5,131.2969,442.5,131.2969,442.5,167.5938,432.5,177.5938,317.5,177.5938,317.5,141.2969" style="stroke:#181818;stroke-width:0.5;"/><line style="stroke:#181818;stroke-width:0.5;" x1="432.5" x2="442.5" y1="141.2969" y2="131.2969"/><line style="stroke:#181818;stroke-width:0.5;" x1="317.5" x2="432.5" y1="141.2969" y2="141.2969"/><line style="stroke:#181818;stroke-width:0.5;" x1="432.5" x2="432.5" y1="141.2969" y2="177.5938"/><text fill="#000000" font-family="sans-serif" font-size="14" lengthAdjust="spacing" textLength="85" x="332.5" y="164.292">Main Thread</text></g><!--entity Worker_Thread--><g id="elem_Worker_Thread"><polygon fill="#BDBDBD" points="309,247.2969,319,237.2969,451,237.2969,451,273.5938,441,283.5938,309,283.5938,309,247.2969" style="stroke:#181818;stroke-width:0.5;"/><line style="stroke:#181818;stroke-width:0.5;" x1="441" x2="451" y1="247.2969" y2="237.2969"/><line style="stroke:#181818;stroke-width:0.5;" x1="309" x2="441" y1="247.2969" y2="247.2969"/><line style="stroke:#181818;stroke-width:0.5;" x1="441" x2="441" y1="247.2969" y2="283.5938"/><text fill="#000000" font-family="sans-serif" font-size="14" lengthAdjust="spacing" textLength="102" x="324" y="270.292">Worker Thread</text></g><!--entity Application_Server--><g id="elem_Application_Server"><a href="./application.svg" target="_top" title="./application.svg" xlink:actuate="onRequest" xlink:href="./application.svg" xlink:show="new" xlink:title="./application.svg" xlink:type="simple"><polygon fill="#9E9E9E" points="372.5,608.2969,382.5,598.2969,535.5,598.2969,535.5,634.5938,525.5,644.5938,372.5,644.5938,372.5,608.2969" style="stroke:#181818;stroke-width:0.5;"/><line style="stroke:#181818;stroke-width:0.5;" x1="525.5" x2="535.5" y1="608.2969" y2="598.2969"/><line style="stroke:#181818;stroke-width:0.5;" x1="372.5" x2="525.5" y1="608.2969" y2="608.2969"/><line style="stroke:#181818;stroke-width:0.5;" x1="525.5" x2="525.5" y1="608.2969" y2="644.5938"/><text fill="#000000" font-family="sans-serif" font-size="14" lengthAdjust="spacing" textLength="123" x="387.5" y="631.292">Application Server</text></a></g><!--entity File_System--><g id="elem_File_System"><a href="./fs.svg" target="_top" title="./fs.svg" xlink:actuate="onRequest" xlink:href="./fs.svg" xlink:show="new" xlink:title="./fs.svg" xlink:type="simple"><path d="M405,751.2969 C405,741.2969 454,741.2969 454,741.2969 C454,741.2969 503,741.2969 503,751.2969 L503,776.5938 C503,786.5938 454,786.5938 454,786.5938 C454,786.5938 405,786.5938 405,776.5938 L405,751.2969 " fill="#9E9E9E" style="stroke:#181818;stroke-width:0.5;"/><path d="M405,751.2969 C405,761.2969 454,761.2969 454,761.2969 C454,761.2969 503,761.2969 503,751.2969 " fill="none" style="stroke:#181818;stroke-width:0.5;"/><text fill="#000000" font-family="sans-serif" font-size="14" lengthAdjust="spacing" textLength="78" x="415" y="778.292">File System</text></a></g><!--entity Apache_Pulsar--><g id="elem_Apache_Pulsar"><path d="M112,589.7969 L332,589.7969 C337,589.7969 337,621.2422 337,621.2422 C337,621.2422 337,652.6875 332,652.6875 L112,652.6875 C107,652.6875 107,621.2422 107,621.2422 C107,621.2422 107,589.7969 112,589.7969 " fill="#BDBDBD" style="stroke:#181818;stroke-width:0.5;"/><path d="M332,589.7969 C327,589.7969 327,621.2422 327,621.2422 C327,652.6875 332,652.6875 332,652.6875 " fill="none" style="stroke:#181818;stroke-width:0.5;"/><text fill="#000000" font-family="sans-serif" font-size="14" lengthAdjust="spacing" textLength="161" x="116" y="624.0889">Memory minimum: 2GB</text><text fill="#000000" font-family="sans-serif" font-size="14" lengthAdjust="spacing" textLength="200" x="116" y="640.3857">Memory recommended: 8GB</text><line style="stroke:#181818;stroke-width:0.5;" x1="108" x2="169.4547" y1="602.9453" y2="602.9453"/><text fill="#000000" font-family="sans-serif" font-size="14" lengthAdjust="spacing" textLength="98" x="169.4547" y="607.292">Apache Pulsar</text><line style="stroke:#181818;stroke-width:0.5;" x1="267.4547" x2="328.9093" y1="602.9453" y2="602.9453"/></g><!--entity Apache_Trino--><g id="elem_Apache_Trino"><polygon fill="#BDBDBD" points="80.5,732.2969,90.5,722.2969,339.5,722.2969,339.5,795.1875,329.5,805.1875,80.5,805.1875,80.5,732.2969" style="stroke:#181818;stroke-width:0.5;"/><line style="stroke:#181818;stroke-width:0.5;" x1="329.5" x2="339.5" y1="732.2969" y2="722.2969"/><line style="stroke:#181818;stroke-width:0.5;" x1="80.5" x2="329.5" y1="732.2969" y2="732.2969"/><line style="stroke:#181818;stroke-width:0.5;" x1="329.5" x2="329.5" y1="732.2969" y2="805.1875"/><text fill="#000000" font-family="sans-serif" font-size="14" lengthAdjust="spacing" textLength="161" x="99.5" y="771.5889">Memory minimum: 4GB</text><text fill="#000000" font-family="sans-serif" font-size="14" lengthAdjust="spacing" textLength="209" x="99.5" y="787.8857">Memory recommended: 16GB</text><line style="stroke:#181818;stroke-width:0.5;" x1="80.5" x2="329.5" y1="750.4453" y2="750.4453"/><line style="stroke:#181818;stroke-width:0.5;" x1="329.5" x2="339.5" y1="750.4453" y2="740.4453"/><rect fill="#BDBDBD" height="16.2969" style="stroke:#181818;stroke-width:0.5;" width="91" x="159.5" y="741.7969"/><text fill="#000000" font-family="sans-serif" font-size="14" lengthAdjust="spacing" textLength="91" x="159.5" y="754.792">Apache Trino</text></g><!--entity Apache_Airflow--><g id="elem_Apache_Airflow"><polygon fill="#BDBDBD" points="571.5,740.2969,581.5,730.2969,782.5,730.2969,782.5,786.8906,772.5,796.8906,571.5,796.8906,571.5,740.2969" style="stroke:#181818;stroke-width:0.5;"/><line style="stroke:#181818;stroke-width:0.5;" x1="772.5" x2="782.5" y1="740.2969" y2="730.2969"/><line style="stroke:#181818;stroke-width:0.5;" x1="571.5" x2="772.5" y1="740.2969" y2="740.2969"/><line style="stroke:#181818;stroke-width:0.5;" x1="772.5" x2="772.5" y1="740.2969" y2="796.8906"/><text fill="#000000" font-family="sans-serif" font-size="14" lengthAdjust="spacing" textLength="161" x="590.5" y="779.5889">Memory minimum: 4GB</text><line style="stroke:#181818;stroke-width:0.5;" x1="571.5" x2="772.5" y1="758.4453" y2="758.4453"/><line style="stroke:#181818;stroke-width:0.5;" x1="772.5" x2="782.5" y1="758.4453" y2="748.4453"/><rect fill="#BDBDBD" height="16.2969" style="stroke:#181818;stroke-width:0.5;" width="100" x="622" y="749.7969"/><text fill="#000000" font-family="sans-serif" font-size="14" lengthAdjust="spacing" textLength="100" x="622" y="762.792">Apache Airflow</text></g><!--entity ClickHouse--><g id="elem_ClickHouse"><path d="M571,590.2969 C571,580.2969 686,580.2969 686,580.2969 C686,580.2969 801,580.2969 801,590.2969 L801,652.1875 C801,662.1875 686,662.1875 686,662.1875 C686,662.1875 571,662.1875 571,652.1875 L571,590.2969 " fill="#BDBDBD" style="stroke:#181818;stroke-width:0.5;"/><path d="M571,590.2969 C571,600.2969 686,600.2969 686,600.2969 C686,600.2969 801,600.2969 801,590.2969 " fill="none" style="stroke:#181818;stroke-width:0.5;"/><text fill="#000000" font-family="sans-serif" font-size="14" lengthAdjust="spacing" textLength="161" x="585" y="633.5889">Memory minimum: 2GB</text><text fill="#000000" font-family="sans-serif" font-size="14" lengthAdjust="spacing" textLength="200" x="585" y="649.8857">Memory recommended: 4GB</text><path d="M571,607.4453 C571,617.4453 686,617.4453 686,617.4453 C686,617.4453 801,617.4453 801,607.4453 " fill="none" style="stroke:#181818;stroke-width:0.5;"/><rect fill="#BDBDBD" height="16.2969" style="stroke:#181818;stroke-width:0.5;" width="77" x="647.5" y="603.7969"/><text fill="#000000" font-family="sans-serif" font-size="14" lengthAdjust="spacing" textLength="77" x="647.5" y="616.792">ClickHouse</text></g><!--entity Public_REST_API--><g id="elem_Public_REST_API"><ellipse cx="307" cy="372.2969" fill="#F1F1F1" rx="8" ry="8" style="stroke:#181818;stroke-width:0.5;"/><text fill="#000000" font-family="sans-serif" font-size="14" lengthAdjust="spacing" textLength="81" x="266.5" y="402.292">/api/v1/hdio</text></g><!--entity Sessions_REST_API--><g id="elem_Sessions_REST_API"><ellipse cx="454" cy="372.2969" fill="#F1F1F1" rx="8" ry="8" style="stroke:#181818;stroke-width:0.5;"/><text fill="#000000" font-family="sans-serif" font-size="14" lengthAdjust="spacing" textLength="113" x="397.5" y="402.292">/api/v1/sessions</text></g><!--entity Tenants_REST_API--><g id="elem_Tenants_REST_API"><ellipse cx="613" cy="372.2969" fill="#F1F1F1" rx="8" ry="8" style="stroke:#181818;stroke-width:0.5;"/><text fill="#000000" font-family="sans-serif" font-size="14" lengthAdjust="spacing" textLength="104" x="561" y="402.292">/api/v1/tenants</text></g><!--link Main_Thread to Worker_Thread--><g id="link_Main_Thread_Worker_Thread"><path d="M380,177.3569 C380,194.9969 380,219.6369 380,237.2769 " fill="none" id="Main_Thread-Worker_Thread" style="stroke:#181818;stroke-width:1.0;"/><ellipse cx="380" cy="207.3169" fill="#FFFFFF" rx="6" ry="6" style="stroke:#181818;stroke-width:1.5;"/></g><!--link Apache_Pulsar to Application_Server--><g id="link_Apache_Pulsar_Application_Server"><path d="M337.09,621.2969 C348.81,621.2969 360.54,621.2969 372.26,621.2969 " fill="none" id="Apache_Pulsar-Application_Server" style="stroke:#181818;stroke-width:1.0;"/><path d="M361.7461,628.3679 A10,10 0 0 0 361.7461 614.2258" fill="none" style="stroke:#181818;stroke-width:1.5;"/><ellipse cx="354.675" cy="621.2969" fill="#FFFFFF" rx="6" ry="6" style="stroke:#181818;stroke-width:1.5;"/></g><!--link Apache_Pulsar to Apache_Trino--><!--link Application_Server to Apache_Trino--><g id="link_Application_Server_Apache_Trino"><path d="M415.61,644.4069 C379.51,665.1969 324.58,696.8169 280.58,722.1569 " fill="none" id="Application_Server-Apache_Trino" style="stroke:#181818;stroke-width:1.0;"/><path d="M360.7136,684.1754 A10,10 0 0 0 353.6573 671.9195" fill="none" style="stroke:#181818;stroke-width:1.5;"/><ellipse cx="351.0575" cy="681.5756" fill="#FFFFFF" rx="6" ry="6" style="stroke:#181818;stroke-width:1.5;"/></g><!--link Application_Server to Apache_Airflow--><g id="link_Application_Server_Apache_Airflow"><path d="M489.34,644.5569 C525.93,667.6169 583.5,703.8869 625.23,730.1769 " fill="none" id="Application_Server-Apache_Airflow" style="stroke:#181818;stroke-width:1.0;"/><path d="M557.5708,695.9076 A10,10 0 0 0 565.1095 683.9424" fill="none" style="stroke:#181818;stroke-width:1.5;"/><ellipse cx="555.3575" cy="686.1556" fill="#FFFFFF" rx="6" ry="6" style="stroke:#181818;stroke-width:1.5;"/></g><!--link ClickHouse to Apache_Airflow--><g id="link_ClickHouse_Apache_Airflow"><path d="M683.42,662.5569 C682.05,683.9669 680.39,709.9469 679.09,730.0969 " fill="none" id="ClickHouse-Apache_Airflow" style="stroke:#181818;stroke-width:1.0;"/><path d="M673.7202,703.404 A10,10 0 0 0 687.8334 704.308" fill="none" style="stroke:#181818;stroke-width:1.5;"/><ellipse cx="681.2288" cy="696.7994" fill="#FFFFFF" rx="6" ry="6" style="stroke:#181818;stroke-width:1.5;"/></g><!--link Application_Server to ClickHouse--><g id="link_Application_Server_ClickHouse"><path d="M535.56,621.2969 C547.32,621.2969 559.07,621.2969 570.82,621.2969 " fill="none" id="Application_Server-ClickHouse" style="stroke:#181818;stroke-width:1.0;"/><path d="M546.1227,614.2258 A10,10 0 0 0 546.1227 628.3679" fill="none" style="stroke:#181818;stroke-width:1.5;"/><ellipse cx="553.1938" cy="621.2969" fill="#FFFFFF" rx="6" ry="6" style="stroke:#181818;stroke-width:1.5;"/></g><!--link Apache_Pulsar to File_System--><g id="link_Apache_Pulsar_File_System"><path d="M272.63,652.9569 C316.62,679.6069 379.25,717.5269 418.22,741.1269 " fill="none" id="Apache_Pulsar-File_System" style="stroke:#181818;stroke-width:1.0;"/><path d="M344.9217,688.4744 A10,10 0 0 0 337.5963 700.5714" fill="none" style="stroke:#181818;stroke-width:1.5;"/><ellipse cx="347.3075" cy="698.1856" fill="#FFFFFF" rx="6" ry="6" style="stroke:#181818;stroke-width:1.5;"/></g><!--link Apache_Trino to File_System--><g id="link_Apache_Trino_File_System"><path d="M339.62,763.7969 C361.37,763.7969 383.11,763.7969 404.85,763.7969 " fill="none" id="Apache_Trino-File_System" style="stroke:#181818;stroke-width:1.0;"/><path d="M365.1677,756.7258 A10,10 0 0 0 365.1677 770.8679" fill="none" style="stroke:#181818;stroke-width:1.5;"/><ellipse cx="372.2388" cy="763.7969" fill="#FFFFFF" rx="6" ry="6" style="stroke:#181818;stroke-width:1.5;"/></g><!--link Application_Server to File_System--><g id="link_Application_Server_File_System"><path d="M454,644.5569 C454,671.0269 454,714.8869 454,741.0969 " fill="none" id="Application_Server-File_System" style="stroke:#181818;stroke-width:1.0;"/><path d="M461.0711,685.8533 A10,10 0 0 0 446.9289 685.8533" fill="none" style="stroke:#181818;stroke-width:1.5;"/><ellipse cx="454" cy="692.9244" fill="#FFFFFF" rx="6" ry="6" style="stroke:#181818;stroke-width:1.5;"/></g><!--link ClickHouse to File_System--><g id="link_ClickHouse_File_System"><path d="M619.83,662.3669 C577.51,687.9969 524.26,720.2469 489.69,741.1769 " fill="none" id="ClickHouse-File_System" style="stroke:#181818;stroke-width:1.0;"/><path d="M561.565,705.9199 A10,10 0 0 0 554.2393 693.8231" fill="none" style="stroke:#181818;stroke-width:1.5;"/><ellipse cx="551.8538" cy="703.5344" fill="#FFFFFF" rx="6" ry="6" style="stroke:#181818;stroke-width:1.5;"/></g><!--link File_System to Apache_Airflow--><g id="link_File_System_Apache_Airflow"><path d="M503.22,763.7969 C525.96,763.7969 548.7,763.7969 571.44,763.7969 " fill="none" id="File_System-Apache_Airflow" style="stroke:#181818;stroke-width:1.0;"/><path d="M544.4011,770.8679 A10,10 0 0 0 544.4011 756.7258" fill="none" style="stroke:#181818;stroke-width:1.5;"/><ellipse cx="537.33" cy="763.7969" fill="#FFFFFF" rx="6" ry="6" style="stroke:#181818;stroke-width:1.5;"/></g><!--link Worker_Thread to Public_REST_API--><g id="link_Worker_Thread_Public_REST_API"><path d="M365.23,283.5569 C348.9,308.1669 328.9708,338.1956 317.9308,354.8256 " fill="none" id="Worker_Thread-to-Public_REST_API" style="stroke:#181818;stroke-width:1.0;"/><path d="M321.1484,365.2699 A9,9 0 0 0 307.0565 355.9148" fill="none" style="stroke:#181818;stroke-width:1.5;"/></g><!--link Public_REST_API to Application_Server--><g id="link_Public_REST_API_Application_Server"><path d="M316.03,378.0569 C326.75,384.0969 344.63,395.4069 356,409.2969 C404.99,469.1469 435.53,557.5269 447.8,598.2569 " fill="none" id="Public_REST_API-Application_Server" style="stroke:#181818;stroke-width:1.0;"/></g><!--link Worker_Thread to Sessions_REST_API--><g id="link_Worker_Thread_Sessions_REST_API"><path d="M394.98,283.5569 C411.53,308.1669 431.7474,338.2302 442.9374,354.8602 " fill="none" id="Worker_Thread-to-Sessions_REST_API" style="stroke:#181818;stroke-width:1.0;"/><path d="M453.8182,355.8817 A9,9 0 0 0 439.7849 365.3244" fill="none" style="stroke:#181818;stroke-width:1.5;"/></g><!--link Sessions_REST_API to Application_Server--><g id="link_Sessions_REST_API_Application_Server"><path d="M454,381.5169 C454,415.4969 454,545.7369 454,598.1969 " fill="none" id="Sessions_REST_API-Application_Server" style="stroke:#181818;stroke-width:1.0;"/></g><!--link Tenants_REST_API to Application_Server--><g id="link_Tenants_REST_API_Application_Server"><path d="M603.63,377.0969 C591.12,382.5769 568.92,393.7669 555,409.2969 C502.95,467.3569 472.16,557.0169 460.02,598.2169 " fill="none" id="Tenants_REST_API-Application_Server" style="stroke:#181818;stroke-width:1.0;"/></g><!--SRC=[bLHHRzem47xdLvpWfNj8WQvZMz-0TMmFbLXXsWD3bY57iPhOp4vIeQd_VOxjW1CCKsKXSUVllllkpZc0Z6K9mWGvIfh05zmbOfyYprej02vYXFOuOThMLmLROnke0kiXrWETGRyyy5T7L34ZALuKIhZd1PE2buGcqlc9vuVEnm_bSV4LmmDb7EPRYJGsaQLDh0sTLLoU6lwNaCyweHTXFSqO5-JJHRse3ZQOrrRvEtHXXhBG_5uNhETI5mYPCVwKO2OuZ0NFT4uTG7vpU62SfNbw1xV5UFfJTVk3oKYx7t4jKjsK6ECxw0_itVkRoSWchCZ8WUnCyuQxNSBMD6CwiPLf23mtSVKi5jTTUdHVg-9fkOJEPonFrQoDfAbc_P6Zt6iDXgioAkn10S2V77DJ_N17rrk4QPuewkh6LCWzf5NvDwPivvL-zPzSqPQ3M8x6vA5n6qdMUnS5ocmT0gh1E6bpoRW8AhizgwoSbI_DSFnFsMBBuXZvCgf5UUYJoKHNlI3ujJ6LiKPKGt7_0pDfr3raSfE8btEL- -KvQA30Kycs-txOiVCnpUYAAgD2Bv3rypUHAtpZgwYq7GbET7bN8JsNv4jMzln8qEpuiOIlJ2_DsLvbc1ezfKsiRJwfZMfyIS57KMRp8kiW-woSfX0g_69EaNv3BcQi9Xqb6C8T5YBZ6SeDrKklhNS7wnRzxZPcmZHYcgzqEl9uFvkJuVIxHjVNS1HT1J0DZqQT-OW3gHKgfK7AxMHhN1OGGftutYGYGqvvPZNCxN-VlEaAS_y3]--></g></svg>