<?xml version="1.0" encoding="us-ascii" standalone="no"?><svg xmlns="http://www.w3.org/2000/svg" xmlns:xlink="http://www.w3.org/1999/xlink" contentStyleType="text/css" height="1096px" preserveAspectRatio="none" style="width:1170px;height:1096px;background:#FFFFFF;" version="1.1" viewBox="0 0 1170 1096" width="1170px" zoomAndPan="magnify"><defs/><g><text fill="#000000" font-family="sans-serif" font-size="14" font-weight="bold" lengthAdjust="spacing" textLength="89" x="533.5" y="22.9951">File system</text><!--cluster hdfs--><g id="cluster_hdfs"><path d="M8.5,43.2969 L49.5,43.2969 A3.75,3.75 0 0 1 52,45.7969 L59,65.5938 L1160.5,65.5938 A2.5,2.5 0 0 1 1163,68.0938 L1163,1086.7969 A2.5,2.5 0 0 1 1160.5,1089.2969 L8.5,1089.2969 A2.5,2.5 0 0 1 6,1086.7969 L6,45.7969 A2.5,2.5 0 0 1 8.5,43.2969 " fill="#616161" style="stroke:#000000;stroke-width:1.5;"/><line style="stroke:#000000;stroke-width:1.5;" x1="6" x2="59" y1="65.5938" y2="65.5938"/><text fill="#000000" font-family="sans-serif" font-size="14" font-weight="bold" lengthAdjust="spacing" textLength="40" x="10" y="58.292">/hdfs</text></g><!--cluster sys--><g id="cluster_sys"><path d="M778.5,129.2969 L806.5,129.2969 A3.75,3.75 0 0 1 809,131.7969 L816,151.5938 L1136.5,151.5938 A2.5,2.5 0 0 1 1139,154.0938 L1139,1023.7969 A2.5,2.5 0 0 1 1136.5,1026.2969 L778.5,1026.2969 A2.5,2.5 0 0 1 776,1023.7969 L776,131.7969 A2.5,2.5 0 0 1 778.5,129.2969 " fill="#757575" style="stroke:#000000;stroke-width:1.5;"/><line style="stroke:#000000;stroke-width:1.5;" x1="776" x2="816" y1="151.5938" y2="151.5938"/><text fill="#000000" font-family="sans-serif" font-size="14" font-weight="bold" lengthAdjust="spacing" textLength="27" x="780" y="144.292">sys</text></g><!--cluster sys_keys--><g id="cluster_sys_keys"><path d="M861.5,180.2969 L899.5,180.2969 A3.75,3.75 0 0 1 902,182.7969 L909,202.5938 L1104.5,202.5938 A2.5,2.5 0 0 1 1107,205.0938 L1107,280.7969 A2.5,2.5 0 0 1 1104.5,283.2969 L861.5,283.2969 A2.5,2.5 0 0 1 859,280.7969 L859,182.7969 A2.5,2.5 0 0 1 861.5,180.2969 " fill="#9E9E9E" style="stroke:#000000;stroke-width:1.5;"/><line style="stroke:#000000;stroke-width:1.5;" x1="859" x2="909" y1="202.5938" y2="202.5938"/><text fill="#000000" font-family="sans-serif" font-size="14" font-weight="bold" lengthAdjust="spacing" textLength="37" x="863" y="195.292">keys</text></g><!--cluster sys_logs--><g id="cluster_sys_logs"><path d="M810.5,462.2969 L844.5,462.2969 A3.75,3.75 0 0 1 847,464.7969 L854,484.5938 L1104.5,484.5938 A2.5,2.5 0 0 1 1107,487.0938 L1107,658.7969 A2.5,2.5 0 0 1 1104.5,661.2969 L810.5,661.2969 A2.5,2.5 0 0 1 808,658.7969 L808,464.7969 A2.5,2.5 0 0 1 810.5,462.2969 " fill="#9E9E9E" style="stroke:#000000;stroke-width:1.5;"/><line style="stroke:#000000;stroke-width:1.5;" x1="808" x2="854" y1="484.5938" y2="484.5938"/><text fill="#000000" font-family="sans-serif" font-size="14" font-weight="bold" lengthAdjust="spacing" textLength="33" x="812" y="477.292">logs</text></g><!--cluster sys_data--><g id="cluster_sys_data"><path d="M840.5,759.2969 L875.5,759.2969 A3.75,3.75 0 0 1 878,761.7969 L885,781.5938 L1104.5,781.5938 A2.5,2.5 0 0 1 1107,784.0938 L1107,991.7969 A2.5,2.5 0 0 1 1104.5,994.2969 L840.5,994.2969 A2.5,2.5 0 0 1 838,991.7969 L838,761.7969 A2.5,2.5 0 0 1 840.5,759.2969 " fill="#9E9E9E" style="stroke:#000000;stroke-width:1.5;"/><line style="stroke:#000000;stroke-width:1.5;" x1="838" x2="885" y1="781.5938" y2="781.5938"/><text fill="#000000" font-family="sans-serif" font-size="14" font-weight="bold" lengthAdjust="spacing" textLength="34" x="842" y="774.292">data</text></g><!--cluster usr--><g id="cluster_usr"><path d="M32.5,86.2969 L59.5,86.2969 A3.75,3.75 0 0 1 62,88.7969 L69,108.5938 L749.5,108.5938 A2.5,2.5 0 0 1 752,111.0938 L752,1062.7969 A2.5,2.5 0 0 1 749.5,1065.2969 L32.5,1065.2969 A2.5,2.5 0 0 1 30,1062.7969 L30,88.7969 A2.5,2.5 0 0 1 32.5,86.2969 " fill="#757575" style="stroke:#000000;stroke-width:1.5;"/><line style="stroke:#000000;stroke-width:1.5;" x1="30" x2="69" y1="108.5938" y2="108.5938"/><text fill="#000000" font-family="sans-serif" font-size="14" font-weight="bold" lengthAdjust="spacing" textLength="26" x="34" y="101.292">usr</text></g><!--cluster name--><g id="cluster_name"><path d="M56.5,129.2969 L100.5,129.2969 A3.75,3.75 0 0 1 103,131.7969 L110,151.5938 L725.5,151.5938 A2.5,2.5 0 0 1 728,154.0938 L728,1038.7969 A2.5,2.5 0 0 1 725.5,1041.2969 L56.5,1041.2969 A2.5,2.5 0 0 1 54,1038.7969 L54,131.7969 A2.5,2.5 0 0 1 56.5,129.2969 " fill="#9E9E9E" style="stroke:#000000;stroke-width:1.5;"/><line style="stroke:#000000;stroke-width:1.5;" x1="54" x2="110" y1="151.5938" y2="151.5938"/><text fill="#000000" font-family="sans-serif" font-size="14" font-weight="bold" lengthAdjust="spacing" textLength="43" x="58" y="144.292">name</text></g><!--cluster usr_data--><g id="cluster_usr_data"><path d="M356.5,180.2969 L391.5,180.2969 A3.75,3.75 0 0 1 394,182.7969 L401,202.5938 L642.5,202.5938 A2.5,2.5 0 0 1 645,205.0938 L645,376.7969 A2.5,2.5 0 0 1 642.5,379.2969 L356.5,379.2969 A2.5,2.5 0 0 1 354,376.7969 L354,182.7969 A2.5,2.5 0 0 1 356.5,180.2969 " fill="#BDBDBD" style="stroke:#000000;stroke-width:1.5;"/><line style="stroke:#000000;stroke-width:1.5;" x1="354" x2="401" y1="202.5938" y2="202.5938"/><text fill="#000000" font-family="sans-serif" font-size="14" font-weight="bold" lengthAdjust="spacing" textLength="34" x="358" y="195.292">data</text></g><!--cluster usr_lib--><g id="cluster_usr_lib"><path d="M88.5,419.2969 L107.5,419.2969 A3.75,3.75 0 0 1 110,421.7969 L117,441.5938 L642.5,441.5938 A2.5,2.5 0 0 1 645,444.0938 L645,682.7969 A2.5,2.5 0 0 1 642.5,685.2969 L88.5,685.2969 A2.5,2.5 0 0 1 86,682.7969 L86,421.7969 A2.5,2.5 0 0 1 88.5,419.2969 " fill="#BDBDBD" style="stroke:#000000;stroke-width:1.5;"/><line style="stroke:#000000;stroke-width:1.5;" x1="86" x2="117" y1="441.5938" y2="441.5938"/><text fill="#000000" font-family="sans-serif" font-size="14" font-weight="bold" lengthAdjust="spacing" textLength="18" x="90" y="434.292">lib</text></g><!--cluster hooks--><g id="cluster_hooks"><path d="M400.5,470.2969 L449.5,470.2969 A3.75,3.75 0 0 1 452,472.7969 L459,492.5938 L602.5,492.5938 A2.5,2.5 0 0 1 605,495.0938 L605,650.7969 A2.5,2.5 0 0 1 602.5,653.2969 L400.5,653.2969 A2.5,2.5 0 0 1 398,650.7969 L398,472.7969 A2.5,2.5 0 0 1 400.5,470.2969 " fill="#E0E0E0" style="stroke:#000000;stroke-width:1.5;"/><line style="stroke:#000000;stroke-width:1.5;" x1="398" x2="459" y1="492.5938" y2="492.5938"/><text fill="#000000" font-family="sans-serif" font-size="14" font-weight="bold" lengthAdjust="spacing" textLength="48" x="402" y="485.292">hooks</text></g><!--cluster hdmls--><g id="cluster_hdmls"><path d="M120.5,470.2969 L168.5,470.2969 A3.75,3.75 0 0 1 171,472.7969 L178,492.5938 L371.5,492.5938 A2.5,2.5 0 0 1 374,495.0938 L374,554.7969 A2.5,2.5 0 0 1 371.5,557.2969 L120.5,557.2969 A2.5,2.5 0 0 1 118,554.7969 L118,472.7969 A2.5,2.5 0 0 1 120.5,470.2969 " fill="#E0E0E0" style="stroke:#000000;stroke-width:1.5;"/><line style="stroke:#000000;stroke-width:1.5;" x1="118" x2="178" y1="492.5938" y2="492.5938"/><text fill="#000000" font-family="sans-serif" font-size="14" font-weight="bold" lengthAdjust="spacing" textLength="47" x="122" y="485.292">hdmls</text></g><!--cluster usr_bin--><g id="cluster_usr_bin"><path d="M88.5,725.2969 L113.5,725.2969 A3.75,3.75 0 0 1 116,727.7969 L123,747.5938 L693.5,747.5938 A2.5,2.5 0 0 1 696,750.0938 L696,1006.7969 A2.5,2.5 0 0 1 693.5,1009.2969 L88.5,1009.2969 A2.5,2.5 0 0 1 86,1006.7969 L86,727.7969 A2.5,2.5 0 0 1 88.5,725.2969 " fill="#BDBDBD" style="stroke:#000000;stroke-width:1.5;"/><line style="stroke:#000000;stroke-width:1.5;" x1="86" x2="123" y1="747.5938" y2="747.5938"/><text fill="#000000" font-family="sans-serif" font-size="14" font-weight="bold" lengthAdjust="spacing" textLength="24" x="90" y="740.292">bin</text></g><!--cluster wasm--><g id="cluster_wasm"><path d="M400.5,776.2969 L447.5,776.2969 A3.75,3.75 0 0 1 450,778.7969 L457,798.5938 L661.5,798.5938 A2.5,2.5 0 0 1 664,801.0938 L664,974.7969 A2.5,2.5 0 0 1 661.5,977.2969 L400.5,977.2969 A2.5,2.5 0 0 1 398,974.7969 L398,778.7969 A2.5,2.5 0 0 1 400.5,776.2969 " fill="#E0E0E0" style="stroke:#000000;stroke-width:1.5;"/><line style="stroke:#000000;stroke-width:1.5;" x1="398" x2="457" y1="798.5938" y2="798.5938"/><text fill="#000000" font-family="sans-serif" font-size="14" font-weight="bold" lengthAdjust="spacing" textLength="46" x="402" y="791.292">wasm</text></g><!--cluster docs--><g id="cluster_docs"><path d="M128.5,776.2969 L167.5,776.2969 A3.75,3.75 0 0 1 170,778.7969 L177,798.5938 L371.5,798.5938 A2.5,2.5 0 0 1 374,801.0938 L374,860.7969 A2.5,2.5 0 0 1 371.5,863.2969 L128.5,863.2969 A2.5,2.5 0 0 1 126,860.7969 L126,778.7969 A2.5,2.5 0 0 1 128.5,776.2969 " fill="#E0E0E0" style="stroke:#000000;stroke-width:1.5;"/><line style="stroke:#000000;stroke-width:1.5;" x1="126" x2="177" y1="798.5938" y2="798.5938"/><text fill="#000000" font-family="sans-serif" font-size="14" font-weight="bold" lengthAdjust="spacing" textLength="38" x="130" y="791.292">docs</text></g><!--entity sys_key--><g id="elem_sys_key"><path d="M1011.5,225.7969 L1011.5,257.0938 A2.5,2.5 0 0 0 1014,259.5938 L1080,259.5938 A2.5,2.5 0 0 0 1082.5,257.0938 L1082.5,233.2969 L1072.5,223.2969 L1014,223.2969 A2.5,2.5 0 0 0 1011.5,225.7969 " fill="#BDBDBD" style="stroke:#181818;stroke-width:0.5;"/><path d="M1072.5,223.2969 L1072.5,230.7969 A2.5,2.5 0 0 0 1075,233.2969 L1082.5,233.2969 " fill="#BDBDBD" style="stroke:#181818;stroke-width:0.5;"/><text fill="#000000" font-family="sans-serif" font-size="14" lengthAdjust="spacing" textLength="51" x="1021.5" y="246.292">sys.key</text></g><!--entity sys_pub--><g id="elem_sys_pub"><path d="M902,225.7969 L902,257.0938 A2.5,2.5 0 0 0 904.5,259.5938 L973.5,259.5938 A2.5,2.5 0 0 0 976,257.0938 L976,233.2969 L966,223.2969 L904.5,223.2969 A2.5,2.5 0 0 0 902,225.7969 " fill="#BDBDBD" style="stroke:#181818;stroke-width:0.5;"/><path d="M966,223.2969 L966,230.7969 A2.5,2.5 0 0 0 968.5,233.2969 L976,233.2969 " fill="#BDBDBD" style="stroke:#181818;stroke-width:0.5;"/><text fill="#000000" font-family="sans-serif" font-size="14" lengthAdjust="spacing" textLength="54" x="912" y="246.292">sys.pub</text></g><!--entity pulsar_log--><g id="elem_pulsar_log"><path d="M848.5,507.7969 L848.5,539.0938 A2.5,2.5 0 0 0 851,541.5938 L933,541.5938 A2.5,2.5 0 0 0 935.5,539.0938 L935.5,515.2969 L925.5,505.2969 L851,505.2969 A2.5,2.5 0 0 0 848.5,507.7969 " fill="#BDBDBD" style="stroke:#181818;stroke-width:0.5;"/><path d="M925.5,505.2969 L925.5,512.7969 A2.5,2.5 0 0 0 928,515.2969 L935.5,515.2969 " fill="#BDBDBD" style="stroke:#181818;stroke-width:0.5;"/><text fill="#000000" font-family="sans-serif" font-size="14" lengthAdjust="spacing" textLength="67" x="858.5" y="528.292">pulsar.log</text></g><!--entity trino_log--><g id="elem_trino_log"><path d="M971,507.7969 L971,539.0938 A2.5,2.5 0 0 0 973.5,541.5938 L1044.5,541.5938 A2.5,2.5 0 0 0 1047,539.0938 L1047,515.2969 L1037,505.2969 L973.5,505.2969 A2.5,2.5 0 0 0 971,507.7969 " fill="#BDBDBD" style="stroke:#181818;stroke-width:0.5;"/><path d="M1037,505.2969 L1037,512.7969 A2.5,2.5 0 0 0 1039.5,515.2969 L1047,515.2969 " fill="#BDBDBD" style="stroke:#181818;stroke-width:0.5;"/><text fill="#000000" font-family="sans-serif" font-size="14" lengthAdjust="spacing" textLength="56" x="981" y="528.292">trino.log</text></g><!--entity clickhouse_log--><g id="elem_clickhouse_log"><path d="M832.5,603.7969 L832.5,635.0938 A2.5,2.5 0 0 0 835,637.5938 L949,637.5938 A2.5,2.5 0 0 0 951.5,635.0938 L951.5,611.2969 L941.5,601.2969 L835,601.2969 A2.5,2.5 0 0 0 832.5,603.7969 " fill="#BDBDBD" style="stroke:#181818;stroke-width:0.5;"/><path d="M941.5,601.2969 L941.5,608.7969 A2.5,2.5 0 0 0 944,611.2969 L951.5,611.2969 " fill="#BDBDBD" style="stroke:#181818;stroke-width:0.5;"/><text fill="#000000" font-family="sans-serif" font-size="14" lengthAdjust="spacing" textLength="99" x="842.5" y="624.292">clickhouse.log</text></g><!--entity airflow.log--><g id="elem_airflow.log"><path d="M987,603.7969 L987,635.0938 A2.5,2.5 0 0 0 989.5,637.5938 L1072.5,637.5938 A2.5,2.5 0 0 0 1075,635.0938 L1075,611.2969 L1065,601.2969 L989.5,601.2969 A2.5,2.5 0 0 0 987,603.7969 " fill="#BDBDBD" style="stroke:#181818;stroke-width:0.5;"/><path d="M1065,601.2969 L1065,608.7969 A2.5,2.5 0 0 0 1067.5,611.2969 L1075,611.2969 " fill="#BDBDBD" style="stroke:#181818;stroke-width:0.5;"/><text fill="#000000" font-family="sans-serif" font-size="14" lengthAdjust="spacing" textLength="68" x="997" y="624.292">airflow.log</text></g><!--entity pulsar_data--><g id="elem_pulsar_data"><path d="M888.5,802.2969 L929.5,802.2969 A3.75,3.75 0 0 1 932,804.7969 L939,823.2969 L955.5,823.2969 A2.5,2.5 0 0 1 958,825.7969 L958,854.0938 A2.5,2.5 0 0 1 955.5,856.5938 L888.5,856.5938 A2.5,2.5 0 0 1 886,854.0938 L886,804.7969 A2.5,2.5 0 0 1 888.5,802.2969 " fill="#BDBDBD" style="stroke:#181818;stroke-width:0.5;"/><line style="stroke:#181818;stroke-width:0.5;" x1="886" x2="939" y1="823.2969" y2="823.2969"/><text fill="#000000" font-family="sans-serif" font-size="14" lengthAdjust="spacing" textLength="42" x="896" y="843.292">pulsar</text></g><!--entity trino_data--><g id="elem_trino_data"><path d="M995.5,802.2969 L1036.5,802.2969 A3.75,3.75 0 0 1 1039,804.7969 L1046,823.2969 L1060.5,823.2969 A2.5,2.5 0 0 1 1063,825.7969 L1063,854.0938 A2.5,2.5 0 0 1 1060.5,856.5938 L995.5,856.5938 A2.5,2.5 0 0 1 993,854.0938 L993,804.7969 A2.5,2.5 0 0 1 995.5,802.2969 " fill="#BDBDBD" style="stroke:#181818;stroke-width:0.5;"/><line style="stroke:#181818;stroke-width:0.5;" x1="993" x2="1046" y1="823.2969" y2="823.2969"/><text fill="#000000" font-family="sans-serif" font-size="14" lengthAdjust="spacing" textLength="31" x="1003" y="843.292">trino</text></g><!--entity clickhouse_data--><g id="elem_clickhouse_data"><path d="M872.5,916.2969 L913.5,916.2969 A3.75,3.75 0 0 1 916,918.7969 L923,937.2969 L971.5,937.2969 A2.5,2.5 0 0 1 974,939.7969 L974,968.0938 A2.5,2.5 0 0 1 971.5,970.5938 L872.5,970.5938 A2.5,2.5 0 0 1 870,968.0938 L870,918.7969 A2.5,2.5 0 0 1 872.5,916.2969 " fill="#BDBDBD" style="stroke:#181818;stroke-width:0.5;"/><line style="stroke:#181818;stroke-width:0.5;" x1="870" x2="923" y1="937.2969" y2="937.2969"/><text fill="#000000" font-family="sans-serif" font-size="14" lengthAdjust="spacing" textLength="74" x="880" y="957.292">clickhouse</text></g><!--entity airflow_data--><g id="elem_airflow_data"><path d="M1012,916.2969 L1053,916.2969 A3.75,3.75 0 0 1 1055.5,918.7969 L1062.5,937.2969 L1080,937.2969 A2.5,2.5 0 0 1 1082.5,939.7969 L1082.5,968.0938 A2.5,2.5 0 0 1 1080,970.5938 L1012,970.5938 A2.5,2.5 0 0 1 1009.5,968.0938 L1009.5,918.7969 A2.5,2.5 0 0 1 1012,916.2969 " fill="#BDBDBD" style="stroke:#181818;stroke-width:0.5;"/><line style="stroke:#181818;stroke-width:0.5;" x1="1009.5" x2="1062.5" y1="937.2969" y2="937.2969"/><text fill="#000000" font-family="sans-serif" font-size="14" lengthAdjust="spacing" textLength="43" x="1019.5" y="957.292">airflow</text></g><!--entity key--><g id="elem_key"><path d="M377.5,225.7969 L377.5,257.0938 A2.5,2.5 0 0 0 380,259.5938 L468,259.5938 A2.5,2.5 0 0 0 470.5,257.0938 L470.5,233.2969 L460.5,223.2969 L380,223.2969 A2.5,2.5 0 0 0 377.5,225.7969 " fill="#E0E0E0" style="stroke:#181818;stroke-width:0.5;"/><path d="M460.5,223.2969 L460.5,230.7969 A2.5,2.5 0 0 0 463,233.2969 L470.5,233.2969 " fill="#E0E0E0" style="stroke:#181818;stroke-width:0.5;"/><text fill="#000000" font-family="sans-serif" font-size="14" lengthAdjust="spacing" textLength="73" x="387.5" y="246.292">tenant.key</text></g><!--entity pub--><g id="elem_pub"><path d="M506,225.7969 L506,257.0938 A2.5,2.5 0 0 0 508.5,259.5938 L599.5,259.5938 A2.5,2.5 0 0 0 602,257.0938 L602,233.2969 L592,223.2969 L508.5,223.2969 A2.5,2.5 0 0 0 506,225.7969 " fill="#E0E0E0" style="stroke:#181818;stroke-width:0.5;"/><path d="M592,223.2969 L592,230.7969 A2.5,2.5 0 0 0 594.5,233.2969 L602,233.2969 " fill="#E0E0E0" style="stroke:#181818;stroke-width:0.5;"/><text fill="#000000" font-family="sans-serif" font-size="14" lengthAdjust="spacing" textLength="76" x="516" y="246.292">tenant.pub</text></g><!--entity git--><g id="elem_git"><path d="M381,321.7969 L381,353.0938 A2.5,2.5 0 0 0 383.5,355.5938 L464.5,355.5938 A2.5,2.5 0 0 0 467,353.0938 L467,329.2969 L457,319.2969 L383.5,319.2969 A2.5,2.5 0 0 0 381,321.7969 " fill="#E0E0E0" style="stroke:#181818;stroke-width:0.5;"/><path d="M457,319.2969 L457,326.7969 A2.5,2.5 0 0 0 459.5,329.2969 L467,329.2969 " fill="#E0E0E0" style="stroke:#181818;stroke-width:0.5;"/><text fill="#000000" font-family="sans-serif" font-size="14" lengthAdjust="spacing" textLength="66" x="391" y="342.292">tenant.git</text></g><!--entity dotenv--><g id="elem_dotenv"><path d="M502,321.7969 L502,353.0938 A2.5,2.5 0 0 0 504.5,355.5938 L593.5,355.5938 A2.5,2.5 0 0 0 596,353.0938 L596,329.2969 L586,319.2969 L504.5,319.2969 A2.5,2.5 0 0 0 502,321.7969 " fill="#E0E0E0" style="stroke:#181818;stroke-width:0.5;"/><path d="M586,319.2969 L586,326.7969 A2.5,2.5 0 0 0 588.5,329.2969 L596,329.2969 " fill="#E0E0E0" style="stroke:#181818;stroke-width:0.5;"/><text fill="#000000" font-family="sans-serif" font-size="14" lengthAdjust="spacing" textLength="74" x="512" y="342.292">tenant.env</text></g><!--entity auth_js--><g id="elem_auth_js"><path d="M414,507.7969 L414,539.0938 A2.5,2.5 0 0 0 416.5,541.5938 L477.5,541.5938 A2.5,2.5 0 0 0 480,539.0938 L480,515.2969 L470,505.2969 L416.5,505.2969 A2.5,2.5 0 0 0 414,507.7969 " fill="#FAFAFA" style="stroke:#181818;stroke-width:0.5;"/><path d="M470,505.2969 L470,512.7969 A2.5,2.5 0 0 0 472.5,515.2969 L480,515.2969 " fill="#FAFAFA" style="stroke:#181818;stroke-width:0.5;"/><text fill="#000000" font-family="sans-serif" font-size="14" lengthAdjust="spacing" textLength="46" x="424" y="528.292">auth.js</text></g><!--entity patch_js--><g id="elem_patch_js"><path d="M515,507.7969 L515,539.0938 A2.5,2.5 0 0 0 517.5,541.5938 L586.5,541.5938 A2.5,2.5 0 0 0 589,539.0938 L589,515.2969 L579,505.2969 L517.5,505.2969 A2.5,2.5 0 0 0 515,507.7969 " fill="#FAFAFA" style="stroke:#181818;stroke-width:0.5;"/><path d="M579,505.2969 L579,512.7969 A2.5,2.5 0 0 0 581.5,515.2969 L589,515.2969 " fill="#FAFAFA" style="stroke:#181818;stroke-width:0.5;"/><text fill="#000000" font-family="sans-serif" font-size="14" lengthAdjust="spacing" textLength="54" x="525" y="528.292">patch.js</text></g><!--entity cache_js--><g id="elem_cache_js"><path d="M414.5,603.7969 L414.5,635.0938 A2.5,2.5 0 0 0 417,637.5938 L489,637.5938 A2.5,2.5 0 0 0 491.5,635.0938 L491.5,611.2969 L481.5,601.2969 L417,601.2969 A2.5,2.5 0 0 0 414.5,603.7969 " fill="#FAFAFA" style="stroke:#181818;stroke-width:0.5;"/><path d="M481.5,601.2969 L481.5,608.7969 A2.5,2.5 0 0 0 484,611.2969 L491.5,611.2969 " fill="#FAFAFA" style="stroke:#181818;stroke-width:0.5;"/><text fill="#000000" font-family="sans-serif" font-size="14" lengthAdjust="spacing" textLength="57" x="424.5" y="624.292">cache.js</text></g><!--entity model_html--><g id="elem_model_html"><path d="M261.5,507.7969 L261.5,539.0938 A2.5,2.5 0 0 0 264,541.5938 L356,541.5938 A2.5,2.5 0 0 0 358.5,539.0938 L358.5,515.2969 L348.5,505.2969 L264,505.2969 A2.5,2.5 0 0 0 261.5,507.7969 " fill="#FAFAFA" style="stroke:#181818;stroke-width:0.5;"/><path d="M348.5,505.2969 L348.5,512.7969 A2.5,2.5 0 0 0 351,515.2969 L358.5,515.2969 " fill="#FAFAFA" style="stroke:#181818;stroke-width:0.5;"/><text fill="#000000" font-family="sans-serif" font-size="14" lengthAdjust="spacing" textLength="77" x="271.5" y="528.292">model.html</text></g><!--entity frame_html--><g id="elem_frame_html"><path d="M133.5,507.7969 L133.5,539.0938 A2.5,2.5 0 0 0 136,541.5938 L224,541.5938 A2.5,2.5 0 0 0 226.5,539.0938 L226.5,515.2969 L216.5,505.2969 L136,505.2969 A2.5,2.5 0 0 0 133.5,507.7969 " fill="#FAFAFA" style="stroke:#181818;stroke-width:0.5;"/><path d="M216.5,505.2969 L216.5,512.7969 A2.5,2.5 0 0 0 219,515.2969 L226.5,515.2969 " fill="#FAFAFA" style="stroke:#181818;stroke-width:0.5;"/><text fill="#000000" font-family="sans-serif" font-size="14" lengthAdjust="spacing" textLength="73" x="143.5" y="528.292">frame.html</text></g><!--entity auth_wasm--><g id="elem_auth_wasm"><path d="M414.5,813.7969 L414.5,845.0938 A2.5,2.5 0 0 0 417,847.5938 L507,847.5938 A2.5,2.5 0 0 0 509.5,845.0938 L509.5,821.2969 L499.5,811.2969 L417,811.2969 A2.5,2.5 0 0 0 414.5,813.7969 " fill="#FAFAFA" style="stroke:#181818;stroke-width:0.5;"/><path d="M499.5,811.2969 L499.5,818.7969 A2.5,2.5 0 0 0 502,821.2969 L509.5,821.2969 " fill="#FAFAFA" style="stroke:#181818;stroke-width:0.5;"/><text fill="#000000" font-family="sans-serif" font-size="14" lengthAdjust="spacing" textLength="75" x="424.5" y="834.292">auth.wasm</text></g><!--entity patch_wasm--><g id="elem_patch_wasm"><path d="M544.5,813.7969 L544.5,845.0938 A2.5,2.5 0 0 0 547,847.5938 L645,847.5938 A2.5,2.5 0 0 0 647.5,845.0938 L647.5,821.2969 L637.5,811.2969 L547,811.2969 A2.5,2.5 0 0 0 544.5,813.7969 " fill="#FAFAFA" style="stroke:#181818;stroke-width:0.5;"/><path d="M637.5,811.2969 L637.5,818.7969 A2.5,2.5 0 0 0 640,821.2969 L647.5,821.2969 " fill="#FAFAFA" style="stroke:#181818;stroke-width:0.5;"/><text fill="#000000" font-family="sans-serif" font-size="14" lengthAdjust="spacing" textLength="83" x="554.5" y="834.292">patch.wasm</text></g><!--entity cache_wasm--><g id="elem_cache_wasm"><path d="M414,927.7969 L414,959.0938 A2.5,2.5 0 0 0 416.5,961.5938 L517.5,961.5938 A2.5,2.5 0 0 0 520,959.0938 L520,935.2969 L510,925.2969 L416.5,925.2969 A2.5,2.5 0 0 0 414,927.7969 " fill="#FAFAFA" style="stroke:#181818;stroke-width:0.5;"/><path d="M510,925.2969 L510,932.7969 A2.5,2.5 0 0 0 512.5,935.2969 L520,935.2969 " fill="#FAFAFA" style="stroke:#181818;stroke-width:0.5;"/><text fill="#000000" font-family="sans-serif" font-size="14" lengthAdjust="spacing" textLength="86" x="424" y="948.292">cache.wasm</text></g><!--entity model_doc--><g id="elem_model_doc"><path d="M265.5,813.7969 L265.5,845.0938 A2.5,2.5 0 0 0 268,847.5938 L356,847.5938 A2.5,2.5 0 0 0 358.5,845.0938 L358.5,821.2969 L348.5,811.2969 L268,811.2969 A2.5,2.5 0 0 0 265.5,813.7969 " fill="#FAFAFA" style="stroke:#181818;stroke-width:0.5;"/><path d="M348.5,811.2969 L348.5,818.7969 A2.5,2.5 0 0 0 351,821.2969 L358.5,821.2969 " fill="#FAFAFA" style="stroke:#181818;stroke-width:0.5;"/><text fill="#000000" font-family="sans-serif" font-size="14" lengthAdjust="spacing" textLength="73" x="275.5" y="834.292">model.doc</text></g><!--entity frame_doc--><g id="elem_frame_doc"><path d="M141.5,813.7969 L141.5,845.0938 A2.5,2.5 0 0 0 144,847.5938 L228,847.5938 A2.5,2.5 0 0 0 230.5,845.0938 L230.5,821.2969 L220.5,811.2969 L144,811.2969 A2.5,2.5 0 0 0 141.5,813.7969 " fill="#FAFAFA" style="stroke:#181818;stroke-width:0.5;"/><path d="M220.5,811.2969 L220.5,818.7969 A2.5,2.5 0 0 0 223,821.2969 L230.5,821.2969 " fill="#FAFAFA" style="stroke:#181818;stroke-width:0.5;"/><text fill="#000000" font-family="sans-serif" font-size="14" lengthAdjust="spacing" textLength="69" x="151.5" y="834.292">frame.doc</text></g><!--link sys_keys to sys_logs--><!--link sys_logs to sys_data--><!--link usr_data to usr_lib--><!--link usr_lib to usr_bin--><!--SRC=[ZPHHZfim48RVESLeyvoqVMYhNg2NgAh8mMRnnk08crrLLUxU6Hi6XnXJMO8PzFtMUFun05vxe-2dneVxuxpggWgWiKQg0Lu-jR9nBo0SK027RrzemLzY5WfrWS4t7Bv_fOK8GCfSrGATAO733qMBIMIf2DhjX40Am-4YQMN8stXX4kCLUQzMPHZxkfH1oMOPjz4uCPoG2NnCIR9HZ1zqRnaFMO6kZQwlhHsTOidogQ0JUcYC_M1HaZyTFRwvtyTVhPPIzR-FHpxznAoQ98KNt2HASasQsDYNj4LHiAv-maDVaWuLuQKZwmOLPLDFqlxa16c3mYIi6qIQAfcYUV_HnVFYUtFSUz75eYaej8zRZPiz59cmF66g5xtdkn7kXVfCQmkTBqUu66NqLVk0udiFLVrxGAN53-zFDD-vvDRf2nyIu_mP9xQrzZhzSYYQjtzW-JQClZszHPhYynloZQ2LeM_2ruo7fCpNecxLp8Sapzzpfv2TcN-S61LFqLcfpAdrdGc2a9ufBTJM33XNYoQaMvfxzHpnkAL3FzdpxDz5z-mVnaN_FeJh0ap1ldkC1_-YPiT1baGFTpJHHTP47pSqEIUbhTqqxlN_-8XOOYDckoxEYcXYNh7b8TscjONeqCClZfvtW7y0]--></g></svg>