<?xml version="1.0" encoding="us-ascii" standalone="no"?><svg xmlns="http://www.w3.org/2000/svg" xmlns:xlink="http://www.w3.org/1999/xlink" contentStyleType="text/css" height="1096px" preserveAspectRatio="none" style="width:1213px;height:1096px;background:#FFFFFF;" version="1.1" viewBox="0 0 1213 1096" width="1213px" zoomAndPan="magnify"><defs/><g><text fill="#000000" font-family="sans-serif" font-size="14" font-weight="bold" lengthAdjust="spacing" textLength="89" x="555" y="22.9951">File system</text><!--cluster hdfs--><g id="cluster_hdfs"><path d="M8.5,43.2969 L49.5,43.2969 A3.75,3.75 0 0 1 52,45.7969 L59,65.5938 L1203.5,65.5938 A2.5,2.5 0 0 1 1206,68.0938 L1206,1086.7969 A2.5,2.5 0 0 1 1203.5,1089.2969 L8.5,1089.2969 A2.5,2.5 0 0 1 6,1086.7969 L6,45.7969 A2.5,2.5 0 0 1 8.5,43.2969 " fill="#616161" style="stroke:#000000;stroke-width:1.5;"/><line style="stroke:#000000;stroke-width:1.5;" x1="6" x2="59" y1="65.5938" y2="65.5938"/><text fill="#000000" font-family="sans-serif" font-size="14" font-weight="bold" lengthAdjust="spacing" textLength="40" x="10" y="58.292">/hdfs</text></g><!--cluster sys--><g id="cluster_sys"><path d="M821.5,129.2969 L849.5,129.2969 A3.75,3.75 0 0 1 852,131.7969 L859,151.5938 L1179.5,151.5938 A2.5,2.5 0 0 1 1182,154.0938 L1182,1023.7969 A2.5,2.5 0 0 1 1179.5,1026.2969 L821.5,1026.2969 A2.5,2.5 0 0 1 819,1023.7969 L819,131.7969 A2.5,2.5 0 0 1 821.5,129.2969 " fill="#757575" style="stroke:#000000;stroke-width:1.5;"/><line style="stroke:#000000;stroke-width:1.5;" x1="819" x2="859" y1="151.5938" y2="151.5938"/><text fill="#000000" font-family="sans-serif" font-size="14" font-weight="bold" lengthAdjust="spacing" textLength="27" x="823" y="144.292">sys</text></g><!--cluster sys_keys--><g id="cluster_sys_keys"><path d="M904.5,180.2969 L942.5,180.2969 A3.75,3.75 0 0 1 945,182.7969 L952,202.5938 L1147.5,202.5938 A2.5,2.5 0 0 1 1150,205.0938 L1150,280.7969 A2.5,2.5 0 0 1 1147.5,283.2969 L904.5,283.2969 A2.5,2.5 0 0 1 902,280.7969 L902,182.7969 A2.5,2.5 0 0 1 904.5,180.2969 " fill="#9E9E9E" style="stroke:#000000;stroke-width:1.5;"/><line style="stroke:#000000;stroke-width:1.5;" x1="902" x2="952" y1="202.5938" y2="202.5938"/><text fill="#000000" font-family="sans-serif" font-size="14" font-weight="bold" lengthAdjust="spacing" textLength="37" x="906" y="195.292">keys</text></g><!--cluster sys_logs--><g id="cluster_sys_logs"><path d="M853.5,462.2969 L887.5,462.2969 A3.75,3.75 0 0 1 890,464.7969 L897,484.5938 L1147.5,484.5938 A2.5,2.5 0 0 1 1150,487.0938 L1150,658.7969 A2.5,2.5 0 0 1 1147.5,661.2969 L853.5,661.2969 A2.5,2.5 0 0 1 851,658.7969 L851,464.7969 A2.5,2.5 0 0 1 853.5,462.2969 " fill="#9E9E9E" style="stroke:#000000;stroke-width:1.5;"/><line style="stroke:#000000;stroke-width:1.5;" x1="851" x2="897" y1="484.5938" y2="484.5938"/><text fill="#000000" font-family="sans-serif" font-size="14" font-weight="bold" lengthAdjust="spacing" textLength="33" x="855" y="477.292">logs</text></g><!--cluster sys_data--><g id="cluster_sys_data"><path d="M883.5,759.2969 L918.5,759.2969 A3.75,3.75 0 0 1 921,761.7969 L928,781.5938 L1147.5,781.5938 A2.5,2.5 0 0 1 1150,784.0938 L1150,991.7969 A2.5,2.5 0 0 1 1147.5,994.2969 L883.5,994.2969 A2.5,2.5 0 0 1 881,991.7969 L881,761.7969 A2.5,2.5 0 0 1 883.5,759.2969 " fill="#9E9E9E" style="stroke:#000000;stroke-width:1.5;"/><line style="stroke:#000000;stroke-width:1.5;" x1="881" x2="928" y1="781.5938" y2="781.5938"/><text fill="#000000" font-family="sans-serif" font-size="14" font-weight="bold" lengthAdjust="spacing" textLength="34" x="885" y="774.292">data</text></g><!--cluster usr--><g id="cluster_usr"><path d="M32.5,86.2969 L59.5,86.2969 A3.75,3.75 0 0 1 62,88.7969 L69,108.5938 L792.5,108.5938 A2.5,2.5 0 0 1 795,111.0938 L795,1062.7969 A2.5,2.5 0 0 1 792.5,1065.2969 L32.5,1065.2969 A2.5,2.5 0 0 1 30,1062.7969 L30,88.7969 A2.5,2.5 0 0 1 32.5,86.2969 " fill="#757575" style="stroke:#000000;stroke-width:1.5;"/><line style="stroke:#000000;stroke-width:1.5;" x1="30" x2="69" y1="108.5938" y2="108.5938"/><text fill="#000000" font-family="sans-serif" font-size="14" font-weight="bold" lengthAdjust="spacing" textLength="26" x="34" y="101.292">usr</text></g><!--cluster name--><g id="cluster_name"><path d="M56.5,129.2969 L114.5,129.2969 A3.75,3.75 0 0 1 117,131.7969 L124,151.5938 L768.5,151.5938 A2.5,2.5 0 0 1 771,154.0938 L771,1038.7969 A2.5,2.5 0 0 1 768.5,1041.2969 L56.5,1041.2969 A2.5,2.5 0 0 1 54,1038.7969 L54,131.7969 A2.5,2.5 0 0 1 56.5,129.2969 " fill="#9E9E9E" style="stroke:#000000;stroke-width:1.5;"/><line style="stroke:#000000;stroke-width:1.5;" x1="54" x2="124" y1="151.5938" y2="151.5938"/><text fill="#000000" font-family="sans-serif" font-size="14" font-weight="bold" lengthAdjust="spacing" textLength="57" x="58" y="144.292">:tenant</text></g><!--cluster usr_data--><g id="cluster_usr_data"><path d="M356.5,180.2969 L391.5,180.2969 A3.75,3.75 0 0 1 394,182.7969 L401,202.5938 L642.5,202.5938 A2.5,2.5 0 0 1 645,205.0938 L645,376.7969 A2.5,2.5 0 0 1 642.5,379.2969 L356.5,379.2969 A2.5,2.5 0 0 1 354,376.7969 L354,182.7969 A2.5,2.5 0 0 1 356.5,180.2969 " fill="#BDBDBD" style="stroke:#000000;stroke-width:1.5;"/><line style="stroke:#000000;stroke-width:1.5;" x1="354" x2="401" y1="202.5938" y2="202.5938"/><text fill="#000000" font-family="sans-serif" font-size="14" font-weight="bold" lengthAdjust="spacing" textLength="34" x="358" y="195.292">data</text></g><!--cluster usr_lib--><g id="cluster_usr_lib"><path d="M88.5,419.2969 L107.5,419.2969 A3.75,3.75 0 0 1 110,421.7969 L117,441.5938 L642.5,441.5938 A2.5,2.5 0 0 1 645,444.0938 L645,682.7969 A2.5,2.5 0 0 1 642.5,685.2969 L88.5,685.2969 A2.5,2.5 0 0 1 86,682.7969 L86,421.7969 A2.5,2.5 0 0 1 88.5,419.2969 " fill="#BDBDBD" style="stroke:#000000;stroke-width:1.5;"/><line style="stroke:#000000;stroke-width:1.5;" x1="86" x2="117" y1="441.5938" y2="441.5938"/><text fill="#000000" font-family="sans-serif" font-size="14" font-weight="bold" lengthAdjust="spacing" textLength="18" x="90" y="434.292">lib</text></g><!--cluster hooks--><g id="cluster_hooks"><path d="M400.5,470.2969 L449.5,470.2969 A3.75,3.75 0 0 1 452,472.7969 L459,492.5938 L602.5,492.5938 A2.5,2.5 0 0 1 605,495.0938 L605,650.7969 A2.5,2.5 0 0 1 602.5,653.2969 L400.5,653.2969 A2.5,2.5 0 0 1 398,650.7969 L398,472.7969 A2.5,2.5 0 0 1 400.5,470.2969 " fill="#E0E0E0" style="stroke:#000000;stroke-width:1.5;"/><line style="stroke:#000000;stroke-width:1.5;" x1="398" x2="459" y1="492.5938" y2="492.5938"/><text fill="#000000" font-family="sans-serif" font-size="14" font-weight="bold" lengthAdjust="spacing" textLength="48" x="402" y="485.292">hooks</text></g><!--cluster hdmls--><g id="cluster_hdmls"><path d="M120.5,470.2969 L168.5,470.2969 A3.75,3.75 0 0 1 171,472.7969 L178,492.5938 L371.5,492.5938 A2.5,2.5 0 0 1 374,495.0938 L374,554.7969 A2.5,2.5 0 0 1 371.5,557.2969 L120.5,557.2969 A2.5,2.5 0 0 1 118,554.7969 L118,472.7969 A2.5,2.5 0 0 1 120.5,470.2969 " fill="#E0E0E0" style="stroke:#000000;stroke-width:1.5;"/><line style="stroke:#000000;stroke-width:1.5;" x1="118" x2="178" y1="492.5938" y2="492.5938"/><text fill="#000000" font-family="sans-serif" font-size="14" font-weight="bold" lengthAdjust="spacing" textLength="47" x="122" y="485.292">hdmls</text></g><!--cluster usr_bin--><g id="cluster_usr_bin"><path d="M88.5,725.2969 L113.5,725.2969 A3.75,3.75 0 0 1 116,727.7969 L123,747.5938 L736.5,747.5938 A2.5,2.5 0 0 1 739,750.0938 L739,1006.7969 A2.5,2.5 0 0 1 736.5,1009.2969 L88.5,1009.2969 A2.5,2.5 0 0 1 86,1006.7969 L86,727.7969 A2.5,2.5 0 0 1 88.5,725.2969 " fill="#BDBDBD" style="stroke:#000000;stroke-width:1.5;"/><line style="stroke:#000000;stroke-width:1.5;" x1="86" x2="123" y1="747.5938" y2="747.5938"/><text fill="#000000" font-family="sans-serif" font-size="14" font-weight="bold" lengthAdjust="spacing" textLength="24" x="90" y="740.292">bin</text></g><!--cluster wasm--><g id="cluster_wasm"><path d="M443.5,776.2969 L490.5,776.2969 A3.75,3.75 0 0 1 493,778.7969 L500,798.5938 L704.5,798.5938 A2.5,2.5 0 0 1 707,801.0938 L707,974.7969 A2.5,2.5 0 0 1 704.5,977.2969 L443.5,977.2969 A2.5,2.5 0 0 1 441,974.7969 L441,778.7969 A2.5,2.5 0 0 1 443.5,776.2969 " fill="#E0E0E0" style="stroke:#000000;stroke-width:1.5;"/><line style="stroke:#000000;stroke-width:1.5;" x1="441" x2="500" y1="798.5938" y2="798.5938"/><text fill="#000000" font-family="sans-serif" font-size="14" font-weight="bold" lengthAdjust="spacing" textLength="46" x="445" y="791.292">wasm</text></g><!--cluster docs--><g id="cluster_docs"><path d="M128.5,776.2969 L167.5,776.2969 A3.75,3.75 0 0 1 170,778.7969 L177,798.5938 L414.5,798.5938 A2.5,2.5 0 0 1 417,801.0938 L417,860.7969 A2.5,2.5 0 0 1 414.5,863.2969 L128.5,863.2969 A2.5,2.5 0 0 1 126,860.7969 L126,778.7969 A2.5,2.5 0 0 1 128.5,776.2969 " fill="#E0E0E0" style="stroke:#000000;stroke-width:1.5;"/><line style="stroke:#000000;stroke-width:1.5;" x1="126" x2="177" y1="798.5938" y2="798.5938"/><text fill="#000000" font-family="sans-serif" font-size="14" font-weight="bold" lengthAdjust="spacing" textLength="38" x="130" y="791.292">docs</text></g><!--entity sys_key--><g id="elem_sys_key"><path d="M1054.5,225.7969 L1054.5,257.0938 A2.5,2.5 0 0 0 1057,259.5938 L1123,259.5938 A2.5,2.5 0 0 0 1125.5,257.0938 L1125.5,233.2969 L1115.5,223.2969 L1057,223.2969 A2.5,2.5 0 0 0 1054.5,225.7969 " fill="#BDBDBD" style="stroke:#181818;stroke-width:0.5;"/><path d="M1115.5,223.2969 L1115.5,230.7969 A2.5,2.5 0 0 0 1118,233.2969 L1125.5,233.2969 " fill="#BDBDBD" style="stroke:#181818;stroke-width:0.5;"/><text fill="#000000" font-family="sans-serif" font-size="14" lengthAdjust="spacing" textLength="51" x="1064.5" y="246.292">sys.key</text></g><!--entity sys_pub--><g id="elem_sys_pub"><path d="M945,225.7969 L945,257.0938 A2.5,2.5 0 0 0 947.5,259.5938 L1016.5,259.5938 A2.5,2.5 0 0 0 1019,257.0938 L1019,233.2969 L1009,223.2969 L947.5,223.2969 A2.5,2.5 0 0 0 945,225.7969 " fill="#BDBDBD" style="stroke:#181818;stroke-width:0.5;"/><path d="M1009,223.2969 L1009,230.7969 A2.5,2.5 0 0 0 1011.5,233.2969 L1019,233.2969 " fill="#BDBDBD" style="stroke:#181818;stroke-width:0.5;"/><text fill="#000000" font-family="sans-serif" font-size="14" lengthAdjust="spacing" textLength="54" x="955" y="246.292">sys.pub</text></g><!--entity pulsar_log--><g id="elem_pulsar_log"><path d="M891.5,507.7969 L891.5,539.0938 A2.5,2.5 0 0 0 894,541.5938 L976,541.5938 A2.5,2.5 0 0 0 978.5,539.0938 L978.5,515.2969 L968.5,505.2969 L894,505.2969 A2.5,2.5 0 0 0 891.5,507.7969 " fill="#BDBDBD" style="stroke:#181818;stroke-width:0.5;"/><path d="M968.5,505.2969 L968.5,512.7969 A2.5,2.5 0 0 0 971,515.2969 L978.5,515.2969 " fill="#BDBDBD" style="stroke:#181818;stroke-width:0.5;"/><text fill="#000000" font-family="sans-serif" font-size="14" lengthAdjust="spacing" textLength="67" x="901.5" y="528.292">pulsar.log</text></g><!--entity trino_log--><g id="elem_trino_log"><path d="M1014,507.7969 L1014,539.0938 A2.5,2.5 0 0 0 1016.5,541.5938 L1087.5,541.5938 A2.5,2.5 0 0 0 1090,539.0938 L1090,515.2969 L1080,505.2969 L1016.5,505.2969 A2.5,2.5 0 0 0 1014,507.7969 " fill="#BDBDBD" style="stroke:#181818;stroke-width:0.5;"/><path d="M1080,505.2969 L1080,512.7969 A2.5,2.5 0 0 0 1082.5,515.2969 L1090,515.2969 " fill="#BDBDBD" style="stroke:#181818;stroke-width:0.5;"/><text fill="#000000" font-family="sans-serif" font-size="14" lengthAdjust="spacing" textLength="56" x="1024" y="528.292">trino.log</text></g><!--entity clickhouse_log--><g id="elem_clickhouse_log"><path d="M875.5,603.7969 L875.5,635.0938 A2.5,2.5 0 0 0 878,637.5938 L992,637.5938 A2.5,2.5 0 0 0 994.5,635.0938 L994.5,611.2969 L984.5,601.2969 L878,601.2969 A2.5,2.5 0 0 0 875.5,603.7969 " fill="#BDBDBD" style="stroke:#181818;stroke-width:0.5;"/><path d="M984.5,601.2969 L984.5,608.7969 A2.5,2.5 0 0 0 987,611.2969 L994.5,611.2969 " fill="#BDBDBD" style="stroke:#181818;stroke-width:0.5;"/><text fill="#000000" font-family="sans-serif" font-size="14" lengthAdjust="spacing" textLength="99" x="885.5" y="624.292">clickhouse.log</text></g><!--entity airflow.log--><g id="elem_airflow.log"><path d="M1030,603.7969 L1030,635.0938 A2.5,2.5 0 0 0 1032.5,637.5938 L1115.5,637.5938 A2.5,2.5 0 0 0 1118,635.0938 L1118,611.2969 L1108,601.2969 L1032.5,601.2969 A2.5,2.5 0 0 0 1030,603.7969 " fill="#BDBDBD" style="stroke:#181818;stroke-width:0.5;"/><path d="M1108,601.2969 L1108,608.7969 A2.5,2.5 0 0 0 1110.5,611.2969 L1118,611.2969 " fill="#BDBDBD" style="stroke:#181818;stroke-width:0.5;"/><text fill="#000000" font-family="sans-serif" font-size="14" lengthAdjust="spacing" textLength="68" x="1040" y="624.292">airflow.log</text></g><!--entity pulsar_data--><g id="elem_pulsar_data"><path d="M931.5,802.2969 L972.5,802.2969 A3.75,3.75 0 0 1 975,804.7969 L982,823.2969 L998.5,823.2969 A2.5,2.5 0 0 1 1001,825.7969 L1001,854.0938 A2.5,2.5 0 0 1 998.5,856.5938 L931.5,856.5938 A2.5,2.5 0 0 1 929,854.0938 L929,804.7969 A2.5,2.5 0 0 1 931.5,802.2969 " fill="#BDBDBD" style="stroke:#181818;stroke-width:0.5;"/><line style="stroke:#181818;stroke-width:0.5;" x1="929" x2="982" y1="823.2969" y2="823.2969"/><text fill="#000000" font-family="sans-serif" font-size="14" lengthAdjust="spacing" textLength="42" x="939" y="843.292">pulsar</text></g><!--entity trino_data--><g id="elem_trino_data"><path d="M1038.5,802.2969 L1079.5,802.2969 A3.75,3.75 0 0 1 1082,804.7969 L1089,823.2969 L1103.5,823.2969 A2.5,2.5 0 0 1 1106,825.7969 L1106,854.0938 A2.5,2.5 0 0 1 1103.5,856.5938 L1038.5,856.5938 A2.5,2.5 0 0 1 1036,854.0938 L1036,804.7969 A2.5,2.5 0 0 1 1038.5,802.2969 " fill="#BDBDBD" style="stroke:#181818;stroke-width:0.5;"/><line style="stroke:#181818;stroke-width:0.5;" x1="1036" x2="1089" y1="823.2969" y2="823.2969"/><text fill="#000000" font-family="sans-serif" font-size="14" lengthAdjust="spacing" textLength="31" x="1046" y="843.292">trino</text></g><!--entity clickhouse_data--><g id="elem_clickhouse_data"><path d="M915.5,916.2969 L956.5,916.2969 A3.75,3.75 0 0 1 959,918.7969 L966,937.2969 L1014.5,937.2969 A2.5,2.5 0 0 1 1017,939.7969 L1017,968.0938 A2.5,2.5 0 0 1 1014.5,970.5938 L915.5,970.5938 A2.5,2.5 0 0 1 913,968.0938 L913,918.7969 A2.5,2.5 0 0 1 915.5,916.2969 " fill="#BDBDBD" style="stroke:#181818;stroke-width:0.5;"/><line style="stroke:#181818;stroke-width:0.5;" x1="913" x2="966" y1="937.2969" y2="937.2969"/><text fill="#000000" font-family="sans-serif" font-size="14" lengthAdjust="spacing" textLength="74" x="923" y="957.292">clickhouse</text></g><!--entity airflow_data--><g id="elem_airflow_data"><path d="M1055,916.2969 L1096,916.2969 A3.75,3.75 0 0 1 1098.5,918.7969 L1105.5,937.2969 L1123,937.2969 A2.5,2.5 0 0 1 1125.5,939.7969 L1125.5,968.0938 A2.5,2.5 0 0 1 1123,970.5938 L1055,970.5938 A2.5,2.5 0 0 1 1052.5,968.0938 L1052.5,918.7969 A2.5,2.5 0 0 1 1055,916.2969 " fill="#BDBDBD" style="stroke:#181818;stroke-width:0.5;"/><line style="stroke:#181818;stroke-width:0.5;" x1="1052.5" x2="1105.5" y1="937.2969" y2="937.2969"/><text fill="#000000" font-family="sans-serif" font-size="14" lengthAdjust="spacing" textLength="43" x="1062.5" y="957.292">airflow</text></g><!--entity key--><g id="elem_key"><path d="M377.5,225.7969 L377.5,257.0938 A2.5,2.5 0 0 0 380,259.5938 L468,259.5938 A2.5,2.5 0 0 0 470.5,257.0938 L470.5,233.2969 L460.5,223.2969 L380,223.2969 A2.5,2.5 0 0 0 377.5,225.7969 " fill="#E0E0E0" style="stroke:#181818;stroke-width:0.5;"/><path d="M460.5,223.2969 L460.5,230.7969 A2.5,2.5 0 0 0 463,233.2969 L470.5,233.2969 " fill="#E0E0E0" style="stroke:#181818;stroke-width:0.5;"/><text fill="#000000" font-family="sans-serif" font-size="14" lengthAdjust="spacing" textLength="73" x="387.5" y="246.292">tenant.key</text></g><!--entity pub--><g id="elem_pub"><path d="M506,225.7969 L506,257.0938 A2.5,2.5 0 0 0 508.5,259.5938 L599.5,259.5938 A2.5,2.5 0 0 0 602,257.0938 L602,233.2969 L592,223.2969 L508.5,223.2969 A2.5,2.5 0 0 0 506,225.7969 " fill="#E0E0E0" style="stroke:#181818;stroke-width:0.5;"/><path d="M592,223.2969 L592,230.7969 A2.5,2.5 0 0 0 594.5,233.2969 L602,233.2969 " fill="#E0E0E0" style="stroke:#181818;stroke-width:0.5;"/><text fill="#000000" font-family="sans-serif" font-size="14" lengthAdjust="spacing" textLength="76" x="516" y="246.292">tenant.pub</text></g><!--entity git--><g id="elem_git"><path d="M381,321.7969 L381,353.0938 A2.5,2.5 0 0 0 383.5,355.5938 L464.5,355.5938 A2.5,2.5 0 0 0 467,353.0938 L467,329.2969 L457,319.2969 L383.5,319.2969 A2.5,2.5 0 0 0 381,321.7969 " fill="#E0E0E0" style="stroke:#181818;stroke-width:0.5;"/><path d="M457,319.2969 L457,326.7969 A2.5,2.5 0 0 0 459.5,329.2969 L467,329.2969 " fill="#E0E0E0" style="stroke:#181818;stroke-width:0.5;"/><text fill="#000000" font-family="sans-serif" font-size="14" lengthAdjust="spacing" textLength="66" x="391" y="342.292">tenant.git</text></g><!--entity dotenv--><g id="elem_dotenv"><path d="M502,321.7969 L502,353.0938 A2.5,2.5 0 0 0 504.5,355.5938 L593.5,355.5938 A2.5,2.5 0 0 0 596,353.0938 L596,329.2969 L586,319.2969 L504.5,319.2969 A2.5,2.5 0 0 0 502,321.7969 " fill="#E0E0E0" style="stroke:#181818;stroke-width:0.5;"/><path d="M586,319.2969 L586,326.7969 A2.5,2.5 0 0 0 588.5,329.2969 L596,329.2969 " fill="#E0E0E0" style="stroke:#181818;stroke-width:0.5;"/><text fill="#000000" font-family="sans-serif" font-size="14" lengthAdjust="spacing" textLength="74" x="512" y="342.292">tenant.env</text></g><!--entity auth_js--><g id="elem_auth_js"><path d="M414,507.7969 L414,539.0938 A2.5,2.5 0 0 0 416.5,541.5938 L477.5,541.5938 A2.5,2.5 0 0 0 480,539.0938 L480,515.2969 L470,505.2969 L416.5,505.2969 A2.5,2.5 0 0 0 414,507.7969 " fill="#FAFAFA" style="stroke:#181818;stroke-width:0.5;"/><path d="M470,505.2969 L470,512.7969 A2.5,2.5 0 0 0 472.5,515.2969 L480,515.2969 " fill="#FAFAFA" style="stroke:#181818;stroke-width:0.5;"/><text fill="#000000" font-family="sans-serif" font-size="14" lengthAdjust="spacing" textLength="46" x="424" y="528.292">auth.js</text></g><!--entity patch_js--><g id="elem_patch_js"><path d="M515,507.7969 L515,539.0938 A2.5,2.5 0 0 0 517.5,541.5938 L586.5,541.5938 A2.5,2.5 0 0 0 589,539.0938 L589,515.2969 L579,505.2969 L517.5,505.2969 A2.5,2.5 0 0 0 515,507.7969 " fill="#FAFAFA" style="stroke:#181818;stroke-width:0.5;"/><path d="M579,505.2969 L579,512.7969 A2.5,2.5 0 0 0 581.5,515.2969 L589,515.2969 " fill="#FAFAFA" style="stroke:#181818;stroke-width:0.5;"/><text fill="#000000" font-family="sans-serif" font-size="14" lengthAdjust="spacing" textLength="54" x="525" y="528.292">patch.js</text></g><!--entity cache_js--><g id="elem_cache_js"><path d="M414.5,603.7969 L414.5,635.0938 A2.5,2.5 0 0 0 417,637.5938 L489,637.5938 A2.5,2.5 0 0 0 491.5,635.0938 L491.5,611.2969 L481.5,601.2969 L417,601.2969 A2.5,2.5 0 0 0 414.5,603.7969 " fill="#FAFAFA" style="stroke:#181818;stroke-width:0.5;"/><path d="M481.5,601.2969 L481.5,608.7969 A2.5,2.5 0 0 0 484,611.2969 L491.5,611.2969 " fill="#FAFAFA" style="stroke:#181818;stroke-width:0.5;"/><text fill="#000000" font-family="sans-serif" font-size="14" lengthAdjust="spacing" textLength="57" x="424.5" y="624.292">cache.js</text></g><!--entity model_html--><g id="elem_model_html"><path d="M261.5,507.7969 L261.5,539.0938 A2.5,2.5 0 0 0 264,541.5938 L356,541.5938 A2.5,2.5 0 0 0 358.5,539.0938 L358.5,515.2969 L348.5,505.2969 L264,505.2969 A2.5,2.5 0 0 0 261.5,507.7969 " fill="#FAFAFA" style="stroke:#181818;stroke-width:0.5;"/><path d="M348.5,505.2969 L348.5,512.7969 A2.5,2.5 0 0 0 351,515.2969 L358.5,515.2969 " fill="#FAFAFA" style="stroke:#181818;stroke-width:0.5;"/><text fill="#000000" font-family="sans-serif" font-size="14" lengthAdjust="spacing" textLength="77" x="271.5" y="528.292">model.html</text></g><!--entity frame_html--><g id="elem_frame_html"><path d="M133.5,507.7969 L133.5,539.0938 A2.5,2.5 0 0 0 136,541.5938 L224,541.5938 A2.5,2.5 0 0 0 226.5,539.0938 L226.5,515.2969 L216.5,505.2969 L136,505.2969 A2.5,2.5 0 0 0 133.5,507.7969 " fill="#FAFAFA" style="stroke:#181818;stroke-width:0.5;"/><path d="M216.5,505.2969 L216.5,512.7969 A2.5,2.5 0 0 0 219,515.2969 L226.5,515.2969 " fill="#FAFAFA" style="stroke:#181818;stroke-width:0.5;"/><text fill="#000000" font-family="sans-serif" font-size="14" lengthAdjust="spacing" textLength="73" x="143.5" y="528.292">frame.html</text></g><!--entity auth_wasm--><g id="elem_auth_wasm"><path d="M457.5,813.7969 L457.5,845.0938 A2.5,2.5 0 0 0 460,847.5938 L550,847.5938 A2.5,2.5 0 0 0 552.5,845.0938 L552.5,821.2969 L542.5,811.2969 L460,811.2969 A2.5,2.5 0 0 0 457.5,813.7969 " fill="#FAFAFA" style="stroke:#181818;stroke-width:0.5;"/><path d="M542.5,811.2969 L542.5,818.7969 A2.5,2.5 0 0 0 545,821.2969 L552.5,821.2969 " fill="#FAFAFA" style="stroke:#181818;stroke-width:0.5;"/><text fill="#000000" font-family="sans-serif" font-size="14" lengthAdjust="spacing" textLength="75" x="467.5" y="834.292">auth.wasm</text></g><!--entity patch_wasm--><g id="elem_patch_wasm"><path d="M587.5,813.7969 L587.5,845.0938 A2.5,2.5 0 0 0 590,847.5938 L688,847.5938 A2.5,2.5 0 0 0 690.5,845.0938 L690.5,821.2969 L680.5,811.2969 L590,811.2969 A2.5,2.5 0 0 0 587.5,813.7969 " fill="#FAFAFA" style="stroke:#181818;stroke-width:0.5;"/><path d="M680.5,811.2969 L680.5,818.7969 A2.5,2.5 0 0 0 683,821.2969 L690.5,821.2969 " fill="#FAFAFA" style="stroke:#181818;stroke-width:0.5;"/><text fill="#000000" font-family="sans-serif" font-size="14" lengthAdjust="spacing" textLength="83" x="597.5" y="834.292">patch.wasm</text></g><!--entity cache_wasm--><g id="elem_cache_wasm"><path d="M457,927.7969 L457,959.0938 A2.5,2.5 0 0 0 459.5,961.5938 L560.5,961.5938 A2.5,2.5 0 0 0 563,959.0938 L563,935.2969 L553,925.2969 L459.5,925.2969 A2.5,2.5 0 0 0 457,927.7969 " fill="#FAFAFA" style="stroke:#181818;stroke-width:0.5;"/><path d="M553,925.2969 L553,932.7969 A2.5,2.5 0 0 0 555.5,935.2969 L563,935.2969 " fill="#FAFAFA" style="stroke:#181818;stroke-width:0.5;"/><text fill="#000000" font-family="sans-serif" font-size="14" lengthAdjust="spacing" textLength="86" x="467" y="948.292">cache.wasm</text></g><!--entity model_doc--><g id="elem_model_doc"><path d="M283,813.7969 L283,845.0938 A2.5,2.5 0 0 0 285.5,847.5938 L398.5,847.5938 A2.5,2.5 0 0 0 401,845.0938 L401,821.2969 L391,811.2969 L285.5,811.2969 A2.5,2.5 0 0 0 283,813.7969 " fill="#FAFAFA" style="stroke:#181818;stroke-width:0.5;"/><path d="M391,811.2969 L391,818.7969 A2.5,2.5 0 0 0 393.5,821.2969 L401,821.2969 " fill="#FAFAFA" style="stroke:#181818;stroke-width:0.5;"/><text fill="#000000" font-family="sans-serif" font-size="14" lengthAdjust="spacing" textLength="98" x="293" y="834.292">model.hash.m</text></g><!--entity frame_doc--><g id="elem_frame_doc"><path d="M142.5,813.7969 L142.5,845.0938 A2.5,2.5 0 0 0 145,847.5938 L245,847.5938 A2.5,2.5 0 0 0 247.5,845.0938 L247.5,821.2969 L237.5,811.2969 L145,811.2969 A2.5,2.5 0 0 0 142.5,813.7969 " fill="#FAFAFA" style="stroke:#181818;stroke-width:0.5;"/><path d="M237.5,811.2969 L237.5,818.7969 A2.5,2.5 0 0 0 240,821.2969 L247.5,821.2969 " fill="#FAFAFA" style="stroke:#181818;stroke-width:0.5;"/><text fill="#000000" font-family="sans-serif" font-size="14" lengthAdjust="spacing" textLength="85" x="152.5" y="834.292">frame.hash.f</text></g><!--link sys_keys to sys_logs--><!--link sys_logs to sys_data--><!--link usr_data to usr_lib--><!--link usr_lib to usr_bin--><!--SRC=[ZPHHRgCm48RVEONLF8VkFdHNsmFq4jKgSh09JWoEi6crgdBtdR5XS8WnbIMOGTzlZUSVmvXJJalsfk1X_radsw9Wh3PQo9uzFJUYja-CMuO1s_twYOjz8JDJeFCClDdkzmikG1YBcOkSeGCcRFT7uY8IM2m2Toi1Y66sEmfS2V8w78c4U47UYaKPsfpcCZ1PBUCwQClx4XZFXnGbAyMuNdM6S9zbw4ghwjAOmKgIp9yoEgxwMfjF4aNvmz73c_gzVs-K4BBxkz_JwKTcqIJ17QScOP9gqiY6liGj2e9bzIFk-n9rA0lF7LasA2iRUnBt9oM86-GdOTaWr1JH54tx3pQS5zwhu_xgPCSxvxcEjpBJGUesx7TNPyJIaFbTwNhugo5_u5f3f_lXxqOUFQbGBxotKDbzU5GO-F3nGDErYowUEj8X8KwVSMGROoxZNmUZQVixbYx4u9ho76YC3sVWQuuhGL-vgmZtIPwlUDN8YVT9ch-bJY5QFVqx8SgUeZL2wh9nhVO2dnumpTHMzp1NiyQdQvfRyHZHkCLpFzhpwDzHTUGVn5d_FhbjFOp1jdk4U_-2PiD1aWGFDpJ1HT847rSqAIU5gUmuxjMtVEIsATl8IT1j6ucYEh8oBLfp4k_KqaZmwUvVXyyRO_y1]--></g></svg>