<?xml version="1.0" encoding="us-ascii" standalone="no"?><svg xmlns="http://www.w3.org/2000/svg" xmlns:xlink="http://www.w3.org/1999/xlink" contentStyleType="text/css" height="513px" preserveAspectRatio="none" style="width:470px;height:513px;background:#FFFFFF;" version="1.1" viewBox="0 0 470 513" width="470px" zoomAndPan="magnify"><defs/><g><text fill="#000000" font-family="sans-serif" font-size="14" font-weight="bold" lengthAdjust="spacing" textLength="245" x="105.5" y="22.9951">HyperData Service Deployment</text><!--cluster Application_Server--><g id="cluster_Application_Server"><polygon fill="#616161" points="124.5,315.2969,134.5,305.2969,345.5,305.2969,345.5,397.2969,335.5,407.2969,124.5,407.2969,124.5,315.2969" style="stroke:#181818;stroke-width:1.0;"/><line style="stroke:#181818;stroke-width:1.0;" x1="335.5" x2="345.5" y1="315.2969" y2="305.2969"/><line style="stroke:#181818;stroke-width:1.0;" x1="124.5" x2="335.5" y1="315.2969" y2="315.2969"/><line style="stroke:#181818;stroke-width:1.0;" x1="335.5" x2="335.5" y1="315.2969" y2="407.2969"/><text fill="#000000" font-family="sans-serif" font-size="14" font-weight="bold" lengthAdjust="spacing" textLength="145" x="158.5" y="331.292">Application Server</text></g><!--entity HyperData_Service--><g id="elem_HyperData_Service"><polygon fill="#757575" points="151.5,355.2969,161.5,345.2969,317.5,345.2969,317.5,381.5938,307.5,391.5938,151.5,391.5938,151.5,355.2969" style="stroke:#181818;stroke-width:0.5;"/><line style="stroke:#181818;stroke-width:0.5;" x1="307.5" x2="317.5" y1="355.2969" y2="345.2969"/><line style="stroke:#181818;stroke-width:0.5;" x1="151.5" x2="307.5" y1="355.2969" y2="355.2969"/><line style="stroke:#181818;stroke-width:0.5;" x1="307.5" x2="307.5" y1="355.2969" y2="391.5938"/><text fill="#000000" font-family="sans-serif" font-size="14" lengthAdjust="spacing" textLength="126" x="166.5" y="378.292">HyperData Service</text></g><g id="elem_API"><path d="M6,43.2969 L6,167.2266 A0,0 0 0 0 6,167.2266 L230.5,167.2266 L234.5,246.8569 L238.5,167.2266 L463,167.2266 A0,0 0 0 0 463,167.2266 L463,53.2969 L453,43.2969 L6,43.2969 A0,0 0 0 0 6,43.2969 " fill="#FEFFDD" style="stroke:#181818;stroke-width:0.5;"/><path d="M453,43.2969 L453,53.2969 L463,53.2969 L453,43.2969 " fill="#FEFFDD" style="stroke:#181818;stroke-width:0.5;"/><text fill="#000000" font-family="sans-serif" font-size="13" font-weight="bold" lengthAdjust="spacing" textLength="79" x="12" y="60.3638">Endpoints:</text><line style="stroke:#181818;stroke-width:1.0;" x1="7" x2="462" y1="63.4297" y2="63.4297"/><ellipse cx="17.5" cy="75.0625" fill="#000000" rx="2.5" ry="2.5" style="stroke:#000000;stroke-width:0.0;"/><a href="../hyperdata/post_docs.svg" target="_top" title="../hyperdata/post_docs.svg" xlink:actuate="onRequest" xlink:href="../hyperdata/post_docs.svg" xlink:show="new" xlink:title="../hyperdata/post_docs.svg" xlink:type="simple"><text fill="#0000FF" font-family="sans-serif" font-size="13" lengthAdjust="spacing" text-decoration="underline" textLength="195" x="24" y="79.4966">POST /api/v1/hdio/:tenant/docs</text></a><ellipse cx="17.5" cy="90.1953" fill="#000000" rx="2.5" ry="2.5" style="stroke:#000000;stroke-width:0.0;"/><a href="./" target="_top" title="./" xlink:actuate="onRequest" xlink:href="./" xlink:show="new" xlink:title="./" xlink:type="simple"><text fill="#0000FF" font-family="sans-serif" font-size="13" lengthAdjust="spacing" text-decoration="underline" textLength="217" x="24" y="94.6294">GET /api/v1/hdio/:tenant/docs/:doc</text></a><ellipse cx="17.5" cy="105.3281" fill="#000000" rx="2.5" ry="2.5" style="stroke:#000000;stroke-width:0.0;"/><a href="./" target="_top" title="./" xlink:actuate="onRequest" xlink:href="./" xlink:show="new" xlink:title="./" xlink:type="simple"><text fill="#0000FF" font-family="sans-serif" font-size="13" lengthAdjust="spacing" text-decoration="underline" textLength="240" x="24" y="109.7622">GET /api/v1/hdio/:tenant/docs/:doc/bin</text></a><ellipse cx="17.5" cy="120.4609" fill="#000000" rx="2.5" ry="2.5" style="stroke:#000000;stroke-width:0.0;"/><a href="./" target="_top" title="./" xlink:actuate="onRequest" xlink:href="./" xlink:show="new" xlink:title="./" xlink:type="simple"><text fill="#0000FF" font-family="sans-serif" font-size="13" lengthAdjust="spacing" text-decoration="underline" textLength="240" x="24" y="124.895">GET /api/v1/hdio/:tenant/docs/:doc/obj</text></a><ellipse cx="17.5" cy="135.5938" fill="#000000" rx="2.5" ry="2.5" style="stroke:#000000;stroke-width:0.0;"/><a href="./" target="_top" title="./" xlink:actuate="onRequest" xlink:href="./" xlink:show="new" xlink:title="./" xlink:type="simple"><text fill="#0000FF" font-family="sans-serif" font-size="13" lengthAdjust="spacing" text-decoration="underline" textLength="413" x="24" y="140.0278">GET /api/v1/hdio/:tenant/docs/:doc/sql?field=:name&amp;field=:name</text></a><ellipse cx="17.5" cy="150.7266" fill="#000000" rx="2.5" ry="2.5" style="stroke:#000000;stroke-width:0.0;"/><a href="./" target="_top" title="./" xlink:actuate="onRequest" xlink:href="./" xlink:show="new" xlink:title="./" xlink:type="simple"><text fill="#0000FF" font-family="sans-serif" font-size="13" lengthAdjust="spacing" text-decoration="underline" textLength="424" x="24" y="155.1606">GET /api/v1/hdio/:tenant/docs/:doc/data?field=:name&amp;field=:name</text></a></g><!--entity HDIO_REST_API--><g id="elem_HDIO_REST_API"><ellipse cx="234.5" cy="256.2969" fill="#F1F1F1" rx="8" ry="8" style="stroke:#181818;stroke-width:0.5;"/><text fill="#000000" font-family="sans-serif" font-size="14" lengthAdjust="spacing" textLength="81" x="194" y="286.292">/api/v1/hdio</text></g><!--entity File_System--><g id="elem_File_System"><a href="./fs.svg" target="_top" title="./fs.svg" xlink:actuate="onRequest" xlink:href="./fs.svg" xlink:show="new" xlink:title="./fs.svg" xlink:type="simple"><path d="M185.5,461.2969 C185.5,451.2969 234.5,451.2969 234.5,451.2969 C234.5,451.2969 283.5,451.2969 283.5,461.2969 L283.5,486.5938 C283.5,496.5938 234.5,496.5938 234.5,496.5938 C234.5,496.5938 185.5,496.5938 185.5,486.5938 L185.5,461.2969 " fill="#757575" style="stroke:#181818;stroke-width:0.5;"/><path d="M185.5,461.2969 C185.5,471.2969 234.5,471.2969 234.5,471.2969 C234.5,471.2969 283.5,471.2969 283.5,461.2969 " fill="none" style="stroke:#181818;stroke-width:0.5;"/><text fill="#000000" font-family="sans-serif" font-size="14" lengthAdjust="spacing" textLength="78" x="195.5" y="488.292">File System</text></a></g><!--link HDIO_REST_API to HyperData_Service--><g id="link_HDIO_REST_API_HyperData_Service"><path d="M234.5,265.5669 C234.5,282.2569 234.5,320.4569 234.5,345.0069 " fill="none" id="HDIO_REST_API-HyperData_Service" style="stroke:#181818;stroke-width:1.0;"/></g><!--link HyperData_Service to File_System--><g id="link_HyperData_Service_File_System"><path d="M234.5,391.4969 C234.5,409.0869 234.5,433.5069 234.5,450.9869 " fill="none" id="HyperData_Service-File_System" style="stroke:#181818;stroke-width:1.0;"/><path d="M241.5711,414.2121 A10,10 0 0 0 227.4289 414.2121" fill="none" style="stroke:#181818;stroke-width:1.5;"/><ellipse cx="234.5" cy="421.2831" fill="#FFFFFF" rx="6" ry="6" style="stroke:#181818;stroke-width:1.5;"/></g><!--SRC=[bL9HQy8m47xtLnmAOnHgviCsA8mXwAPFokgRb9AQSsRK96k286F_VPS4MLKGshGXTxtlkyjz1-2agn5cHuFDX3iEEJO7kK6OeAdrSO_AzNe0IZi4Rc6yd9C5a2HJ9OoMojaiIO8hfIV-W_LwE6GxJoc8aXbjNIdqnWxjuHEMYtm5Z1l93YEs4rAppA7YoZ4VKXJ_70pUfpT2MKPxrtXMITKPewklpXZxNRzk9TRY9LDyZtUjSsSktyMRPAX4aCXBHPfWi-KaORzDs_VopIRpHVanpLTb599sqkt27UGM11yRKyiDTrAhC1RO19AMkunk63oD_8AVSB68lXgfMC79Mvu6RV3yw5T0dXKIAhiCfx1V-kZrJQcufKnlaYOuFrg7-v33ssMqGuktOV2AefNgkepq_Y5j8_y0]--></g></svg>