<?xml version="1.0" encoding="us-ascii" standalone="no"?><svg xmlns="http://www.w3.org/2000/svg" xmlns:xlink="http://www.w3.org/1999/xlink" contentStyleType="text/css" height="596px" preserveAspectRatio="none" style="width:891px;height:596px;background:#FFFFFF;" version="1.1" viewBox="0 0 891 596" width="891px" zoomAndPan="magnify"><defs/><g><text fill="#000000" font-family="sans-serif" font-size="14" font-weight="bold" lengthAdjust="spacing" textLength="227" x="325" y="22.9951">Tenants Service Deployment</text><!--cluster Application_Server--><g id="cluster_Application_Server"><polygon fill="#616161" points="16,292.2969,26,282.2969,504,282.2969,504,480.2969,494,490.2969,16,490.2969,16,292.2969" style="stroke:#181818;stroke-width:1.0;"/><line style="stroke:#181818;stroke-width:1.0;" x1="494" x2="504" y1="292.2969" y2="282.2969"/><line style="stroke:#181818;stroke-width:1.0;" x1="16" x2="494" y1="292.2969" y2="292.2969"/><line style="stroke:#181818;stroke-width:1.0;" x1="494" x2="494" y1="292.2969" y2="490.2969"/><text fill="#000000" font-family="sans-serif" font-size="14" font-weight="bold" lengthAdjust="spacing" textLength="145" x="183.5" y="308.292">Application Server</text></g><!--cluster Apache_Pulsar--><g id="cluster_Apache_Pulsar"><path d="M541,279.2969 L879,279.2969 C884,279.2969 884,335.7969 884,335.7969 C884,335.7969 884,392.2969 879,392.2969 L541,392.2969 C536,392.2969 536,335.7969 536,335.7969 C536,335.7969 536,279.2969 541,279.2969 " fill="#616161" style="stroke:#181818;stroke-width:1.0;"/><path d="M879,279.2969 C874,279.2969 874,335.7969 874,335.7969 C874,392.2969 879,392.2969 879,392.2969 " fill="none" style="stroke:#181818;stroke-width:1.0;"/><text fill="#000000" font-family="sans-serif" font-size="14" font-weight="bold" lengthAdjust="spacing" textLength="113" x="653.5" y="294.292">Apache Pulsar</text></g><!--entity Tenants_Service--><g id="elem_Tenants_Service"><polygon fill="#757575" points="311.5,332.2969,321.5,322.2969,462.5,322.2969,462.5,358.5938,452.5,368.5938,311.5,368.5938,311.5,332.2969" style="stroke:#181818;stroke-width:0.5;"/><line style="stroke:#181818;stroke-width:0.5;" x1="452.5" x2="462.5" y1="332.2969" y2="322.2969"/><line style="stroke:#181818;stroke-width:0.5;" x1="311.5" x2="452.5" y1="332.2969" y2="332.2969"/><line style="stroke:#181818;stroke-width:0.5;" x1="452.5" x2="452.5" y1="332.2969" y2="368.5938"/><text fill="#000000" font-family="sans-serif" font-size="14" lengthAdjust="spacing" textLength="111" x="326.5" y="355.292">Tenants Service</text></g><!--entity ssh_keygen--><g id="elem_ssh_keygen"><polygon fill="#9E9E9E" points="32.5,438.2969,42.5,428.2969,153.5,428.2969,153.5,464.5938,143.5,474.5938,32.5,474.5938,32.5,438.2969" style="stroke:#181818;stroke-width:0.5;"/><line style="stroke:#181818;stroke-width:0.5;" x1="143.5" x2="153.5" y1="438.2969" y2="428.2969"/><line style="stroke:#181818;stroke-width:0.5;" x1="32.5" x2="143.5" y1="438.2969" y2="438.2969"/><line style="stroke:#181818;stroke-width:0.5;" x1="143.5" x2="143.5" y1="438.2969" y2="474.5938"/><text fill="#000000" font-family="sans-serif" font-size="14" lengthAdjust="spacing" textLength="81" x="47.5" y="461.292">ssh-keygen</text></g><!--entity ssh_agent--><g id="elem_ssh_agent"><polygon fill="#9E9E9E" points="189,438.2969,199,428.2969,299,428.2969,299,464.5938,289,474.5938,189,474.5938,189,438.2969" style="stroke:#181818;stroke-width:0.5;"/><line style="stroke:#181818;stroke-width:0.5;" x1="289" x2="299" y1="438.2969" y2="428.2969"/><line style="stroke:#181818;stroke-width:0.5;" x1="189" x2="289" y1="438.2969" y2="438.2969"/><line style="stroke:#181818;stroke-width:0.5;" x1="289" x2="289" y1="438.2969" y2="474.5938"/><text fill="#000000" font-family="sans-serif" font-size="14" lengthAdjust="spacing" textLength="70" x="204" y="461.292">ssh-agent</text></g><!--entity git--><g id="elem_git"><polygon fill="#9E9E9E" points="334.5,438.2969,344.5,428.2969,391.5,428.2969,391.5,464.5938,381.5,474.5938,334.5,474.5938,334.5,438.2969" style="stroke:#181818;stroke-width:0.5;"/><line style="stroke:#181818;stroke-width:0.5;" x1="381.5" x2="391.5" y1="438.2969" y2="428.2969"/><line style="stroke:#181818;stroke-width:0.5;" x1="334.5" x2="381.5" y1="438.2969" y2="438.2969"/><line style="stroke:#181818;stroke-width:0.5;" x1="381.5" x2="381.5" y1="438.2969" y2="474.5938"/><text fill="#000000" font-family="sans-serif" font-size="14" lengthAdjust="spacing" textLength="17" x="349.5" y="461.292">git</text></g><!--entity javi--><g id="elem_javi"><polygon fill="#9E9E9E" points="426.5,438.2969,436.5,428.2969,487.5,428.2969,487.5,464.5938,477.5,474.5938,426.5,474.5938,426.5,438.2969" style="stroke:#181818;stroke-width:0.5;"/><line style="stroke:#181818;stroke-width:0.5;" x1="477.5" x2="487.5" y1="438.2969" y2="428.2969"/><line style="stroke:#181818;stroke-width:0.5;" x1="426.5" x2="477.5" y1="438.2969" y2="438.2969"/><line style="stroke:#181818;stroke-width:0.5;" x1="477.5" x2="477.5" y1="438.2969" y2="474.5938"/><text fill="#000000" font-family="sans-serif" font-size="14" lengthAdjust="spacing" textLength="21" x="441.5" y="461.292">javi</text></g><!--entity tenants_req_queue--><g id="elem_tenants_req_queue"><rect fill="#9E9E9E" height="46.2969" rx="2.5" ry="2.5" style="stroke:#181818;stroke-width:0.5;" width="123" x="736.5" y="322.2969"/><path d="M777.5,322.2969 L777.5,327.2969 L770.5,334.2969 L736.5,334.2969 " fill="none" style="stroke:#181818;stroke-width:0.5;"/><text fill="#000000" font-family="sans-serif" font-size="14" lengthAdjust="spacing" textLength="83" x="751.5" y="355.292">tenants_req</text></g><!--entity tenants_res_queue--><g id="elem_tenants_res_queue"><rect fill="#9E9E9E" height="46.2969" rx="2.5" ry="2.5" style="stroke:#181818;stroke-width:0.5;" width="122" x="579" y="322.2969"/><path d="M619.6667,322.2969 L619.6667,327.2969 L612.6667,334.2969 L579,334.2969 " fill="none" style="stroke:#181818;stroke-width:0.5;"/><text fill="#000000" font-family="sans-serif" font-size="14" lengthAdjust="spacing" textLength="82" x="594" y="355.292">tenants_res</text></g><g id="elem_API"><path d="M272,43.2969 L272,136.9609 A0,0 0 0 0 272,136.9609 L383,136.9609 L387,217.0169 L391,136.9609 L502,136.9609 A0,0 0 0 0 502,136.9609 L502,53.2969 L492,43.2969 L272,43.2969 A0,0 0 0 0 272,43.2969 " fill="#FEFFDD" style="stroke:#181818;stroke-width:0.5;"/><path d="M492,43.2969 L492,53.2969 L502,53.2969 L492,43.2969 " fill="#FEFFDD" style="stroke:#181818;stroke-width:0.5;"/><text fill="#000000" font-family="sans-serif" font-size="13" font-weight="bold" lengthAdjust="spacing" textLength="79" x="278" y="60.3638">Endpoints:</text><line style="stroke:#181818;stroke-width:1.0;" x1="273" x2="501" y1="63.4297" y2="63.4297"/><ellipse cx="283.5" cy="75.0625" fill="#000000" rx="2.5" ry="2.5" style="stroke:#000000;stroke-width:0.0;"/><a href="./" target="_top" title="./" xlink:actuate="onRequest" xlink:href="./" xlink:show="new" xlink:title="./" xlink:type="simple"><text fill="#0000FF" font-family="sans-serif" font-size="13" lengthAdjust="spacing" text-decoration="underline" textLength="133" x="290" y="79.4966">POST /api/v1/tenants</text></a><ellipse cx="283.5" cy="90.1953" fill="#000000" rx="2.5" ry="2.5" style="stroke:#000000;stroke-width:0.0;"/><a href="./" target="_top" title="./" xlink:actuate="onRequest" xlink:href="./" xlink:show="new" xlink:title="./" xlink:type="simple"><text fill="#0000FF" font-family="sans-serif" font-size="13" lengthAdjust="spacing" text-decoration="underline" textLength="174" x="290" y="94.6294">GET /api/v1/tenants/:tenant</text></a><ellipse cx="283.5" cy="105.3281" fill="#000000" rx="2.5" ry="2.5" style="stroke:#000000;stroke-width:0.0;"/><a href="./" target="_top" title="./" xlink:actuate="onRequest" xlink:href="./" xlink:show="new" xlink:title="./" xlink:type="simple"><text fill="#0000FF" font-family="sans-serif" font-size="13" lengthAdjust="spacing" text-decoration="underline" textLength="192" x="290" y="109.7622">PATCH /api/v1/tenants/:tenant</text></a><ellipse cx="283.5" cy="120.4609" fill="#000000" rx="2.5" ry="2.5" style="stroke:#000000;stroke-width:0.0;"/><a href="./" target="_top" title="./" xlink:actuate="onRequest" xlink:href="./" xlink:show="new" xlink:title="./" xlink:type="simple"><text fill="#0000FF" font-family="sans-serif" font-size="13" lengthAdjust="spacing" text-decoration="underline" textLength="197" x="290" y="124.895">DELETE /api/v1/tenants/:tenant</text></a></g><!--entity Tenants_REST_API--><g id="elem_Tenants_REST_API"><ellipse cx="387" cy="226.2969" fill="#F1F1F1" rx="8" ry="8" style="stroke:#181818;stroke-width:0.5;"/><text fill="#000000" font-family="sans-serif" font-size="14" lengthAdjust="spacing" textLength="104" x="335" y="256.292">/api/v1/tenants</text></g><!--entity File_System--><g id="elem_File_System"><a href="./fs.svg" target="_top" title="./fs.svg" xlink:actuate="onRequest" xlink:href="./fs.svg" xlink:show="new" xlink:title="./fs.svg" xlink:type="simple"><path d="M314,544.2969 C314,534.2969 363,534.2969 363,534.2969 C363,534.2969 412,534.2969 412,544.2969 L412,569.5938 C412,579.5938 363,579.5938 363,579.5938 C363,579.5938 314,579.5938 314,569.5938 L314,544.2969 " fill="#757575" style="stroke:#181818;stroke-width:0.5;"/><path d="M314,544.2969 C314,554.2969 363,554.2969 363,554.2969 C363,554.2969 412,554.2969 412,544.2969 " fill="none" style="stroke:#181818;stroke-width:0.5;"/><text fill="#000000" font-family="sans-serif" font-size="14" lengthAdjust="spacing" textLength="78" x="324" y="571.292">File System</text></a></g><!--link Tenants_REST_API to Tenants_Service--><g id="link_Tenants_REST_API_Tenants_Service"><path d="M387,235.3369 C387,252.9969 387,295.6769 387,322.0769 " fill="none" id="Tenants_REST_API-Tenants_Service" style="stroke:#181818;stroke-width:1.0;"/></g><!--link Tenants_Service to ssh_keygen--><g id="link_Tenants_Service_ssh_keygen"><path d="M324.65,368.3569 C274.25,386.1769 203.72,411.1369 153.75,428.8069 " fill="none" id="Tenants_Service-ssh_keygen" style="stroke:#181818;stroke-width:1.0;"/><path d="M248.0633,402.9461 A10,10 0 0 0 243.3467 389.6136" fill="none" style="stroke:#181818;stroke-width:1.5;"/><ellipse cx="239.0388" cy="398.6381" fill="#FFFFFF" rx="6" ry="6" style="stroke:#181818;stroke-width:1.5;"/></g><!--link Tenants_Service to ssh_agent--><g id="link_Tenants_Service_ssh_agent"><path d="M356.67,368.3569 C332.41,385.9969 298.54,410.6369 274.28,428.2769 " fill="none" id="Tenants_Service-ssh_agent" style="stroke:#181818;stroke-width:1.0;"/><path d="M325.3527,399.8761 A10,10 0 0 0 317.0342 388.4392" fill="none" style="stroke:#181818;stroke-width:1.5;"/><ellipse cx="315.475" cy="398.3169" fill="#FFFFFF" rx="6" ry="6" style="stroke:#181818;stroke-width:1.5;"/></g><!--link Tenants_Service to git--><g id="link_Tenants_Service_git"><path d="M381.91,368.3569 C377.84,385.9969 372.15,410.6369 368.08,428.2769 " fill="none" id="Tenants_Service-git" style="stroke:#181818;stroke-width:1.0;"/><path d="M383.4753,393.0175 A10,10 0 0 0 369.6956 389.8365" fill="none" style="stroke:#181818;stroke-width:1.5;"/><ellipse cx="374.995" cy="398.3169" fill="#FFFFFF" rx="6" ry="6" style="stroke:#181818;stroke-width:1.5;"/></g><!--link Tenants_Service to javi--><g id="link_Tenants_Service_javi"><path d="M401.85,368.3569 C413.72,385.9969 430.3,410.6369 442.18,428.2769 " fill="none" id="Tenants_Service-javi" style="stroke:#181818;stroke-width:1.0;"/><path d="M423.9294,388.5026 A10,10 0 0 0 412.1969 396.3987" fill="none" style="stroke:#181818;stroke-width:1.5;"/><ellipse cx="422.0113" cy="398.3169" fill="#FFFFFF" rx="6" ry="6" style="stroke:#181818;stroke-width:1.5;"/></g><!--link Tenants_Service to Apache_Pulsar--><g id="link_Tenants_Service_Apache_Pulsar"><path d="M462.74,345.2969 C476.18,345.2969 489.6175,345.2969 503.055,345.2969 C509.7738,345.2969 516.4925,345.2969 523.2116,345.2969 C526.5711,345.2969 529.9307,345.2969 533.2904,345.2969 C534.1304,345.2969 534.9703,345.2969 535.8102,345.2969 " fill="none" id="Tenants_Service-Apache_Pulsar" style="stroke:#181818;stroke-width:1.0;"/><path d="M495.9839,338.2258 A10,10 0 0 0 495.9839 352.3679" fill="none" style="stroke:#181818;stroke-width:1.5;"/><ellipse cx="503.055" cy="345.2969" fill="#FFFFFF" rx="6" ry="6" style="stroke:#181818;stroke-width:1.5;"/></g><!--link Tenants_Service to File_System--><g id="link_Tenants_Service_File_System"><path d="M439.17,368.3369 C463.89,381.7669 491.01,401.5469 505,428.2969 C519.41,455.8669 522.39,472.4969 505,498.2969 C484.41,528.8469 444.54,543.1669 412.27,549.8869 " fill="none" id="Tenants_Service-File_System" style="stroke:#181818;stroke-width:1.0;"/><path d="M472.4944,536.2127 A10,10 0 0 0 466.1996 523.5488" fill="none" style="stroke:#181818;stroke-width:1.5;"/><ellipse cx="463.015" cy="533.0281" fill="#FFFFFF" rx="6" ry="6" style="stroke:#181818;stroke-width:1.5;"/></g><!--link ssh_keygen to File_System--><g id="link_ssh_keygen_File_System"><path d="M127.08,474.4969 C140.68,482.7269 156.72,491.6569 172,498.2969 C218.53,518.5169 274.36,534.4169 313.6,544.3369 " fill="none" id="ssh_keygen-File_System" style="stroke:#181818;stroke-width:1.0;"/><path d="M240.9036,516.3159 A10,10 0 0 0 236.6702 529.8095" fill="none" style="stroke:#181818;stroke-width:1.5;"/><ellipse cx="245.5338" cy="525.1794" fill="#FFFFFF" rx="6" ry="6" style="stroke:#181818;stroke-width:1.5;"/></g><!--link ssh_agent to File_System--><g id="link_ssh_agent_File_System"><path d="M269.53,474.4969 C289.74,492.0869 317.83,516.5069 337.92,533.9869 " fill="none" id="ssh_agent-File_System" style="stroke:#181818;stroke-width:1.0;"/><path d="M303.0749,494.3073 A10,10 0 0 0 293.7942 504.9783" fill="none" style="stroke:#181818;stroke-width:1.5;"/><ellipse cx="303.77" cy="504.2831" fill="#FFFFFF" rx="6" ry="6" style="stroke:#181818;stroke-width:1.5;"/></g><!--link git to File_System--><g id="link_git_File_System"><path d="M363,474.4969 C363,492.0869 363,516.5069 363,533.9869 " fill="none" id="git-File_System" style="stroke:#181818;stroke-width:1.0;"/><path d="M370.0711,497.2121 A10,10 0 0 0 355.9289 497.2121" fill="none" style="stroke:#181818;stroke-width:1.5;"/><ellipse cx="363" cy="504.2831" fill="#FFFFFF" rx="6" ry="6" style="stroke:#181818;stroke-width:1.5;"/></g><!--link javi to File_System--><g id="link_javi_File_System"><path d="M436.83,474.4969 C420.87,492.0869 398.68,516.5069 382.81,533.9869 " fill="none" id="javi-File_System" style="stroke:#181818;stroke-width:1.0;"/><path d="M419.7747,503.8028 A10,10 0 0 0 409.3059 494.2947" fill="none" style="stroke:#181818;stroke-width:1.5;"/><ellipse cx="409.7863" cy="504.2831" fill="#FFFFFF" rx="6" ry="6" style="stroke:#181818;stroke-width:1.5;"/></g><!--SRC=[ZLHjJzim4FxUNt4Aas2LdC2qCi6a2GJPXhINQkqtL4LkScqCUIDsogg9_xwptGut2QEDsjhdvnu_ppa-02LKXZ35WXTAmWJhbOWHhh7AodMEXHeC08fI8N09b-CRcW4CXs6HLAMWZFFXq8GOVUmQtDxw0On_JgOGy4e4gvD0MVRPp4Ly2Jk0uDmETe7Zo-dLr_sWr-6tS1h-5uj5OlneNsG0wmKdlruhnTDsDqM9VeMJQMIzqozPxQwO8YN4SrbLcOYv4cLXYecreNB2aGt3mUc9Vk2FCM2pMyUmes9xD0SVHlenMMqThhODVc20Xo1bokvnlSG2c89QSc1Zy3nWStX_V7OAB8Tn-1tO0cm9V0Btf68l43vj9rKpxzqGatUZqSaPi2lm6edr1VxcUPMX7vUvvv0jXGBsWuGvLNbcCWMXQRGXFZX3_UpKObidTdJC7AnR1qvp1NCkKs0n79fGae0V95pnu5d9Hz1ougmiK8ykw9isSotvN7i8QgnAgO67BRLcWtzYxNPxQJNGhLIpULain9B-QlG9S5NcEQSts7jpz9YAEDL9Ru69hdQlIw8r-mNFqHx1ImZCkSXwJidngFcrEvtwgYy2RHtTyTMQziehGJs79S1A4ZuNHV38PHxmHgM-7b6GaeAqBE-bZTx9lHWghk8U2XlUaoFcSOfT3XlUSDWg48ymPT23r-kWKRJwf8lnq61ZkeLcXN6JIRvj53eIsKYhHongStQR5XNL-61Id7baULqfdIJPIfATfAT1ZuDQQ0yxyhGH_TRHHQ8TFkjgJjPIOMvsqFF8parpNaXVhfQpcTF0Uilav174kUmlhDhRrRDeMaatR0wh7VyB]--></g></svg>