<?xml version="1.0" encoding="us-ascii" standalone="no"?><svg xmlns="http://www.w3.org/2000/svg" xmlns:xlink="http://www.w3.org/1999/xlink" contentStyleType="text/css" height="620px" preserveAspectRatio="none" style="width:492px;height:620px;background:#FFFFFF;" version="1.1" viewBox="0 0 492 620" width="492px" zoomAndPan="magnify"><defs/><g><text fill="#000000" font-family="sans-serif" font-size="14" font-weight="bold" lengthAdjust="spacing" textLength="227" x="125.5" y="22.9951">Tenants Service Deployment</text><!--cluster Application_Server--><g id="cluster_Application_Server"><polygon fill="#616161" points="16,300.2969,26,290.2969,475,290.2969,475,593.2969,465,603.2969,16,603.2969,16,300.2969" style="stroke:#181818;stroke-width:1.0;"/><line style="stroke:#181818;stroke-width:1.0;" x1="465" x2="475" y1="300.2969" y2="290.2969"/><line style="stroke:#181818;stroke-width:1.0;" x1="16" x2="465" y1="300.2969" y2="300.2969"/><line style="stroke:#181818;stroke-width:1.0;" x1="465" x2="465" y1="300.2969" y2="603.2969"/><text fill="#000000" font-family="sans-serif" font-size="14" font-weight="bold" lengthAdjust="spacing" textLength="145" x="169" y="316.292">Application Server</text></g><!--entity tenants_req_queue--><g id="elem_tenants_req_queue"><path d="M37.5,340.2969 L130.5,340.2969 C135.5,340.2969 135.5,353.4453 135.5,353.4453 C135.5,353.4453 135.5,366.5938 130.5,366.5938 L37.5,366.5938 C32.5,366.5938 32.5,353.4453 32.5,353.4453 C32.5,353.4453 32.5,340.2969 37.5,340.2969 " fill="#BDBDBD" style="stroke:#181818;stroke-width:0.5;"/><path d="M130.5,340.2969 C125.5,340.2969 125.5,353.4453 125.5,353.4453 C125.5,366.5938 130.5,366.5938 130.5,366.5938 " fill="none" style="stroke:#181818;stroke-width:0.5;"/><text fill="#000000" font-family="sans-serif" font-size="14" lengthAdjust="spacing" textLength="83" x="37.5" y="358.292">tenants_req</text></g><!--entity tenants_res_queue--><g id="elem_tenants_res_queue"><path d="M362,340.2969 L454,340.2969 C459,340.2969 459,353.4453 459,353.4453 C459,353.4453 459,366.5938 454,366.5938 L362,366.5938 C357,366.5938 357,353.4453 357,353.4453 C357,353.4453 357,340.2969 362,340.2969 " fill="#BDBDBD" style="stroke:#181818;stroke-width:0.5;"/><path d="M454,340.2969 C449,340.2969 449,353.4453 449,353.4453 C449,366.5938 454,366.5938 454,366.5938 " fill="none" style="stroke:#181818;stroke-width:0.5;"/><text fill="#000000" font-family="sans-serif" font-size="14" lengthAdjust="spacing" textLength="82" x="362" y="358.292">tenants_res</text></g><!--entity Tenants_Service--><g id="elem_Tenants_Service"><polygon fill="#757575" points="170.5,340.2969,180.5,330.2969,321.5,330.2969,321.5,366.5938,311.5,376.5938,170.5,376.5938,170.5,340.2969" style="stroke:#181818;stroke-width:0.5;"/><line style="stroke:#181818;stroke-width:0.5;" x1="311.5" x2="321.5" y1="340.2969" y2="330.2969"/><line style="stroke:#181818;stroke-width:0.5;" x1="170.5" x2="311.5" y1="340.2969" y2="340.2969"/><line style="stroke:#181818;stroke-width:0.5;" x1="311.5" x2="311.5" y1="340.2969" y2="376.5938"/><text fill="#000000" font-family="sans-serif" font-size="14" lengthAdjust="spacing" textLength="111" x="185.5" y="363.292">Tenants Service</text></g><!--entity git--><g id="elem_git"><polygon fill="#9E9E9E" points="72.5,446.2969,82.5,436.2969,129.5,436.2969,129.5,472.5938,119.5,482.5938,72.5,482.5938,72.5,446.2969" style="stroke:#181818;stroke-width:0.5;"/><line style="stroke:#181818;stroke-width:0.5;" x1="119.5" x2="129.5" y1="446.2969" y2="436.2969"/><line style="stroke:#181818;stroke-width:0.5;" x1="72.5" x2="119.5" y1="446.2969" y2="446.2969"/><line style="stroke:#181818;stroke-width:0.5;" x1="119.5" x2="119.5" y1="446.2969" y2="482.5938"/><text fill="#000000" font-family="sans-serif" font-size="14" lengthAdjust="spacing" textLength="17" x="87.5" y="469.292">git</text></g><!--entity javi--><g id="elem_javi"><polygon fill="#9E9E9E" points="164.5,446.2969,174.5,436.2969,225.5,436.2969,225.5,472.5938,215.5,482.5938,164.5,482.5938,164.5,446.2969" style="stroke:#181818;stroke-width:0.5;"/><line style="stroke:#181818;stroke-width:0.5;" x1="215.5" x2="225.5" y1="446.2969" y2="436.2969"/><line style="stroke:#181818;stroke-width:0.5;" x1="164.5" x2="215.5" y1="446.2969" y2="446.2969"/><line style="stroke:#181818;stroke-width:0.5;" x1="215.5" x2="215.5" y1="446.2969" y2="482.5938"/><text fill="#000000" font-family="sans-serif" font-size="14" lengthAdjust="spacing" textLength="21" x="179.5" y="469.292">javi</text></g><!--entity ssh_keygen--><g id="elem_ssh_keygen"><polygon fill="#9E9E9E" points="260.5,446.2969,270.5,436.2969,381.5,436.2969,381.5,472.5938,371.5,482.5938,260.5,482.5938,260.5,446.2969" style="stroke:#181818;stroke-width:0.5;"/><line style="stroke:#181818;stroke-width:0.5;" x1="371.5" x2="381.5" y1="446.2969" y2="436.2969"/><line style="stroke:#181818;stroke-width:0.5;" x1="260.5" x2="371.5" y1="446.2969" y2="446.2969"/><line style="stroke:#181818;stroke-width:0.5;" x1="371.5" x2="371.5" y1="446.2969" y2="482.5938"/><text fill="#000000" font-family="sans-serif" font-size="14" lengthAdjust="spacing" textLength="81" x="275.5" y="469.292">ssh-keygen</text></g><!--entity File_System--><g id="elem_File_System"><a href="./fs.svg" target="_top" title="./fs.svg" xlink:actuate="onRequest" xlink:href="./fs.svg" xlink:show="new" xlink:title="./fs.svg" xlink:type="simple"><path d="M209,552.2969 C209,542.2969 258,542.2969 258,542.2969 C258,542.2969 307,542.2969 307,552.2969 L307,577.5938 C307,587.5938 258,587.5938 258,587.5938 C258,587.5938 209,587.5938 209,577.5938 L209,552.2969 " fill="#757575" style="stroke:#181818;stroke-width:0.5;"/><path d="M209,552.2969 C209,562.2969 258,562.2969 258,562.2969 C258,562.2969 307,562.2969 307,552.2969 " fill="none" style="stroke:#181818;stroke-width:0.5;"/><text fill="#000000" font-family="sans-serif" font-size="14" lengthAdjust="spacing" textLength="78" x="219" y="579.292">File System</text></a></g><g id="elem_API"><path d="M17.5,43.2969 L17.5,152.0938 A0,0 0 0 0 17.5,152.0938 L242,152.0938 L246,232.2369 L250,152.0938 L474.5,152.0938 A0,0 0 0 0 474.5,152.0938 L474.5,53.2969 L464.5,43.2969 L17.5,43.2969 A0,0 0 0 0 17.5,43.2969 " fill="#FEFFDD" style="stroke:#181818;stroke-width:0.5;"/><path d="M464.5,43.2969 L464.5,53.2969 L474.5,53.2969 L464.5,43.2969 " fill="#FEFFDD" style="stroke:#181818;stroke-width:0.5;"/><text fill="#000000" font-family="sans-serif" font-size="13" font-weight="bold" lengthAdjust="spacing" textLength="79" x="23.5" y="60.3638">Endpoints:</text><line style="stroke:#181818;stroke-width:1.0;" x1="18.5" x2="473.5" y1="63.4297" y2="63.4297"/><ellipse cx="29" cy="75.0625" fill="#000000" rx="2.5" ry="2.5" style="stroke:#000000;stroke-width:0.0;"/><a href="./" target="_top" title="./" xlink:actuate="onRequest" xlink:href="./" xlink:show="new" xlink:title="./" xlink:type="simple"><text fill="#0000FF" font-family="sans-serif" font-size="13" lengthAdjust="spacing" text-decoration="underline" textLength="133" x="35.5" y="79.4966">POST /api/v1/tenants</text></a><ellipse cx="29" cy="90.1953" fill="#000000" rx="2.5" ry="2.5" style="stroke:#000000;stroke-width:0.0;"/><a href="./" target="_top" title="./" xlink:actuate="onRequest" xlink:href="./" xlink:show="new" xlink:title="./" xlink:type="simple"><text fill="#0000FF" font-family="sans-serif" font-size="13" lengthAdjust="spacing" text-decoration="underline" textLength="248" x="35.5" y="94.6294">PATCH /api/v1/tenants?tenant=:tenant</text></a><ellipse cx="29" cy="105.3281" fill="#000000" rx="2.5" ry="2.5" style="stroke:#000000;stroke-width:0.0;"/><a href="./" target="_top" title="./" xlink:actuate="onRequest" xlink:href="./" xlink:show="new" xlink:title="./" xlink:type="simple"><text fill="#0000FF" font-family="sans-serif" font-size="13" lengthAdjust="spacing" text-decoration="underline" textLength="253" x="35.5" y="109.7622">DELETE /api/v1/tenants?tenant=:tenant</text></a><ellipse cx="29" cy="120.4609" fill="#000000" rx="2.5" ry="2.5" style="stroke:#000000;stroke-width:0.0;"/><a href="./" target="_top" title="./" xlink:actuate="onRequest" xlink:href="./" xlink:show="new" xlink:title="./" xlink:type="simple"><text fill="#0000FF" font-family="sans-serif" font-size="13" lengthAdjust="spacing" text-decoration="underline" textLength="230" x="35.5" y="124.895">GET /api/v1/tenants?tenant=:tenant</text></a><ellipse cx="29" cy="135.5938" fill="#000000" rx="2.5" ry="2.5" style="stroke:#000000;stroke-width:0.0;"/><a href="./" target="_top" title="./" xlink:actuate="onRequest" xlink:href="./" xlink:show="new" xlink:title="./" xlink:type="simple"><text fill="#0000FF" font-family="sans-serif" font-size="13" lengthAdjust="spacing" text-decoration="underline" textLength="424" x="35.5" y="140.0278">GET /api/v1/tenants/token?tenant=:tenant&amp;ttl=:ttl&amp;scope=:scope</text></a></g><!--entity Tenants_REST_API--><g id="elem_Tenants_REST_API"><ellipse cx="246" cy="241.2969" fill="#F1F1F1" rx="8" ry="8" style="stroke:#181818;stroke-width:0.5;"/><text fill="#000000" font-family="sans-serif" font-size="14" lengthAdjust="spacing" textLength="123" x="184.5" y="271.292">Tenants REST API</text></g><!--link Tenants_REST_API to Tenants_Service--><g id="link_Tenants_REST_API_Tenants_Service"><path d="M246,250.5669 C246,267.2569 246,305.4569 246,330.0069 " fill="none" id="Tenants_REST_API-Tenants_Service" style="stroke:#181818;stroke-width:1.0;"/></g><!--link tenants_req_queue to Tenants_Service--><g id="link_tenants_req_queue_Tenants_Service"><path d="M135.57,353.2969 C147.08,353.2969 158.58,353.2969 170.08,353.2969 " fill="none" id="tenants_req_queue-Tenants_Service" style="stroke:#181818;stroke-width:1.0;"/><path d="M159.8998,360.3679 A10,10 0 0 0 159.8998 346.2258" fill="none" style="stroke:#181818;stroke-width:1.5;"/><ellipse cx="152.8288" cy="353.2969" fill="#FFFFFF" rx="6" ry="6" style="stroke:#181818;stroke-width:1.5;"/></g><!--link Tenants_Service to tenants_res_queue--><g id="link_Tenants_Service_tenants_res_queue"><path d="M321.62,353.2969 C333.32,353.2969 345.02,353.2969 356.71,353.2969 " fill="none" id="Tenants_Service-tenants_res_queue" style="stroke:#181818;stroke-width:1.0;"/><path d="M332.0977,346.2258 A10,10 0 0 0 332.0977 360.3679" fill="none" style="stroke:#181818;stroke-width:1.5;"/><ellipse cx="339.1688" cy="353.2969" fill="#FFFFFF" rx="6" ry="6" style="stroke:#181818;stroke-width:1.5;"/></g><!--link Tenants_Service to git--><g id="link_Tenants_Service_git"><path d="M215.25,376.3569 C189.98,394.4769 154.44,419.9669 129.73,437.6869 " fill="none" id="Tenants_Service-git" style="stroke:#181818;stroke-width:1.0;"/><path d="M182.1471,408.7971 A10,10 0 0 0 173.9052 397.3048" fill="none" style="stroke:#181818;stroke-width:1.5;"/><ellipse cx="172.28" cy="407.1719" fill="#FFFFFF" rx="6" ry="6" style="stroke:#181818;stroke-width:1.5;"/></g><!--link Tenants_Service to javi--><g id="link_Tenants_Service_javi"><path d="M235.18,376.3569 C226.53,393.9969 214.45,418.6369 205.8,436.2769 " fill="none" id="Tenants_Service-javi" style="stroke:#181818;stroke-width:1.0;"/><path d="M229.9519,403.0808 A10,10 0 0 0 217.2539 396.855" fill="none" style="stroke:#181818;stroke-width:1.5;"/><ellipse cx="220.49" cy="406.3169" fill="#FFFFFF" rx="6" ry="6" style="stroke:#181818;stroke-width:1.5;"/></g><!--link Tenants_Service to ssh_keygen--><g id="link_Tenants_Service_ssh_keygen"><path d="M261.91,376.3569 C274.63,393.9969 292.4,418.6369 305.12,436.2769 " fill="none" id="Tenants_Service-ssh_keygen" style="stroke:#181818;stroke-width:1.0;"/><path d="M285.1143,396.4456 A10,10 0 0 0 273.6437 404.7176" fill="none" style="stroke:#181818;stroke-width:1.5;"/><ellipse cx="283.515" cy="406.3169" fill="#FFFFFF" rx="6" ry="6" style="stroke:#181818;stroke-width:1.5;"/></g><!--link Tenants_Service to File_System--><g id="link_Tenants_Service_File_System"><path d="M321.51,375.9669 C351.05,388.5369 381.9,407.7269 399,436.2969 C409.5,453.8369 409.22,464.5869 399,482.2969 C379.36,516.3369 339.48,537.4369 307.13,549.6169 " fill="none" id="Tenants_Service-File_System" style="stroke:#181818;stroke-width:1.0;"/><path d="M367.643,526.0854 A10,10 0 0 0 359.7622 514.3426" fill="none" style="stroke:#181818;stroke-width:1.5;"/><ellipse cx="357.8313" cy="524.1544" fill="#FFFFFF" rx="6" ry="6" style="stroke:#181818;stroke-width:1.5;"/></g><!--link javi to File_System--><g id="link_javi_File_System"><path d="M208.52,482.4969 C219.22,500.0869 234.08,524.5069 244.72,541.9869 " fill="none" id="javi-File_System" style="stroke:#181818;stroke-width:1.0;"/><path d="M229.0073,502.5668 A10,10 0 0 0 216.9261 509.9183" fill="none" style="stroke:#181818;stroke-width:1.5;"/><ellipse cx="226.6425" cy="512.2831" fill="#FFFFFF" rx="6" ry="6" style="stroke:#181818;stroke-width:1.5;"/></g><!--link git to File_System--><g id="link_git_File_System"><path d="M129.8,479.2769 C156.8,497.0769 197.12,523.6669 225.32,542.2469 " fill="none" id="git-File_System" style="stroke:#181818;stroke-width:1.0;"/><path d="M175.0987,500.6737 A10,10 0 0 0 167.3144 512.4807" fill="none" style="stroke:#181818;stroke-width:1.5;"/><ellipse cx="177.11" cy="510.4694" fill="#FFFFFF" rx="6" ry="6" style="stroke:#181818;stroke-width:1.5;"/></g><!--link ssh_keygen to File_System--><g id="link_ssh_keygen_File_System"><path d="M307.48,482.4969 C296.78,500.0869 281.92,524.5069 271.28,541.9869 " fill="none" id="ssh_keygen-File_System" style="stroke:#181818;stroke-width:1.0;"/><path d="M299.0739,509.9183 A10,10 0 0 0 286.9927 502.5668" fill="none" style="stroke:#181818;stroke-width:1.5;"/><ellipse cx="289.3575" cy="512.2831" fill="#FFFFFF" rx="6" ry="6" style="stroke:#181818;stroke-width:1.5;"/></g><!--SRC=[fLFlQy8m4Fs-l-Am89jGgn-sCK66pEu732QptqHAjAVBh6bjeY1Z__kIYxAq5cJCWEdTlVTwzv82AAvIX0W54qh268iTdoCCCK-p_Hg5khW049b2O186enST0RHQeKZoZ6j6hzMYbAz_jWQJIJk0qTiuWe3bFDXr0sNLfzCIOX0zF5SXztRlz-nUPWp3rp0A_qHv2gF_uWELhL1KM4sbKlsiqgQSPpdsUxIH5eg433F6QOUmM31jQEFey7keZT56DeoXXsHiah5rL_zhCqyhT0o95XhaUShdJF5Cq75XGL9EEhPfy6wwPi4NJRZPubRJ3rF51Mw8vyInXNYpnAnwagoGP8L4BDjevKwL1ZxUC-_ssYnYLKTsRJZW2NVQiL_mpjKvyB5JFyKwiDFuaYjgLk_WtQ5PfGQFpVkN7T-0NEudst4YcuVpR8DowL9- -2lSBr6GY0vZ6vwN-iLQmOGfDcDIYpvo_OMFzrBXcbHD7DkORlr2jkLkEPtMdeRx3j-b4egcfDTNAyQyse8pKqtz-mS0]--></g></svg>