<?xml version="1.0" encoding="us-ascii" standalone="no"?><svg xmlns="http://www.w3.org/2000/svg" xmlns:xlink="http://www.w3.org/1999/xlink" contentStyleType="text/css" height="373px" preserveAspectRatio="none" style="width:408px;height:373px;background:#FFFFFF;" version="1.1" viewBox="0 0 408 373" width="408px" zoomAndPan="magnify"><defs/><g><text fill="#000000" font-family="sans-serif" font-size="14" font-weight="bold" lengthAdjust="spacing" textLength="365" x="20" y="32.9951">AbstractStyleElement#updateGeometryStyle()</text><ellipse cx="203" cy="57.2969" fill="#222222" rx="10" ry="10" style="stroke:#222222;stroke-width:1.0;"/><rect fill="#F1F1F1" height="33.9688" style="stroke:#181818;stroke-width:0.5;" width="222" x="92" y="87.2969"/><text fill="#000000" font-family="sans-serif" font-size="12" lengthAdjust="spacing" textLength="81" x="102" y="108.4355">styles = this.</text><a href="./AbstractStyleElement_getGeometryStyle.svg" target="_top" title="./AbstractStyleElement_getGeometryStyle.svg" xlink:actuate="onRequest" xlink:href="./AbstractStyleElement_getGeometryStyle.svg" xlink:show="new" xlink:title="./AbstractStyleElement_getGeometryStyle.svg" xlink:type="simple"><text fill="#0000FF" font-family="sans-serif" font-size="12" lengthAdjust="spacing" text-decoration="underline" textLength="111" x="183" y="108.4355">getGeometryStyle</text></a><text fill="#000000" font-family="sans-serif" font-size="12" lengthAdjust="spacing" textLength="10" x="294" y="108.4355">()</text><rect fill="#F1F1F1" height="33.9688" style="stroke:#181818;stroke-width:0.5;" width="220" x="93" y="185.2656"/><text fill="#000000" font-family="sans-serif" font-size="12" lengthAdjust="spacing" textLength="200" x="103" y="206.4043">this.geometryStyle.deleteRule(i)</text><polygon fill="#F1F1F1" points="51.5,141.2656,354.5,141.2656,366.5,153.2656,354.5,165.2656,51.5,165.2656,39.5,153.2656,51.5,141.2656" style="stroke:#181818;stroke-width:0.5;"/><text fill="#000000" font-family="sans-serif" font-size="11" lengthAdjust="spacing" textLength="303" x="51.5" y="157.0737">i = this.geometryStyle.cssRules.length - 1; i &gt;= 0; i--</text><rect fill="#F1F1F1" height="33.9688" style="stroke:#181818;stroke-width:0.5;" width="237" x="84.5" y="305.2344"/><text fill="#000000" font-family="sans-serif" font-size="12" lengthAdjust="spacing" textLength="217" x="94.5" y="326.373">this.geometryStyle.insertRule(rule)</text><polygon fill="#F1F1F1" points="147.5,261.2344,258.5,261.2344,270.5,273.2344,258.5,285.2344,147.5,285.2344,135.5,273.2344,147.5,261.2344" style="stroke:#181818;stroke-width:0.5;"/><text fill="#000000" font-family="sans-serif" font-size="11" lengthAdjust="spacing" textLength="111" x="147.5" y="277.0425">styles.forEach(rule)</text><ellipse cx="62.5" cy="315.2344" fill="none" rx="10" ry="10" style="stroke:#222222;stroke-width:1.5;"/><line style="stroke:#222222;stroke-width:2.5;" x1="56.3128" x2="68.6872" y1="309.0472" y2="321.4216"/><line style="stroke:#222222;stroke-width:2.5;" x1="68.6872" x2="56.3128" y1="309.0472" y2="321.4216"/><line style="stroke:#181818;stroke-width:1.0;" x1="203" x2="203" y1="67.2969" y2="87.2969"/><polygon fill="#181818" points="199,77.2969,203,87.2969,207,77.2969,203,81.2969" style="stroke:#181818;stroke-width:1.0;"/><line style="stroke:#181818;stroke-width:1.0;" x1="203" x2="203" y1="165.2656" y2="185.2656"/><polygon fill="#181818" points="199,175.2656,203,185.2656,207,175.2656,203,179.2656" style="stroke:#181818;stroke-width:1.0;"/><line style="stroke:#181818;stroke-width:1.0;" x1="203" x2="203" y1="219.2344" y2="229.2344"/><line style="stroke:#181818;stroke-width:1.0;" x1="203" x2="378.5" y1="229.2344" y2="229.2344"/><polygon fill="#181818" points="374.5,200.25,378.5,190.25,382.5,200.25,378.5,196.25" style="stroke:#181818;stroke-width:1.0;"/><line style="stroke:#181818;stroke-width:1.0;" x1="378.5" x2="378.5" y1="153.2656" y2="229.2344"/><line style="stroke:#181818;stroke-width:1.0;" x1="378.5" x2="366.5" y1="153.2656" y2="153.2656"/><polygon fill="#181818" points="376.5,149.2656,366.5,153.2656,376.5,157.2656,372.5,153.2656" style="stroke:#181818;stroke-width:1.0;"/><line style="stroke:#181818;stroke-width:1.0;" x1="39.5" x2="27.5" y1="153.2656" y2="153.2656"/><polygon fill="#181818" points="23.5,186.25,27.5,196.25,31.5,186.25,27.5,190.25" style="stroke:#181818;stroke-width:1.0;"/><line style="stroke:#181818;stroke-width:1.0;" x1="27.5" x2="27.5" y1="153.2656" y2="241.2344"/><line style="stroke:#181818;stroke-width:1.0;" x1="27.5" x2="203" y1="241.2344" y2="241.2344"/><line style="stroke:#181818;stroke-width:1.0;" x1="203" x2="203" y1="241.2344" y2="261.2344"/><polygon fill="#181818" points="199,251.2344,203,261.2344,207,251.2344,203,255.2344" style="stroke:#181818;stroke-width:1.0;"/><line style="stroke:#181818;stroke-width:1.0;" x1="203" x2="203" y1="121.2656" y2="141.2656"/><polygon fill="#181818" points="199,131.2656,203,141.2656,207,131.2656,203,135.2656" style="stroke:#181818;stroke-width:1.0;"/><line style="stroke:#181818;stroke-width:1.0;" x1="203" x2="203" y1="285.2344" y2="305.2344"/><polygon fill="#181818" points="199,295.2344,203,305.2344,207,295.2344,203,299.2344" style="stroke:#181818;stroke-width:1.0;"/><line style="stroke:#181818;stroke-width:1.0;" x1="203" x2="203" y1="339.2031" y2="349.2031"/><line style="stroke:#181818;stroke-width:1.0;" x1="203" x2="333.5" y1="349.2031" y2="349.2031"/><polygon fill="#181818" points="329.5,320.2188,333.5,310.2188,337.5,320.2188,333.5,316.2188" style="stroke:#181818;stroke-width:1.0;"/><line style="stroke:#181818;stroke-width:1.0;" x1="333.5" x2="333.5" y1="273.2344" y2="349.2031"/><line style="stroke:#181818;stroke-width:1.0;" x1="333.5" x2="270.5" y1="273.2344" y2="273.2344"/><polygon fill="#181818" points="280.5,269.2344,270.5,273.2344,280.5,277.2344,276.5,273.2344" style="stroke:#181818;stroke-width:1.0;"/><line style="stroke:#181818;stroke-width:1.0;" x1="135.5" x2="62.5" y1="273.2344" y2="273.2344"/><line style="stroke:#181818;stroke-width:1.0;" x1="62.5" x2="62.5" y1="273.2344" y2="305.2344"/><polygon fill="#181818" points="58.5,295.2344,62.5,305.2344,66.5,295.2344,62.5,299.2344" style="stroke:#181818;stroke-width:1.0;"/><!--SRC=[VOz13u8m38Nl_8ecNiQ1gLSD9Xw8TpqIOYRKiMI0MOk6V- -OceWQJstQzxxN0h1XYx0z4JjLye47Yvd51bkUzPTACUwmQv3T45OYZY80OkNOLu0LZLE25BWs9FDSpd-XZXfvmf5qrV0vB0eH5m5xguq_IfWNLq-y9T6-zwdIOgkvXWIMQp2mIM7XQvB4WU6F- -6jq2BZQ1Vc6OPj5VBUanzloNFdCbNMmdbz_0zhMaB70HkqNsJVtW40]--></g></svg>