<?xml version="1.0" encoding="us-ascii" standalone="no"?><svg xmlns="http://www.w3.org/2000/svg" xmlns:xlink="http://www.w3.org/1999/xlink" contentStyleType="text/css" height="344px" preserveAspectRatio="none" style="width:349px;height:344px;background:#FFFFFF;" version="1.1" viewBox="0 0 349 344" width="349px" zoomAndPan="magnify"><defs/><g><text fill="#000000" font-family="sans-serif" font-size="14" font-weight="bold" lengthAdjust="spacing" textLength="306" x="20" y="32.9951">AbstractChartElement#shouldUpdate()</text><ellipse cx="173.5" cy="57.2969" fill="#222222" rx="10" ry="10" style="stroke:#222222;stroke-width:1.0;"/><polygon fill="#F1F1F1" points="94.5,87.2969,252.5,87.2969,264.5,99.2969,252.5,111.2969,94.5,111.2969,82.5,99.2969,94.5,87.2969" style="stroke:#181818;stroke-width:0.5;"/><text fill="#000000" font-family="sans-serif" font-size="11" lengthAdjust="spacing" textLength="158" x="94.5" y="103.105">this._forceUpdate === true</text><text fill="#000000" font-family="sans-serif" font-size="11" lengthAdjust="spacing" textLength="20" x="62.5" y="96.7026">yes</text><text fill="#000000" font-family="sans-serif" font-size="11" lengthAdjust="spacing" textLength="14" x="264.5" y="96.7026">no</text><rect fill="#F1F1F1" height="33.9688" style="stroke:#181818;stroke-width:0.5;" width="84" x="30.5" y="121.2969"/><text fill="#000000" font-family="sans-serif" font-size="12" lengthAdjust="spacing" textLength="64" x="40.5" y="142.4355">res = true</text><rect fill="#F1F1F1" height="33.9688" style="stroke:#181818;stroke-width:0.5;" width="88" x="230.5" y="121.2969"/><text fill="#000000" font-family="sans-serif" font-size="12" lengthAdjust="spacing" textLength="68" x="240.5" y="142.4355">res = false</text><polygon fill="#F1F1F1" points="173.5,161.2656,185.5,173.2656,173.5,185.2656,161.5,173.2656,173.5,161.2656" style="stroke:#181818;stroke-width:0.5;"/><rect fill="#F1F1F1" height="33.9688" style="stroke:#181818;stroke-width:0.5;" width="179" x="84" y="205.2656"/><text fill="#000000" font-family="sans-serif" font-size="12" lengthAdjust="spacing" textLength="159" x="94" y="226.4043">this._forceUpdate = false</text><polygon fill="#F1F1F1" points="142,259.2344,215,259.2344,205,293.2031,132,293.2031" style="stroke:#181818;stroke-width:0.5;"/><text fill="#000000" font-family="sans-serif" font-size="12" lengthAdjust="spacing" textLength="63" x="142" y="280.373">return res</text><ellipse cx="173.5" cy="323.2031" fill="none" rx="10" ry="10" style="stroke:#222222;stroke-width:1.5;"/><line style="stroke:#222222;stroke-width:2.5;" x1="167.3128" x2="179.6872" y1="317.0159" y2="329.3903"/><line style="stroke:#222222;stroke-width:2.5;" x1="179.6872" x2="167.3128" y1="317.0159" y2="329.3903"/><line style="stroke:#181818;stroke-width:1.0;" x1="82.5" x2="72.5" y1="99.2969" y2="99.2969"/><line style="stroke:#181818;stroke-width:1.0;" x1="72.5" x2="72.5" y1="99.2969" y2="121.2969"/><polygon fill="#181818" points="68.5,111.2969,72.5,121.2969,76.5,111.2969,72.5,115.2969" style="stroke:#181818;stroke-width:1.0;"/><line style="stroke:#181818;stroke-width:1.0;" x1="264.5" x2="274.5" y1="99.2969" y2="99.2969"/><line style="stroke:#181818;stroke-width:1.0;" x1="274.5" x2="274.5" y1="99.2969" y2="121.2969"/><polygon fill="#181818" points="270.5,111.2969,274.5,121.2969,278.5,111.2969,274.5,115.2969" style="stroke:#181818;stroke-width:1.0;"/><line style="stroke:#181818;stroke-width:1.0;" x1="72.5" x2="72.5" y1="155.2656" y2="173.2656"/><line style="stroke:#181818;stroke-width:1.0;" x1="72.5" x2="161.5" y1="173.2656" y2="173.2656"/><polygon fill="#181818" points="151.5,169.2656,161.5,173.2656,151.5,177.2656,155.5,173.2656" style="stroke:#181818;stroke-width:1.0;"/><line style="stroke:#181818;stroke-width:1.0;" x1="274.5" x2="274.5" y1="155.2656" y2="173.2656"/><line style="stroke:#181818;stroke-width:1.0;" x1="274.5" x2="185.5" y1="173.2656" y2="173.2656"/><polygon fill="#181818" points="195.5,169.2656,185.5,173.2656,195.5,177.2656,191.5,173.2656" style="stroke:#181818;stroke-width:1.0;"/><line style="stroke:#181818;stroke-width:1.0;" x1="173.5" x2="173.5" y1="67.2969" y2="87.2969"/><polygon fill="#181818" points="169.5,77.2969,173.5,87.2969,177.5,77.2969,173.5,81.2969" style="stroke:#181818;stroke-width:1.0;"/><line style="stroke:#181818;stroke-width:1.0;" x1="173.5" x2="173.5" y1="185.2656" y2="205.2656"/><polygon fill="#181818" points="169.5,195.2656,173.5,205.2656,177.5,195.2656,173.5,199.2656" style="stroke:#181818;stroke-width:1.0;"/><line style="stroke:#181818;stroke-width:1.0;" x1="173.5" x2="173.5" y1="239.2344" y2="259.2344"/><polygon fill="#181818" points="169.5,249.2344,173.5,259.2344,177.5,249.2344,173.5,253.2344" style="stroke:#181818;stroke-width:1.0;"/><line style="stroke:#181818;stroke-width:1.0;" x1="173.5" x2="173.5" y1="293.2031" y2="313.2031"/><polygon fill="#181818" points="169.5,303.2031,173.5,313.2031,177.5,303.2031,173.5,307.2031" style="stroke:#181818;stroke-width:1.0;"/><!--SRC=[ROqn3a8X44HxJZ693JJQ_uJ268zWQGn-ba22ODYbyFOIleKnLhEPUJCBI99CEDvPcblb55sJSwO75Tbnh3txozCx8MsK0bX6F1H80LfYulqjrBRI1i5Q2scT32HIWNuHcua3IoF6bbwdHPa9kjGV8BZXVuZYKvZNykVLDpcwqbl1c3YeMNm3]--></g></svg>