<?xml version="1.0" encoding="us-ascii" standalone="no"?><svg xmlns="http://www.w3.org/2000/svg" xmlns:xlink="http://www.w3.org/1999/xlink" contentStyleType="text/css" height="388px" preserveAspectRatio="none" style="width:391px;height:388px;background:#FFFFFF;" version="1.1" viewBox="0 0 391 388" width="391px" zoomAndPan="magnify"><defs/><g><text fill="#000000" font-family="sans-serif" font-size="14" font-weight="bold" lengthAdjust="spacing" textLength="348" x="20" y="32.9951">AbstractStyleHandlerElement#getSvgStyle()</text><ellipse cx="194.5" cy="57.2969" fill="#222222" rx="10" ry="10" style="stroke:#222222;stroke-width:1.0;"/><rect fill="#F1F1F1" height="33.9688" style="stroke:#181818;stroke-width:0.5;" width="199" x="95" y="87.2969"/><text fill="#000000" font-family="sans-serif" font-size="12" lengthAdjust="spacing" textLength="179" x="105" y="108.4355">default = getSvgStateStyle()</text><rect fill="#F1F1F1" height="33.9688" style="stroke:#181818;stroke-width:0.5;" width="239" x="75" y="141.2656"/><text fill="#000000" font-family="sans-serif" font-size="12" lengthAdjust="spacing" textLength="219" x="85" y="162.4043">active = getSvgStateStyle("active")</text><rect fill="#F1F1F1" height="33.9688" style="stroke:#181818;stroke-width:0.5;" width="233" x="78" y="195.2344"/><text fill="#000000" font-family="sans-serif" font-size="12" lengthAdjust="spacing" textLength="213" x="88" y="216.373">focus = getSvgStateStyle("focus")</text><rect fill="#F1F1F1" height="33.9688" style="stroke:#181818;stroke-width:0.5;" width="235" x="77" y="249.2031"/><text fill="#000000" font-family="sans-serif" font-size="12" lengthAdjust="spacing" textLength="215" x="87" y="270.3418">hover = getSvgStateStyle("hover")</text><polygon fill="#F1F1F1" points="79,303.1719,320,303.1719,310,337.1406,69,337.1406" style="stroke:#181818;stroke-width:0.5;"/><text fill="#000000" font-family="sans-serif" font-size="12" lengthAdjust="spacing" textLength="227" x="79" y="324.3105">return [default, active, focus, hover]</text><ellipse cx="194.5" cy="367.1406" fill="none" rx="10" ry="10" style="stroke:#222222;stroke-width:1.5;"/><line style="stroke:#222222;stroke-width:2.5;" x1="188.3128" x2="200.6872" y1="360.9534" y2="373.3278"/><line style="stroke:#222222;stroke-width:2.5;" x1="200.6872" x2="188.3128" y1="360.9534" y2="373.3278"/><line style="stroke:#181818;stroke-width:1.0;" x1="194.5" x2="194.5" y1="67.2969" y2="87.2969"/><polygon fill="#181818" points="190.5,77.2969,194.5,87.2969,198.5,77.2969,194.5,81.2969" style="stroke:#181818;stroke-width:1.0;"/><line style="stroke:#181818;stroke-width:1.0;" x1="194.5" x2="194.5" y1="121.2656" y2="141.2656"/><polygon fill="#181818" points="190.5,131.2656,194.5,141.2656,198.5,131.2656,194.5,135.2656" style="stroke:#181818;stroke-width:1.0;"/><line style="stroke:#181818;stroke-width:1.0;" x1="194.5" x2="194.5" y1="175.2344" y2="195.2344"/><polygon fill="#181818" points="190.5,185.2344,194.5,195.2344,198.5,185.2344,194.5,189.2344" style="stroke:#181818;stroke-width:1.0;"/><line style="stroke:#181818;stroke-width:1.0;" x1="194.5" x2="194.5" y1="229.2031" y2="249.2031"/><polygon fill="#181818" points="190.5,239.2031,194.5,249.2031,198.5,239.2031,194.5,243.2031" style="stroke:#181818;stroke-width:1.0;"/><line style="stroke:#181818;stroke-width:1.0;" x1="194.5" x2="194.5" y1="283.1719" y2="303.1719"/><polygon fill="#181818" points="190.5,293.1719,194.5,303.1719,198.5,293.1719,194.5,297.1719" style="stroke:#181818;stroke-width:1.0;"/><line style="stroke:#181818;stroke-width:1.0;" x1="194.5" x2="194.5" y1="337.1406" y2="357.1406"/><polygon fill="#181818" points="190.5,347.1406,194.5,357.1406,198.5,347.1406,194.5,351.1406" style="stroke:#181818;stroke-width:1.0;"/><!--SRC=[RSun2y8m48RXlR_YeouA0NV1mK5mxoWTOdEjXPZ2vHBelpSaRQTCDxmFTmV8B9Rm-7XXFKWdgwMNTiOIFotzoCbf8kdYbClvqZI05ysI9d0pDEfW1NViIWjjj2yaRPqZrKHRKhlBSHc2hy9S3lTT8d7LvN8u9WdiyDwUL2Zt5F8wXQnxN9CcP_u0]--></g></svg>