<?xml version="1.0" encoding="us-ascii" standalone="no"?><svg xmlns="http://www.w3.org/2000/svg" xmlns:xlink="http://www.w3.org/1999/xlink" contentStyleType="text/css" height="280px" preserveAspectRatio="none" style="width:305px;height:280px;background:#FFFFFF;" version="1.1" viewBox="0 0 305 280" width="305px" zoomAndPan="magnify"><defs/><g><text fill="#000000" font-family="sans-serif" font-size="14" font-weight="bold" lengthAdjust="spacing" textLength="262" x="20" y="32.9951">AbstractScaleElement#upgrade()</text><ellipse cx="152.5" cy="57.2969" fill="#222222" rx="10" ry="10" style="stroke:#222222;stroke-width:1.0;"/><rect fill="#F1F1F1" height="33.9688" style="stroke:#181818;stroke-width:0.5;" width="123" x="91" y="87.2969"/><text fill="#000000" font-family="sans-serif" font-size="12" lengthAdjust="spacing" textLength="40" x="101" y="108.4355">super.</text><a href="./AbstractStyleElement_upgrade.svg" target="_top" title="./AbstractStyleElement_upgrade.svg" xlink:actuate="onRequest" xlink:href="./AbstractStyleElement_upgrade.svg" xlink:show="new" xlink:title="./AbstractStyleElement_upgrade.svg" xlink:type="simple"><text fill="#0000FF" font-family="sans-serif" font-size="12" lengthAdjust="spacing" text-decoration="underline" textLength="53" x="141" y="108.4355">upgrade</text></a><text fill="#000000" font-family="sans-serif" font-size="12" lengthAdjust="spacing" textLength="10" x="194" y="108.4355">()</text><rect fill="#F1F1F1" height="33.9688" style="stroke:#181818;stroke-width:0.5;" width="136" x="84.5" y="141.2656"/><text fill="#000000" font-family="sans-serif" font-size="12" lengthAdjust="spacing" textLength="116" x="94.5" y="162.4043">this.updateScale()</text><rect fill="#F1F1F1" height="33.9688" style="stroke:#181818;stroke-width:0.5;" width="275" x="15" y="195.2344"/><text fill="#000000" font-family="sans-serif" font-size="12" lengthAdjust="spacing" textLength="255" x="25" y="216.373">this.dispatchEvent("HdmlScaleUpdated")</text><ellipse cx="152.5" cy="259.2031" fill="none" rx="10" ry="10" style="stroke:#222222;stroke-width:1.5;"/><line style="stroke:#222222;stroke-width:2.5;" x1="146.3128" x2="158.6872" y1="253.0159" y2="265.3903"/><line style="stroke:#222222;stroke-width:2.5;" x1="158.6872" x2="146.3128" y1="253.0159" y2="265.3903"/><line style="stroke:#181818;stroke-width:1.0;" x1="152.5" x2="152.5" y1="67.2969" y2="87.2969"/><polygon fill="#181818" points="148.5,77.2969,152.5,87.2969,156.5,77.2969,152.5,81.2969" style="stroke:#181818;stroke-width:1.0;"/><line style="stroke:#181818;stroke-width:1.0;" x1="152.5" x2="152.5" y1="121.2656" y2="141.2656"/><polygon fill="#181818" points="148.5,131.2656,152.5,141.2656,156.5,131.2656,152.5,135.2656" style="stroke:#181818;stroke-width:1.0;"/><line style="stroke:#181818;stroke-width:1.0;" x1="152.5" x2="152.5" y1="175.2344" y2="195.2344"/><polygon fill="#181818" points="148.5,185.2344,152.5,195.2344,156.5,185.2344,152.5,189.2344" style="stroke:#181818;stroke-width:1.0;"/><line style="stroke:#181818;stroke-width:1.0;" x1="152.5" x2="152.5" y1="229.2031" y2="249.2031"/><polygon fill="#181818" points="148.5,239.2031,152.5,249.2031,156.5,239.2031,152.5,243.2031" style="stroke:#181818;stroke-width:1.0;"/><!--SRC=[LSqn2iCm30NGFQSGwU8ixjwjGw1xwHHCKIsH69nWB3cGspUu8T197_IV1A118yFz8vhHwzDZv3xop8jUIXep4fkkQG14CUi-0MvI4cSx3FPwCjrEzZwObNM48pjdElV3EWMn9H4grsV_2mgIKFtKh_ibqpveZhNrge3QMkQ5lW00]--></g></svg>