<?xml version="1.0" encoding="us-ascii" standalone="no"?><svg xmlns="http://www.w3.org/2000/svg" xmlns:xlink="http://www.w3.org/1999/xlink" contentStyleType="text/css" height="388px" preserveAspectRatio="none" style="width:389px;height:388px;background:#FFFFFF;" version="1.1" viewBox="0 0 389 388" width="389px" zoomAndPan="magnify"><defs/><g><text fill="#000000" font-family="sans-serif" font-size="14" font-weight="bold" lengthAdjust="spacing" textLength="346" x="20" y="32.9951">AbstractStyleMapperElement#getSvgStyle()</text><ellipse cx="193.5" cy="57.2969" fill="#222222" rx="10" ry="10" style="stroke:#222222;stroke-width:1.0;"/><rect fill="#F1F1F1" height="33.9688" style="stroke:#181818;stroke-width:0.5;" width="199" x="94" y="87.2969"/><text fill="#000000" font-family="sans-serif" font-size="12" lengthAdjust="spacing" textLength="179" x="104" y="108.4355">default = getSvgStateStyle()</text><rect fill="#F1F1F1" height="33.9688" style="stroke:#181818;stroke-width:0.5;" width="239" x="74" y="141.2656"/><text fill="#000000" font-family="sans-serif" font-size="12" lengthAdjust="spacing" textLength="219" x="84" y="162.4043">active = getSvgStateStyle("active")</text><rect fill="#F1F1F1" height="33.9688" style="stroke:#181818;stroke-width:0.5;" width="233" x="77" y="195.2344"/><text fill="#000000" font-family="sans-serif" font-size="12" lengthAdjust="spacing" textLength="213" x="87" y="216.373">focus = getSvgStateStyle("focus")</text><rect fill="#F1F1F1" height="33.9688" style="stroke:#181818;stroke-width:0.5;" width="235" x="76" y="249.2031"/><text fill="#000000" font-family="sans-serif" font-size="12" lengthAdjust="spacing" textLength="215" x="86" y="270.3418">hover = getSvgStateStyle("hover")</text><polygon fill="#F1F1F1" points="78,303.1719,319,303.1719,309,337.1406,68,337.1406" style="stroke:#181818;stroke-width:0.5;"/><text fill="#000000" font-family="sans-serif" font-size="12" lengthAdjust="spacing" textLength="227" x="78" y="324.3105">return [default, active, focus, hover]</text><ellipse cx="193.5" cy="367.1406" fill="none" rx="10" ry="10" style="stroke:#222222;stroke-width:1.5;"/><line style="stroke:#222222;stroke-width:2.5;" x1="187.3128" x2="199.6872" y1="360.9534" y2="373.3278"/><line style="stroke:#222222;stroke-width:2.5;" x1="199.6872" x2="187.3128" y1="360.9534" y2="373.3278"/><line style="stroke:#181818;stroke-width:1.0;" x1="193.5" x2="193.5" y1="67.2969" y2="87.2969"/><polygon fill="#181818" points="189.5,77.2969,193.5,87.2969,197.5,77.2969,193.5,81.2969" style="stroke:#181818;stroke-width:1.0;"/><line style="stroke:#181818;stroke-width:1.0;" x1="193.5" x2="193.5" y1="121.2656" y2="141.2656"/><polygon fill="#181818" points="189.5,131.2656,193.5,141.2656,197.5,131.2656,193.5,135.2656" style="stroke:#181818;stroke-width:1.0;"/><line style="stroke:#181818;stroke-width:1.0;" x1="193.5" x2="193.5" y1="175.2344" y2="195.2344"/><polygon fill="#181818" points="189.5,185.2344,193.5,195.2344,197.5,185.2344,193.5,189.2344" style="stroke:#181818;stroke-width:1.0;"/><line style="stroke:#181818;stroke-width:1.0;" x1="193.5" x2="193.5" y1="229.2031" y2="249.2031"/><polygon fill="#181818" points="189.5,239.2031,193.5,249.2031,197.5,239.2031,193.5,243.2031" style="stroke:#181818;stroke-width:1.0;"/><line style="stroke:#181818;stroke-width:1.0;" x1="193.5" x2="193.5" y1="283.1719" y2="303.1719"/><polygon fill="#181818" points="189.5,293.1719,193.5,303.1719,197.5,293.1719,193.5,297.1719" style="stroke:#181818;stroke-width:1.0;"/><line style="stroke:#181818;stroke-width:1.0;" x1="193.5" x2="193.5" y1="337.1406" y2="357.1406"/><polygon fill="#181818" points="189.5,347.1406,193.5,357.1406,197.5,347.1406,193.5,351.1406" style="stroke:#181818;stroke-width:1.0;"/><!--SRC=[RSun2uCm48RXtL_nOPSM0kw53XqwTd8i3gcULaYZN2w1_lk6H9qotV0-t1qWinZ2_Us4TI-j_0mzzReIFmnzoSff8cd3bCBvKbM04yqI9t0TQDJU26xObHRQQ9T9N3e7AeawftgNuz9xLuIf7Ewp1EAYI-LmJEBPuhKzgP3lAQHr2abtQA8cE_m1]--></g></svg>