<?xml version="1.0" encoding="us-ascii" standalone="no"?><svg xmlns="http://www.w3.org/2000/svg" xmlns:xlink="http://www.w3.org/1999/xlink" contentStyleType="text/css" height="280px" preserveAspectRatio="none" style="width:314px;height:280px;background:#FFFFFF;" version="1.1" viewBox="0 0 314 280" width="314px" zoomAndPan="magnify"><defs/><g><text fill="#000000" font-family="sans-serif" font-size="14" font-weight="bold" lengthAdjust="spacing" textLength="262" x="24.5" y="32.9951">AbstractChartElement#updated()</text><ellipse cx="157" cy="57.2969" fill="#222222" rx="10" ry="10" style="stroke:#222222;stroke-width:1.0;"/><rect fill="#F1F1F1" height="33.9688" style="stroke:#181818;stroke-width:0.5;" width="209" x="52.5" y="87.2969"/><text fill="#000000" font-family="sans-serif" font-size="12" lengthAdjust="spacing" textLength="189" x="62.5" y="108.4355">setTimeout(this.updateStyles)</text><rect fill="#F1F1F1" height="33.9688" style="stroke:#181818;stroke-width:0.5;" width="232" x="41" y="141.2656"/><text fill="#000000" font-family="sans-serif" font-size="12" lengthAdjust="spacing" textLength="212" x="51" y="162.4043">setTimeout(this.updateGeometry)</text><rect fill="#F1F1F1" height="33.9688" style="stroke:#181818;stroke-width:0.5;" width="292" x="11" y="195.2344"/><text fill="#000000" font-family="sans-serif" font-size="12" lengthAdjust="spacing" textLength="272" x="21" y="216.373">this.dispatchEvent("HdmlElementUpdated")</text><ellipse cx="157" cy="259.2031" fill="none" rx="10" ry="10" style="stroke:#222222;stroke-width:1.5;"/><line style="stroke:#222222;stroke-width:2.5;" x1="150.8128" x2="163.1872" y1="253.0159" y2="265.3903"/><line style="stroke:#222222;stroke-width:2.5;" x1="163.1872" x2="150.8128" y1="253.0159" y2="265.3903"/><line style="stroke:#181818;stroke-width:1.0;" x1="157" x2="157" y1="67.2969" y2="87.2969"/><polygon fill="#181818" points="153,77.2969,157,87.2969,161,77.2969,157,81.2969" style="stroke:#181818;stroke-width:1.0;"/><line style="stroke:#181818;stroke-width:1.0;" x1="157" x2="157" y1="121.2656" y2="141.2656"/><polygon fill="#181818" points="153,131.2656,157,141.2656,161,131.2656,157,135.2656" style="stroke:#181818;stroke-width:1.0;"/><line style="stroke:#181818;stroke-width:1.0;" x1="157" x2="157" y1="175.2344" y2="195.2344"/><polygon fill="#181818" points="153,185.2344,157,195.2344,161,185.2344,157,189.2344" style="stroke:#181818;stroke-width:1.0;"/><line style="stroke:#181818;stroke-width:1.0;" x1="157" x2="157" y1="229.2031" y2="249.2031"/><polygon fill="#181818" points="153,239.2031,157,249.2031,161,239.2031,157,243.2031" style="stroke:#181818;stroke-width:1.0;"/><!--SRC=[VOwn3e8m54Ltlk85bxBu0Mp64DsLqQ7IcxH92wJlOiBVqu2kJdSu9xb7X84HSdahinruzJQpYqWOULfcPmbdcgeIKHPILgHLy1aIfeM6FkZvy1vS8xHv_NDkc1AOrv-r8nTqjXnyzocdfhwx5By5_H5Gxpf6jm40]--></g></svg>