<?xml version="1.0" encoding="us-ascii" standalone="no"?><svg xmlns="http://www.w3.org/2000/svg" xmlns:xlink="http://www.w3.org/1999/xlink" contentStyleType="text/css" height="226px" preserveAspectRatio="none" style="width:338px;height:226px;background:#FFFFFF;" version="1.1" viewBox="0 0 338 226" width="338px" zoomAndPan="magnify"><defs/><g><text fill="#000000" font-family="sans-serif" font-size="14" font-weight="bold" lengthAdjust="spacing" textLength="295" x="20" y="32.9951">AbstractChartElement#firstUpdated()</text><ellipse cx="169" cy="57.2969" fill="#222222" rx="10" ry="10" style="stroke:#222222;stroke-width:1.0;"/><rect fill="#F1F1F1" height="33.9688" style="stroke:#181818;stroke-width:0.5;" width="229" x="54.5" y="87.2969"/><text fill="#000000" font-family="sans-serif" font-size="12" lengthAdjust="spacing" textLength="209" x="64.5" y="108.4355">setTimeout(this.renderGeometry)</text><rect fill="#F1F1F1" height="33.9688" style="stroke:#181818;stroke-width:0.5;" width="199" x="69.5" y="141.2656"/><text fill="#000000" font-family="sans-serif" font-size="12" lengthAdjust="spacing" textLength="179" x="79.5" y="162.4043">setTimeout(this.renderStyle)</text><ellipse cx="169" cy="205.2344" fill="none" rx="10" ry="10" style="stroke:#222222;stroke-width:1.5;"/><line style="stroke:#222222;stroke-width:2.5;" x1="162.8128" x2="175.1872" y1="199.0472" y2="211.4216"/><line style="stroke:#222222;stroke-width:2.5;" x1="175.1872" x2="162.8128" y1="199.0472" y2="211.4216"/><line style="stroke:#181818;stroke-width:1.0;" x1="169" x2="169" y1="67.2969" y2="87.2969"/><polygon fill="#181818" points="165,77.2969,169,87.2969,173,77.2969,169,81.2969" style="stroke:#181818;stroke-width:1.0;"/><line style="stroke:#181818;stroke-width:1.0;" x1="169" x2="169" y1="121.2656" y2="141.2656"/><polygon fill="#181818" points="165,131.2656,169,141.2656,173,131.2656,169,135.2656" style="stroke:#181818;stroke-width:1.0;"/><line style="stroke:#181818;stroke-width:1.0;" x1="169" x2="169" y1="175.2344" y2="195.2344"/><polygon fill="#181818" points="165,185.2344,169,195.2344,173,185.2344,169,189.2344" style="stroke:#181818;stroke-width:1.0;"/><!--SRC=[VOez2eD050PxJ_70HXiFO1Sav029fSKc-uaB-oFlVHRUtiK3f1g66H46HiZZQrJtuxGvvJCY8RDTWnhdtJl2TttJY1XhhXGP3Vo4X7AmunPiK6GFVQ4aKCz- -NUzUKRSIzKB]--></g></svg>