<?xml version="1.0" encoding="us-ascii" standalone="no"?><svg xmlns="http://www.w3.org/2000/svg" xmlns:xlink="http://www.w3.org/1999/xlink" contentStyleType="text/css" height="280px" preserveAspectRatio="none" style="width:374px;height:280px;background:#FFFFFF;" version="1.1" viewBox="0 0 374 280" width="374px" zoomAndPan="magnify"><defs/><g><text fill="#000000" font-family="sans-serif" font-size="14" font-weight="bold" lengthAdjust="spacing" textLength="331" x="20" y="32.9951">AbstractGeometryElement#firstUpgrade()</text><ellipse cx="187" cy="57.2969" fill="#222222" rx="10" ry="10" style="stroke:#222222;stroke-width:1.0;"/><rect fill="#F1F1F1" height="33.9688" style="stroke:#181818;stroke-width:0.5;" width="148" x="113" y="87.2969"/><text fill="#000000" font-family="sans-serif" font-size="12" lengthAdjust="spacing" textLength="40" x="123" y="108.4355">super.</text><a href="./AbstractStyleElement_firstUpgrade.svg" target="_top" title="./AbstractStyleElement_firstUpgrade.svg" xlink:actuate="onRequest" xlink:href="./AbstractStyleElement_firstUpgrade.svg" xlink:show="new" xlink:title="./AbstractStyleElement_firstUpgrade.svg" xlink:type="simple"><text fill="#0000FF" font-family="sans-serif" font-size="12" lengthAdjust="spacing" text-decoration="underline" textLength="78" x="163" y="108.4355">firstUpgrade</text></a><text fill="#000000" font-family="sans-serif" font-size="12" lengthAdjust="spacing" textLength="10" x="241" y="108.4355">()</text><rect fill="#F1F1F1" height="33.9688" style="stroke:#181818;stroke-width:0.5;" width="159" x="107.5" y="141.2656"/><text fill="#000000" font-family="sans-serif" font-size="12" lengthAdjust="spacing" textLength="139" x="117.5" y="162.4043">this.renderGeometry()</text><rect fill="#F1F1F1" height="33.9688" style="stroke:#181818;stroke-width:0.5;" width="338" x="18" y="195.2344"/><text fill="#000000" font-family="sans-serif" font-size="12" lengthAdjust="spacing" textLength="318" x="28" y="216.373">this.dispatchEvent("HdmlElementGeometryAdded")</text><ellipse cx="187" cy="259.2031" fill="none" rx="10" ry="10" style="stroke:#222222;stroke-width:1.5;"/><line style="stroke:#222222;stroke-width:2.5;" x1="180.8128" x2="193.1872" y1="253.0159" y2="265.3903"/><line style="stroke:#222222;stroke-width:2.5;" x1="193.1872" x2="180.8128" y1="253.0159" y2="265.3903"/><line style="stroke:#181818;stroke-width:1.0;" x1="187" x2="187" y1="67.2969" y2="87.2969"/><polygon fill="#181818" points="183,77.2969,187,87.2969,191,77.2969,187,81.2969" style="stroke:#181818;stroke-width:1.0;"/><line style="stroke:#181818;stroke-width:1.0;" x1="187" x2="187" y1="121.2656" y2="141.2656"/><polygon fill="#181818" points="183,131.2656,187,141.2656,191,131.2656,187,135.2656" style="stroke:#181818;stroke-width:1.0;"/><line style="stroke:#181818;stroke-width:1.0;" x1="187" x2="187" y1="175.2344" y2="195.2344"/><polygon fill="#181818" points="183,185.2344,187,195.2344,191,185.2344,187,189.2344" style="stroke:#181818;stroke-width:1.0;"/><line style="stroke:#181818;stroke-width:1.0;" x1="187" x2="187" y1="229.2031" y2="249.2031"/><polygon fill="#181818" points="183,239.2031,187,249.2031,191,239.2031,187,243.2031" style="stroke:#181818;stroke-width:1.0;"/><!--SRC=[LOqn2y9038Nt_efGb-joxcuTYkxYL8gSJMmFxkgHn4B_lKLxKAS7UVc-1w1U0q7z46NNwvbUaPIN9b2aIGzFpwAtDB13CbLH08WwrZK1Jl9EnBPjxJ7ZLrq2RUnzprgP1zWVkivKtK-ZenVBD25ndl_lq4jose_Dl6fDUS4OjetyNoCIbbzezNm0]--></g></svg>