<?xml version="1.0" encoding="us-ascii" standalone="no"?><svg xmlns="http://www.w3.org/2000/svg" xmlns:xlink="http://www.w3.org/1999/xlink" contentStyleType="text/css" height="226px" preserveAspectRatio="none" style="width:344px;height:226px;background:#FFFFFF;" version="1.1" viewBox="0 0 344 226" width="344px" zoomAndPan="magnify"><defs/><g><text fill="#000000" font-family="sans-serif" font-size="14" font-weight="bold" lengthAdjust="spacing" textLength="259" x="41" y="32.9951">AbstractStyleElement#upgrade()</text><ellipse cx="172" cy="57.2969" fill="#222222" rx="10" ry="10" style="stroke:#222222;stroke-width:1.0;"/><rect fill="#F1F1F1" height="33.9688" style="stroke:#181818;stroke-width:0.5;" width="132" x="106" y="87.2969"/><text fill="#000000" font-family="sans-serif" font-size="12" lengthAdjust="spacing" textLength="27" x="116" y="108.4355">this.</text><a href="./AbstractStyleElement_updateStyle.svg" target="_top" title="./AbstractStyleElement_updateStyle.svg" xlink:actuate="onRequest" xlink:href="./AbstractStyleElement_updateStyle.svg" xlink:show="new" xlink:title="./AbstractStyleElement_updateStyle.svg" xlink:type="simple"><text fill="#0000FF" font-family="sans-serif" font-size="12" lengthAdjust="spacing" text-decoration="underline" textLength="75" x="143" y="108.4355">updateStyle</text></a><text fill="#000000" font-family="sans-serif" font-size="12" lengthAdjust="spacing" textLength="10" x="218" y="108.4355">()</text><rect fill="#F1F1F1" height="33.9688" style="stroke:#181818;stroke-width:0.5;" width="322" x="11" y="141.2656"/><text fill="#000000" font-family="sans-serif" font-size="12" lengthAdjust="spacing" textLength="302" x="21" y="162.4043">this.dispatchEvent("HdmlStyleElementUpdated")</text><ellipse cx="172" cy="205.2344" fill="none" rx="10" ry="10" style="stroke:#222222;stroke-width:1.5;"/><line style="stroke:#222222;stroke-width:2.5;" x1="165.8128" x2="178.1872" y1="199.0472" y2="211.4216"/><line style="stroke:#222222;stroke-width:2.5;" x1="178.1872" x2="165.8128" y1="199.0472" y2="211.4216"/><line style="stroke:#181818;stroke-width:1.0;" x1="172" x2="172" y1="67.2969" y2="87.2969"/><polygon fill="#181818" points="168,77.2969,172,87.2969,176,77.2969,172,81.2969" style="stroke:#181818;stroke-width:1.0;"/><line style="stroke:#181818;stroke-width:1.0;" x1="172" x2="172" y1="121.2656" y2="141.2656"/><polygon fill="#181818" points="168,131.2656,172,141.2656,176,131.2656,172,135.2656" style="stroke:#181818;stroke-width:1.0;"/><line style="stroke:#181818;stroke-width:1.0;" x1="172" x2="172" y1="175.2344" y2="195.2344"/><polygon fill="#181818" points="168,185.2344,172,195.2344,176,185.2344,172,189.2344" style="stroke:#181818;stroke-width:1.0;"/><!--SRC=[RSmn2uCm50JWtL_ni4jSqjsjWz2zT99Gdhw71gA4v1JwxokPCdGwxk0x8dW4fSUKaNZ62z-WGz1DTzoEk2GMDLtJ46LmmfL4FLQVxJZQ-p_rEQ8mj4msdmjLtJdJkUf3V8wCUHtE2vhsALkehzv5IbkCxl83]--></g></svg>