<?xml version="1.0" encoding="us-ascii" standalone="no"?><svg xmlns="http://www.w3.org/2000/svg" xmlns:xlink="http://www.w3.org/1999/xlink" contentStyleType="text/css" height="280px" preserveAspectRatio="none" style="width:374px;height:280px;background:#FFFFFF;" version="1.1" viewBox="0 0 374 280" width="374px" zoomAndPan="magnify"><defs/><g><text fill="#000000" font-family="sans-serif" font-size="14" font-weight="bold" lengthAdjust="spacing" textLength="298" x="36.5" y="32.9951">AbstractGeometryElement#upgrade()</text><ellipse cx="187" cy="57.2969" fill="#222222" rx="10" ry="10" style="stroke:#222222;stroke-width:1.0;"/><rect fill="#F1F1F1" height="33.9688" style="stroke:#181818;stroke-width:0.5;" width="123" x="125.5" y="87.2969"/><text fill="#000000" font-family="sans-serif" font-size="12" lengthAdjust="spacing" textLength="40" x="135.5" y="108.4355">super.</text><a href="./AbstractStyleElement_upgrade.svg" target="_top" title="./AbstractStyleElement_upgrade.svg" xlink:actuate="onRequest" xlink:href="./AbstractStyleElement_upgrade.svg" xlink:show="new" xlink:title="./AbstractStyleElement_upgrade.svg" xlink:type="simple"><text fill="#0000FF" font-family="sans-serif" font-size="12" lengthAdjust="spacing" text-decoration="underline" textLength="53" x="175.5" y="108.4355">upgrade</text></a><text fill="#000000" font-family="sans-serif" font-size="12" lengthAdjust="spacing" textLength="10" x="228.5" y="108.4355">()</text><rect fill="#F1F1F1" height="33.9688" style="stroke:#181818;stroke-width:0.5;" width="162" x="106" y="141.2656"/><text fill="#000000" font-family="sans-serif" font-size="12" lengthAdjust="spacing" textLength="142" x="116" y="162.4043">this.updateGeometry()</text><rect fill="#F1F1F1" height="33.9688" style="stroke:#181818;stroke-width:0.5;" width="352" x="11" y="195.2344"/><text fill="#000000" font-family="sans-serif" font-size="12" lengthAdjust="spacing" textLength="332" x="21" y="216.373">this.dispatchEvent("HdmlElementGeometryUpdated")</text><ellipse cx="187" cy="259.2031" fill="none" rx="10" ry="10" style="stroke:#222222;stroke-width:1.5;"/><line style="stroke:#222222;stroke-width:2.5;" x1="180.8128" x2="193.1872" y1="253.0159" y2="265.3903"/><line style="stroke:#222222;stroke-width:2.5;" x1="193.1872" x2="180.8128" y1="253.0159" y2="265.3903"/><line style="stroke:#181818;stroke-width:1.0;" x1="187" x2="187" y1="67.2969" y2="87.2969"/><polygon fill="#181818" points="183,77.2969,187,87.2969,191,77.2969,187,81.2969" style="stroke:#181818;stroke-width:1.0;"/><line style="stroke:#181818;stroke-width:1.0;" x1="187" x2="187" y1="121.2656" y2="141.2656"/><polygon fill="#181818" points="183,131.2656,187,141.2656,191,131.2656,187,135.2656" style="stroke:#181818;stroke-width:1.0;"/><line style="stroke:#181818;stroke-width:1.0;" x1="187" x2="187" y1="175.2344" y2="195.2344"/><polygon fill="#181818" points="183,185.2344,187,195.2344,191,185.2344,187,189.2344" style="stroke:#181818;stroke-width:1.0;"/><line style="stroke:#181818;stroke-width:1.0;" x1="187" x2="187" y1="229.2031" y2="249.2031"/><polygon fill="#181818" points="183,239.2031,187,249.2031,191,239.2031,187,243.2031" style="stroke:#181818;stroke-width:1.0;"/><!--SRC=[LSqn2iCm30NGFQSGwU8ixjwjGsZtqYcOuaOYCTYfiUH0Rj-GsaCd2VJV5u0uyGJNDqkoezpe4qZIrdiAjCWfnobP9DKr3G2BJR9FW0ldI4aFWpvN-P3DKs6lmZIl4vJT6DMP7vRPiSuHhL3zztz3nz7AEFVhNgRQEmPVccl-UMXi3qOBVW40]--></g></svg>