<?xml version="1.0" encoding="us-ascii" standalone="no"?><svg xmlns="http://www.w3.org/2000/svg" xmlns:xlink="http://www.w3.org/1999/xlink" contentStyleType="text/css" height="388px" preserveAspectRatio="none" style="width:438px;height:388px;background:#FFFFFF;" version="1.1" viewBox="0 0 438 388" width="438px" zoomAndPan="magnify"><defs/><g><text fill="#000000" font-family="sans-serif" font-size="14" font-weight="bold" lengthAdjust="spacing" textLength="395" x="20" y="32.9951">AbstractStyleMapperElement#getGeometryStyle()</text><ellipse cx="218" cy="57.2969" fill="#222222" rx="10" ry="10" style="stroke:#222222;stroke-width:1.0;"/><rect fill="#F1F1F1" height="33.9688" style="stroke:#181818;stroke-width:0.5;" width="199" x="118.5" y="87.2969"/><text fill="#000000" font-family="sans-serif" font-size="12" lengthAdjust="spacing" textLength="179" x="128.5" y="108.4355">default = getSvgStateStyle()</text><rect fill="#F1F1F1" height="33.9688" style="stroke:#181818;stroke-width:0.5;" width="239" x="98.5" y="141.2656"/><text fill="#000000" font-family="sans-serif" font-size="12" lengthAdjust="spacing" textLength="219" x="108.5" y="162.4043">active = getSvgStateStyle("active")</text><rect fill="#F1F1F1" height="33.9688" style="stroke:#181818;stroke-width:0.5;" width="233" x="101.5" y="195.2344"/><text fill="#000000" font-family="sans-serif" font-size="12" lengthAdjust="spacing" textLength="213" x="111.5" y="216.373">focus = getSvgStateStyle("focus")</text><rect fill="#F1F1F1" height="33.9688" style="stroke:#181818;stroke-width:0.5;" width="235" x="100.5" y="249.2031"/><text fill="#000000" font-family="sans-serif" font-size="12" lengthAdjust="spacing" textLength="215" x="110.5" y="270.3418">hover = getSvgStateStyle("hover")</text><polygon fill="#F1F1F1" points="102.5,303.1719,343.5,303.1719,333.5,337.1406,92.5,337.1406" style="stroke:#181818;stroke-width:0.5;"/><text fill="#000000" font-family="sans-serif" font-size="12" lengthAdjust="spacing" textLength="227" x="102.5" y="324.3105">return [default, active, focus, hover]</text><ellipse cx="218" cy="367.1406" fill="none" rx="10" ry="10" style="stroke:#222222;stroke-width:1.5;"/><line style="stroke:#222222;stroke-width:2.5;" x1="211.8128" x2="224.1872" y1="360.9534" y2="373.3278"/><line style="stroke:#222222;stroke-width:2.5;" x1="224.1872" x2="211.8128" y1="360.9534" y2="373.3278"/><line style="stroke:#181818;stroke-width:1.0;" x1="218" x2="218" y1="67.2969" y2="87.2969"/><polygon fill="#181818" points="214,77.2969,218,87.2969,222,77.2969,218,81.2969" style="stroke:#181818;stroke-width:1.0;"/><line style="stroke:#181818;stroke-width:1.0;" x1="218" x2="218" y1="121.2656" y2="141.2656"/><polygon fill="#181818" points="214,131.2656,218,141.2656,222,131.2656,218,135.2656" style="stroke:#181818;stroke-width:1.0;"/><line style="stroke:#181818;stroke-width:1.0;" x1="218" x2="218" y1="175.2344" y2="195.2344"/><polygon fill="#181818" points="214,185.2344,218,195.2344,222,185.2344,218,189.2344" style="stroke:#181818;stroke-width:1.0;"/><line style="stroke:#181818;stroke-width:1.0;" x1="218" x2="218" y1="229.2031" y2="249.2031"/><polygon fill="#181818" points="214,239.2031,218,249.2031,222,239.2031,218,243.2031" style="stroke:#181818;stroke-width:1.0;"/><line style="stroke:#181818;stroke-width:1.0;" x1="218" x2="218" y1="283.1719" y2="303.1719"/><polygon fill="#181818" points="214,293.1719,218,303.1719,222,293.1719,218,297.1719" style="stroke:#181818;stroke-width:1.0;"/><line style="stroke:#181818;stroke-width:1.0;" x1="218" x2="218" y1="337.1406" y2="357.1406"/><polygon fill="#181818" points="214,347.1406,218,357.1406,222,347.1406,218,351.1406" style="stroke:#181818;stroke-width:1.0;"/><!--SRC=[RSwx2eD048NXtgSuc2O18NqWHOgGAfMbM6pqQ8JrmdeKVFiigx6ockB_c1b0ZIpn-8nofb2gnV9jXe7kQTcoqwccNknRoYsXdYzH18moJdu2jvALcQnmXwVfNASouaRpbVZDpSmZ4Qyf_ikgBwRn48Qoksy_qnswK7RdgCbroBOd4wpt4eHr2OBESVMQNVa3]--></g></svg>