<?xml version="1.0" encoding="us-ascii" standalone="no"?><svg xmlns="http://www.w3.org/2000/svg" xmlns:xlink="http://www.w3.org/1999/xlink" contentStyleType="text/css" height="280px" preserveAspectRatio="none" style="width:291px;height:280px;background:#FFFFFF;" version="1.1" viewBox="0 0 291 280" width="291px" zoomAndPan="magnify"><defs/><g><text fill="#000000" font-family="sans-serif" font-size="14" font-weight="bold" lengthAdjust="spacing" textLength="231" x="28.5" y="32.9951">HdmlViewElement#upgrade()</text><ellipse cx="145.5" cy="57.2969" fill="#222222" rx="10" ry="10" style="stroke:#222222;stroke-width:1.0;"/><rect fill="#F1F1F1" height="33.9688" style="stroke:#181818;stroke-width:0.5;" width="123" x="84" y="87.2969"/><text fill="#000000" font-family="sans-serif" font-size="12" lengthAdjust="spacing" textLength="40" x="94" y="108.4355">super.</text><a href="./AbstractStyleElement_upgrade.svg" target="_top" title="./AbstractStyleElement_upgrade.svg" xlink:actuate="onRequest" xlink:href="./AbstractStyleElement_upgrade.svg" xlink:show="new" xlink:title="./AbstractStyleElement_upgrade.svg" xlink:type="simple"><text fill="#0000FF" font-family="sans-serif" font-size="12" lengthAdjust="spacing" text-decoration="underline" textLength="53" x="134" y="108.4355">upgrade</text></a><text fill="#000000" font-family="sans-serif" font-size="12" lengthAdjust="spacing" textLength="10" x="187" y="108.4355">()</text><rect fill="#F1F1F1" height="33.9688" style="stroke:#181818;stroke-width:0.5;" width="183" x="54" y="141.2656"/><text fill="#000000" font-family="sans-serif" font-size="12" lengthAdjust="spacing" textLength="163" x="64" y="162.4043">this._svg.updateViewBox()</text><rect fill="#F1F1F1" height="33.9688" style="stroke:#181818;stroke-width:0.5;" width="269" x="11" y="195.2344"/><text fill="#000000" font-family="sans-serif" font-size="12" lengthAdjust="spacing" textLength="249" x="21" y="216.373">this.dispatchEvent("HdmlViewUpdated")</text><ellipse cx="145.5" cy="259.2031" fill="none" rx="10" ry="10" style="stroke:#222222;stroke-width:1.5;"/><line style="stroke:#222222;stroke-width:2.5;" x1="139.3128" x2="151.6872" y1="253.0159" y2="265.3903"/><line style="stroke:#222222;stroke-width:2.5;" x1="151.6872" x2="139.3128" y1="253.0159" y2="265.3903"/><line style="stroke:#181818;stroke-width:1.0;" x1="145.5" x2="145.5" y1="67.2969" y2="87.2969"/><polygon fill="#181818" points="141.5,77.2969,145.5,87.2969,149.5,77.2969,145.5,81.2969" style="stroke:#181818;stroke-width:1.0;"/><line style="stroke:#181818;stroke-width:1.0;" x1="145.5" x2="145.5" y1="121.2656" y2="141.2656"/><polygon fill="#181818" points="141.5,131.2656,145.5,141.2656,149.5,131.2656,145.5,135.2656" style="stroke:#181818;stroke-width:1.0;"/><line style="stroke:#181818;stroke-width:1.0;" x1="145.5" x2="145.5" y1="175.2344" y2="195.2344"/><polygon fill="#181818" points="141.5,185.2344,145.5,195.2344,149.5,185.2344,145.5,189.2344" style="stroke:#181818;stroke-width:1.0;"/><line style="stroke:#181818;stroke-width:1.0;" x1="145.5" x2="145.5" y1="229.2031" y2="249.2031"/><polygon fill="#181818" points="141.5,239.2031,145.5,249.2031,149.5,239.2031,145.5,243.2031" style="stroke:#181818;stroke-width:1.0;"/><!--SRC=[LOun3i8m34Ntdi8gIxg4dGsaIko8BbLKXTfg8wKbYfq2jwUKC33vI-y_sm3Yn1ESSVADeqVjQQ9PTYaCqIAfgYW0M6oKTG8SE0MAkctr_dXZYRQNYxmyPQtBckPbW9oDKPNvoZ8wrjtAT0feXJu7J_VdFqV7mKe_rikwK9M_nwwRWUNMfHdV]--></g></svg>