<?xml version="1.0" encoding="us-ascii" standalone="no"?><svg xmlns="http://www.w3.org/2000/svg" xmlns:xlink="http://www.w3.org/1999/xlink" contentStyleType="text/css" height="236px" preserveAspectRatio="none" style="width:396px;height:236px;background:#FFFFFF;" version="1.1" viewBox="0 0 396 236" width="396px" zoomAndPan="magnify"><defs/><g><text fill="#000000" font-family="sans-serif" font-size="14" font-weight="bold" lengthAdjust="spacing" textLength="302" x="45.5" y="32.9951">AbstractStyleElement#shouldUpdate()</text><ellipse cx="168" cy="57.2969" fill="#222222" rx="10" ry="10" style="stroke:#222222;stroke-width:1.0;"/><polygon fill="#F1F1F1" points="86.5,87.2969,249.5,87.2969,261.5,99.2969,249.5,111.2969,86.5,111.2969,74.5,99.2969,86.5,87.2969" style="stroke:#181818;stroke-width:0.5;"/><text fill="#000000" font-family="sans-serif" font-size="11" lengthAdjust="spacing" textLength="163" x="86.5" y="103.105">this.min || this.max changed</text><text fill="#000000" font-family="sans-serif" font-size="11" lengthAdjust="spacing" textLength="20" x="54.5" y="96.7026">yes</text><text fill="#000000" font-family="sans-serif" font-size="11" lengthAdjust="spacing" textLength="14" x="261.5" y="96.7026">no</text><polygon fill="#F1F1F1" points="30,121.2969,109,121.2969,99,155.2656,20,155.2656" style="stroke:#181818;stroke-width:0.5;"/><text fill="#000000" font-family="sans-serif" font-size="12" lengthAdjust="spacing" textLength="69" x="30" y="142.4355">return true</text><polygon fill="#F1F1F1" points="179,121.2969,374,121.2969,364,155.2656,169,155.2656" style="stroke:#181818;stroke-width:0.5;"/><text fill="#000000" font-family="sans-serif" font-size="12" lengthAdjust="spacing" textLength="83" x="179" y="142.4355">return super.</text><a href="./AbstractStyleElement_shouldUpdate.svg" target="_top" title="./AbstractStyleElement_shouldUpdate.svg" xlink:actuate="onRequest" xlink:href="./AbstractStyleElement_shouldUpdate.svg" xlink:show="new" xlink:title="./AbstractStyleElement_shouldUpdate.svg" xlink:type="simple"><text fill="#0000FF" font-family="sans-serif" font-size="12" lengthAdjust="spacing" text-decoration="underline" textLength="88" x="262" y="142.4355">shouldUpdate</text></a><text fill="#000000" font-family="sans-serif" font-size="12" lengthAdjust="spacing" textLength="10" x="350" y="142.4355">()</text><polygon fill="#F1F1F1" points="168,161.2656,180,173.2656,168,185.2656,156,173.2656,168,161.2656" style="stroke:#181818;stroke-width:0.5;"/><ellipse cx="168" cy="215.2656" fill="none" rx="10" ry="10" style="stroke:#222222;stroke-width:1.5;"/><line style="stroke:#222222;stroke-width:2.5;" x1="161.8128" x2="174.1872" y1="209.0784" y2="221.4528"/><line style="stroke:#222222;stroke-width:2.5;" x1="174.1872" x2="161.8128" y1="209.0784" y2="221.4528"/><line style="stroke:#181818;stroke-width:1.0;" x1="74.5" x2="64.5" y1="99.2969" y2="99.2969"/><line style="stroke:#181818;stroke-width:1.0;" x1="64.5" x2="64.5" y1="99.2969" y2="121.2969"/><polygon fill="#181818" points="60.5,111.2969,64.5,121.2969,68.5,111.2969,64.5,115.2969" style="stroke:#181818;stroke-width:1.0;"/><line style="stroke:#181818;stroke-width:1.0;" x1="261.5" x2="271.5" y1="99.2969" y2="99.2969"/><line style="stroke:#181818;stroke-width:1.0;" x1="271.5" x2="271.5" y1="99.2969" y2="121.2969"/><polygon fill="#181818" points="267.5,111.2969,271.5,121.2969,275.5,111.2969,271.5,115.2969" style="stroke:#181818;stroke-width:1.0;"/><line style="stroke:#181818;stroke-width:1.0;" x1="64.5" x2="64.5" y1="155.2656" y2="173.2656"/><line style="stroke:#181818;stroke-width:1.0;" x1="64.5" x2="156" y1="173.2656" y2="173.2656"/><polygon fill="#181818" points="146,169.2656,156,173.2656,146,177.2656,150,173.2656" style="stroke:#181818;stroke-width:1.0;"/><line style="stroke:#181818;stroke-width:1.0;" x1="271.5" x2="271.5" y1="155.2656" y2="173.2656"/><line style="stroke:#181818;stroke-width:1.0;" x1="271.5" x2="180" y1="173.2656" y2="173.2656"/><polygon fill="#181818" points="190,169.2656,180,173.2656,190,177.2656,186,173.2656" style="stroke:#181818;stroke-width:1.0;"/><line style="stroke:#181818;stroke-width:1.0;" x1="168" x2="168" y1="67.2969" y2="87.2969"/><polygon fill="#181818" points="164,77.2969,168,87.2969,172,77.2969,168,81.2969" style="stroke:#181818;stroke-width:1.0;"/><line style="stroke:#181818;stroke-width:1.0;" x1="168" x2="168" y1="185.2656" y2="205.2656"/><polygon fill="#181818" points="164,195.2656,168,205.2656,172,195.2656,168,199.2656" style="stroke:#181818;stroke-width:1.0;"/><!--SRC=[ROwn2eCm68Htd-AWIxB4lLk7Fa7f959Iywk162N_7wdWmrTi1ocTxlYuEmuGBu5mUR8asyXDba3NG0D5EN4_vk3kaxD2IXS5m6AJR0hu5afwpsRm4UkAZxSlDBsD7Jcz4OfG2x7U2y0vaUGK8IbJkJCAJ51n_4rmdYYPgZBblr-Fuo_3SuSZg6kbyPsFphV5hcy0]--></g></svg>