<?xml version="1.0" encoding="us-ascii" standalone="no"?><svg xmlns="http://www.w3.org/2000/svg" xmlns:xlink="http://www.w3.org/1999/xlink" contentStyleType="text/css" height="664px" preserveAspectRatio="none" style="width:269px;height:664px;background:#FFFFFF;" version="1.1" viewBox="0 0 269 664" width="269px" zoomAndPan="magnify"><defs/><g><text fill="#000000" font-family="sans-serif" font-size="14" font-weight="bold" lengthAdjust="spacing" textLength="226" x="20" y="32.9951">LitElement#performUpdate()</text><ellipse cx="134.5" cy="57.2969" fill="#222222" rx="10" ry="10" style="stroke:#222222;stroke-width:1.0;"/><rect fill="none" height="243.6367" style="stroke:#000000;stroke-width:1.5;" width="179" x="54" y="77.2969"/><path d="M114,77.2969 L114,86.5938 L104,96.5938 L54,96.5938 " fill="none" style="stroke:#000000;stroke-width:1.5;"/><text fill="#000000" font-family="sans-serif" font-size="14" lengthAdjust="spacing" textLength="50" x="57" y="91.292">Update</text><rect fill="#F1F1F1" height="33.9688" style="stroke:#181818;stroke-width:0.5;" width="121" x="74" y="161.9961"/><text fill="#000000" font-family="sans-serif" font-size="12" lengthAdjust="spacing" textLength="101" x="84" y="183.1348">this.willUpdate()</text><rect fill="#F1F1F1" height="33.9688" style="stroke:#181818;stroke-width:0.5;" width="106" x="81.5" y="230.9648"/><a href="./LitElement_update.svg" target="_top" title="./LitElement_update.svg" xlink:actuate="onRequest" xlink:href="./LitElement_update.svg" xlink:show="new" xlink:title="./LitElement_update.svg" xlink:type="simple"><text fill="#0000FF" font-family="sans-serif" font-size="12" lengthAdjust="spacing" text-decoration="underline" textLength="82" x="91.5" y="252.1035">this.update()</text></a><text fill="#000000" font-family="sans-serif" font-size="12" lengthAdjust="spacing" textLength="4" x="173.5" y="252.1035">&#160;</text><polygon fill="#F1F1F1" points="79,113.5938,190,113.5938,202,125.5938,190,137.5938,79,137.5938,67,125.5938,79,113.5938" style="stroke:#181818;stroke-width:0.5;"/><text fill="#000000" font-family="sans-serif" font-size="11" lengthAdjust="spacing" textLength="20" x="138.5" y="147.8042">yes</text><text fill="#000000" font-family="sans-serif" font-size="11" lengthAdjust="spacing" textLength="111" x="79" y="129.4019">this.shouldUpdate()</text><polygon fill="#F1F1F1" points="134.5,284.9336,146.5,296.9336,134.5,308.9336,122.5,296.9336,134.5,284.9336" style="stroke:#181818;stroke-width:0.5;"/><rect fill="none" height="282.6055" style="stroke:#000000;stroke-width:1.5;" width="207" x="31" y="330.9336"/><path d="M122,330.9336 L122,340.2305 L112,350.2305 L31,350.2305 " fill="none" style="stroke:#000000;stroke-width:1.5;"/><text fill="#000000" font-family="sans-serif" font-size="14" lengthAdjust="spacing" textLength="81" x="34" y="344.9287">PostUpdate</text><rect fill="#F1F1F1" height="33.9688" style="stroke:#181818;stroke-width:0.5;" width="135" x="67" y="415.6328"/><text fill="#000000" font-family="sans-serif" font-size="12" lengthAdjust="spacing" textLength="115" x="77" y="436.7715">this.firstUpdated()</text><polygon fill="#F1F1F1" points="86.5,367.2305,182.5,367.2305,194.5,379.2305,182.5,391.2305,86.5,391.2305,74.5,379.2305,86.5,367.2305" style="stroke:#181818;stroke-width:0.5;"/><text fill="#000000" font-family="sans-serif" font-size="11" lengthAdjust="spacing" textLength="20" x="138.5" y="401.4409">yes</text><text fill="#000000" font-family="sans-serif" font-size="11" lengthAdjust="spacing" textLength="96" x="86.5" y="383.0386">!this.hasUpdated</text><polygon fill="#F1F1F1" points="134.5,469.6016,146.5,481.6016,134.5,493.6016,122.5,481.6016,134.5,469.6016" style="stroke:#181818;stroke-width:0.5;"/><rect fill="#F1F1F1" height="33.9688" style="stroke:#181818;stroke-width:0.5;" width="110" x="79.5" y="513.6016"/><text fill="#000000" font-family="sans-serif" font-size="12" lengthAdjust="spacing" textLength="90" x="89.5" y="534.7402">this.updated()</text><rect fill="#F1F1F1" height="33.9688" style="stroke:#181818;stroke-width:0.5;" width="187" x="41" y="567.5703"/><a href="./LitElement_getUpdateComplete.svg" target="_top" title="./LitElement_getUpdateComplete.svg" xlink:actuate="onRequest" xlink:href="./LitElement_getUpdateComplete.svg" xlink:show="new" xlink:title="./LitElement_getUpdateComplete.svg" xlink:type="simple"><text fill="#0000FF" font-family="sans-serif" font-size="12" lengthAdjust="spacing" text-decoration="underline" textLength="163" x="51" y="588.709">this.getUpdateComplete()</text></a><text fill="#000000" font-family="sans-serif" font-size="12" lengthAdjust="spacing" textLength="4" x="214" y="588.709">&#160;</text><ellipse cx="134.5" cy="643.5391" fill="none" rx="10" ry="10" style="stroke:#222222;stroke-width:1.5;"/><line style="stroke:#222222;stroke-width:2.5;" x1="128.3128" x2="140.6872" y1="637.3519" y2="649.7262"/><line style="stroke:#222222;stroke-width:2.5;" x1="140.6872" x2="128.3128" y1="637.3519" y2="649.7262"/><line style="stroke:#181818;stroke-width:1.0;" x1="134.5" x2="134.5" y1="195.9648" y2="230.9648"/><polygon fill="#181818" points="130.5,220.9648,134.5,230.9648,138.5,220.9648,134.5,224.9648" style="stroke:#181818;stroke-width:1.0;"/><line style="stroke:#181818;stroke-width:1.0;" x1="134.5" x2="134.5" y1="137.5938" y2="161.9961"/><polygon fill="#181818" points="130.5,151.9961,134.5,161.9961,138.5,151.9961,134.5,155.9961" style="stroke:#181818;stroke-width:1.0;"/><line style="stroke:#181818;stroke-width:1.0;" x1="202" x2="214" y1="125.5938" y2="125.5938"/><polygon fill="#181818" points="210,203.4648,214,213.4648,218,203.4648,214,207.4648" style="stroke:#181818;stroke-width:1.0;"/><line style="stroke:#181818;stroke-width:1.0;" x1="214" x2="214" y1="125.5938" y2="296.9336"/><line style="stroke:#181818;stroke-width:1.0;" x1="214" x2="146.5" y1="296.9336" y2="296.9336"/><polygon fill="#181818" points="156.5,292.9336,146.5,296.9336,156.5,300.9336,152.5,296.9336" style="stroke:#181818;stroke-width:1.0;"/><line style="stroke:#181818;stroke-width:1.0;" x1="134.5" x2="134.5" y1="264.9336" y2="284.9336"/><polygon fill="#181818" points="130.5,274.9336,134.5,284.9336,138.5,274.9336,134.5,278.9336" style="stroke:#181818;stroke-width:1.0;"/><line style="stroke:#181818;stroke-width:1.0;" x1="134.5" x2="134.5" y1="67.2969" y2="113.5938"/><polygon fill="#181818" points="130.5,103.5938,134.5,113.5938,138.5,103.5938,134.5,107.5938" style="stroke:#181818;stroke-width:1.0;"/><line style="stroke:#181818;stroke-width:1.0;" x1="134.5" x2="134.5" y1="391.2305" y2="415.6328"/><polygon fill="#181818" points="130.5,405.6328,134.5,415.6328,138.5,405.6328,134.5,409.6328" style="stroke:#181818;stroke-width:1.0;"/><line style="stroke:#181818;stroke-width:1.0;" x1="194.5" x2="212" y1="379.2305" y2="379.2305"/><polygon fill="#181818" points="208,422.6172,212,432.6172,216,422.6172,212,426.6172" style="stroke:#181818;stroke-width:1.0;"/><line style="stroke:#181818;stroke-width:1.0;" x1="212" x2="212" y1="379.2305" y2="481.6016"/><line style="stroke:#181818;stroke-width:1.0;" x1="212" x2="146.5" y1="481.6016" y2="481.6016"/><polygon fill="#181818" points="156.5,477.6016,146.5,481.6016,156.5,485.6016,152.5,481.6016" style="stroke:#181818;stroke-width:1.0;"/><line style="stroke:#181818;stroke-width:1.0;" x1="134.5" x2="134.5" y1="449.6016" y2="469.6016"/><polygon fill="#181818" points="130.5,459.6016,134.5,469.6016,138.5,459.6016,134.5,463.6016" style="stroke:#181818;stroke-width:1.0;"/><line style="stroke:#181818;stroke-width:1.0;" x1="134.5" x2="134.5" y1="493.6016" y2="513.6016"/><polygon fill="#181818" points="130.5,503.6016,134.5,513.6016,138.5,503.6016,134.5,507.6016" style="stroke:#181818;stroke-width:1.0;"/><line style="stroke:#181818;stroke-width:1.0;" x1="134.5" x2="134.5" y1="547.5703" y2="567.5703"/><polygon fill="#181818" points="130.5,557.5703,134.5,567.5703,138.5,557.5703,134.5,561.5703" style="stroke:#181818;stroke-width:1.0;"/><line style="stroke:#181818;stroke-width:1.0;" x1="134.5" x2="134.5" y1="308.9336" y2="367.2305"/><polygon fill="#181818" points="130.5,357.2305,134.5,367.2305,138.5,357.2305,134.5,361.2305" style="stroke:#181818;stroke-width:1.0;"/><line style="stroke:#181818;stroke-width:1.0;" x1="134.5" x2="134.5" y1="601.5391" y2="633.5391"/><polygon fill="#181818" points="130.5,623.5391,134.5,633.5391,138.5,623.5391,134.5,627.5391" style="stroke:#181818;stroke-width:1.0;"/><!--SRC=[VOyn3u8m48LtViKpBh3WxchS75oS234aFMYJGflsgl7VguK6XCJjslUzk_S0Lgm95yLdJJqDlBVaMkFwcnKDKrva6U2vSVmTWCwPO36AyGDGBNAMofTUcg15CXPWIGFo5_bY8e5Z19zAwuJLirPLvM4ESW-HAFsZGtI5vAYHJ3G8rMRJD6PRnhmQpvkekxXCDdvKn9-ShN9fWPYJpaSJ5zR8kaf7qvgJwQscPQkDj2ZuK-hpU0C0]--></g></svg>