<?xml version="1.0" encoding="us-ascii" standalone="no"?><svg xmlns="http://www.w3.org/2000/svg" xmlns:xlink="http://www.w3.org/1999/xlink" contentStyleType="text/css" height="240px" preserveAspectRatio="none" style="width:267px;height:240px;background:#FFFFFF;" version="1.1" viewBox="0 0 267 240" width="267px" zoomAndPan="magnify"><defs/><g><text fill="#000000" font-family="sans-serif" font-size="14" font-weight="bold" lengthAdjust="spacing" textLength="224" x="20" y="32.9951">LitElement#requestUpdate()</text><ellipse cx="133.5" cy="57.2969" fill="#222222" rx="10" ry="10" style="stroke:#222222;stroke-width:1.0;"/><rect fill="#F1F1F1" height="47.9375" style="stroke:#181818;stroke-width:0.5;" width="206" x="30.5" y="87.2969"/><line style="stroke:#181818;stroke-width:0.5;" x1="35.5" x2="35.5" y1="87.2969" y2="135.2344"/><line style="stroke:#181818;stroke-width:0.5;" x1="231.5" x2="231.5" y1="87.2969" y2="135.2344"/><text fill="#000000" font-family="sans-serif" font-size="12" lengthAdjust="spacing" textLength="186" x="40.5" y="108.4355">Adding request to the queue,</text><text fill="#000000" font-family="sans-serif" font-size="12" lengthAdjust="spacing" textLength="100" x="40.5" y="122.4043">async dequeue.</text><rect fill="#F1F1F1" height="33.9688" style="stroke:#181818;stroke-width:0.5;" width="156" x="55.5" y="155.2344"/><a href="./LitElement_performUpdate.svg" target="_top" title="./LitElement_performUpdate.svg" xlink:actuate="onRequest" xlink:href="./LitElement_performUpdate.svg" xlink:show="new" xlink:title="./LitElement_performUpdate.svg" xlink:type="simple"><text fill="#0000FF" font-family="sans-serif" font-size="12" lengthAdjust="spacing" text-decoration="underline" textLength="132" x="65.5" y="176.373">this.performUpdate()</text></a><text fill="#000000" font-family="sans-serif" font-size="12" lengthAdjust="spacing" textLength="4" x="197.5" y="176.373">&#160;</text><ellipse cx="133.5" cy="219.2031" fill="none" rx="10" ry="10" style="stroke:#222222;stroke-width:1.5;"/><line style="stroke:#222222;stroke-width:2.5;" x1="127.3128" x2="139.6872" y1="213.0159" y2="225.3903"/><line style="stroke:#222222;stroke-width:2.5;" x1="139.6872" x2="127.3128" y1="213.0159" y2="225.3903"/><line style="stroke:#181818;stroke-width:1.0;" x1="133.5" x2="133.5" y1="67.2969" y2="87.2969"/><polygon fill="#181818" points="129.5,77.2969,133.5,87.2969,137.5,77.2969,133.5,81.2969" style="stroke:#181818;stroke-width:1.0;"/><line style="stroke:#181818;stroke-width:1.0;" x1="133.5" x2="133.5" y1="135.2344" y2="155.2344"/><polygon fill="#181818" points="129.5,145.2344,133.5,155.2344,137.5,145.2344,133.5,149.2344" style="stroke:#181818;stroke-width:1.0;"/><line style="stroke:#181818;stroke-width:1.0;" x1="133.5" x2="133.5" y1="189.2031" y2="209.2031"/><polygon fill="#181818" points="129.5,199.2031,133.5,209.2031,137.5,199.2031,133.5,203.2031" style="stroke:#181818;stroke-width:1.0;"/><!--SRC=[LOon2i9044JxVCM0JG9ozdOMThPMyP337UD1iebt6q7mupsC85R36sOUOD5wuX1jttEWsYhnFZFRSP9Wh9kg0hA5P2M1xKuaQeVl23R2RaI1cUkJXlpK2uGVTg_bqhPky_EV9wRhc8R5x_AZAuQOtLzTDzx3bpjLtW00]--></g></svg>