<?xml version="1.0" encoding="us-ascii" standalone="no"?><svg xmlns="http://www.w3.org/2000/svg" xmlns:xlink="http://www.w3.org/1999/xlink" contentStyleType="text/css" height="226px" preserveAspectRatio="none" style="width:280px;height:226px;background:#FFFFFF;" version="1.1" viewBox="0 0 280 226" width="280px" zoomAndPan="magnify"><defs/><g><text fill="#000000" font-family="sans-serif" font-size="14" font-weight="bold" lengthAdjust="spacing" textLength="161" x="58" y="32.9951">LitElement#update()</text><ellipse cx="140" cy="57.2969" fill="#222222" rx="10" ry="10" style="stroke:#222222;stroke-width:1.0;"/><rect fill="#F1F1F1" height="33.9688" style="stroke:#181818;stroke-width:0.5;" width="258" x="11" y="87.2969"/><text fill="#000000" font-family="sans-serif" font-size="12" lengthAdjust="spacing" textLength="238" x="21" y="108.4355">Reflects property values to attributes.</text><rect fill="#F1F1F1" height="33.9688" style="stroke:#181818;stroke-width:0.5;" width="99" x="90.5" y="141.2656"/><text fill="#000000" font-family="sans-serif" font-size="12" lengthAdjust="spacing" textLength="79" x="100.5" y="162.4043">this.render()</text><ellipse cx="140" cy="205.2344" fill="none" rx="10" ry="10" style="stroke:#222222;stroke-width:1.5;"/><line style="stroke:#222222;stroke-width:2.5;" x1="133.8128" x2="146.1872" y1="199.0472" y2="211.4216"/><line style="stroke:#222222;stroke-width:2.5;" x1="146.1872" x2="133.8128" y1="199.0472" y2="211.4216"/><line style="stroke:#181818;stroke-width:1.0;" x1="140" x2="140" y1="67.2969" y2="87.2969"/><polygon fill="#181818" points="136,77.2969,140,87.2969,144,77.2969,140,81.2969" style="stroke:#181818;stroke-width:1.0;"/><line style="stroke:#181818;stroke-width:1.0;" x1="140" x2="140" y1="121.2656" y2="141.2656"/><polygon fill="#181818" points="136,131.2656,140,141.2656,144,131.2656,140,135.2656" style="stroke:#181818;stroke-width:1.0;"/><line style="stroke:#181818;stroke-width:1.0;" x1="140" x2="140" y1="175.2344" y2="195.2344"/><polygon fill="#181818" points="136,185.2344,140,195.2344,144,185.2344,140,189.2344" style="stroke:#181818;stroke-width:1.0;"/><!--SRC=[9Oen2eH040HpNz5WeeaFC3UxwF8BLcrnOK-NcLx1twiOLL4KeAX4VAA6n3ytrINFGMpQgW9SmNGJwBzS4YSviksPfXD7I8KExGYInR68tltUMslqphZDjAPzsgqN]--></g></svg>