<?xml version="1.0" encoding="us-ascii" standalone="no"?><svg xmlns="http://www.w3.org/2000/svg" xmlns:xlink="http://www.w3.org/1999/xlink" contentStyleType="text/css" height="1488px" preserveAspectRatio="none" style="width:501px;height:1488px;background:#FFFFFF;" version="1.1" viewBox="0 0 501 1488" width="501px" zoomAndPan="magnify"><defs/><g><text fill="#000000" font-family="sans-serif" font-size="14" font-weight="bold" lengthAdjust="spacing" textLength="199" x="144" y="22.9951">@hdml/renderer package</text><!--cluster common--><g id="cluster_common"><path d="M29.5,43.2969 L154.5,43.2969 A3.75,3.75 0 0 1 157,45.7969 L164,65.5938 L470.5,65.5938 A2.5,2.5 0 0 1 473,68.0938 L473,458.7969 A2.5,2.5 0 0 1 470.5,461.2969 L29.5,461.2969 A2.5,2.5 0 0 1 27,458.7969 L27,45.7969 A2.5,2.5 0 0 1 29.5,43.2969 " fill="none" style="stroke:#000000;stroke-width:1.5;"/><line style="stroke:#000000;stroke-width:1.5;" x1="27" x2="164" y1="65.5938" y2="65.5938"/><text fill="#000000" font-family="sans-serif" font-size="14" font-weight="bold" lengthAdjust="spacing" textLength="124" x="31" y="58.292">@hdml/common</text></g><!--cluster renderer--><g id="cluster_renderer"><path d="M8.5,485.2969 L137.5,485.2969 A3.75,3.75 0 0 1 140,487.7969 L147,507.5938 L491.5,507.5938 A2.5,2.5 0 0 1 494,510.0938 L494,1478.7969 A2.5,2.5 0 0 1 491.5,1481.2969 L8.5,1481.2969 A2.5,2.5 0 0 1 6,1478.7969 L6,487.7969 A2.5,2.5 0 0 1 8.5,485.2969 " fill="none" style="stroke:#000000;stroke-width:1.5;"/><line style="stroke:#000000;stroke-width:1.5;" x1="6" x2="147" y1="507.5938" y2="507.5938"/><text fill="#000000" font-family="sans-serif" font-size="14" font-weight="bold" lengthAdjust="spacing" textLength="128" x="10" y="500.292">@hdml/renderer</text></g><!--class LitElement--><a href="https://lit.dev/docs/api/LitElement/" target="_top" title="https://lit.dev/docs/api/LitElement/" xlink:actuate="onRequest" xlink:href="https://lit.dev/docs/api/LitElement/" xlink:show="new" xlink:title="https://lit.dev/docs/api/LitElement/" xlink:type="simple"><g id="elem_LitElement"><rect codeLine="4" fill="#F1F1F1" height="243.2656" id="LitElement" rx="2.5" ry="2.5" style="stroke:#181818;stroke-width:0.5;" width="414" x="43" y="78.2969"/><ellipse cx="209.75" cy="94.2969" fill="#ADD1B2" rx="11" ry="11" style="stroke:#181818;stroke-width:1.0;"/><path d="M212.7188,99.9375 Q212.1406,100.2344 211.5,100.375 Q210.8594,100.5313 210.1563,100.5313 Q207.6563,100.5313 206.3281,98.8906 Q205.0156,97.2344 205.0156,94.1094 Q205.0156,90.9844 206.3281,89.3281 Q207.6563,87.6719 210.1563,87.6719 Q210.8594,87.6719 211.5,87.8281 Q212.1563,87.9844 212.7188,88.2813 L212.7188,91 Q212.0938,90.4219 211.5,90.1563 Q210.9063,89.875 210.2813,89.875 Q208.9375,89.875 208.25,90.9531 Q207.5625,92.0156 207.5625,94.1094 Q207.5625,96.2031 208.25,97.2813 Q208.9375,98.3438 210.2813,98.3438 Q210.9063,98.3438 211.5,98.0781 Q212.0938,97.7969 212.7188,97.2188 L212.7188,99.9375 Z " fill="#000000"/><text fill="#000000" font-family="sans-serif" font-size="14" lengthAdjust="spacing" textLength="72" x="230.25" y="99.1436">LitElement</text><line style="stroke:#181818;stroke-width:0.5;" x1="44" x2="456" y1="110.2969" y2="110.2969"/><ellipse cx="54" cy="123.9453" fill="#84BE84" rx="3" ry="3" style="stroke:#038048;stroke-width:1.0;"/><a href="./LitElement_constructor.svg" target="_top" title="./LitElement_constructor.svg" xlink:actuate="onRequest" xlink:href="./LitElement_constructor.svg" xlink:show="new" xlink:title="./LitElement_constructor.svg" xlink:type="simple"><text fill="#0000FF" font-family="sans-serif" font-size="14" lengthAdjust="spacing" text-decoration="underline" textLength="80" x="63" y="127.292">constructor</text></a><text fill="#000000" font-family="sans-serif" font-size="14" lengthAdjust="spacing" textLength="91" x="143" y="127.292">(): LitElement</text><line style="stroke:#181818;stroke-width:1.0;stroke-dasharray:1.0,2.0;" x1="44" x2="456" y1="134.5938" y2="134.5938"/><ellipse cx="54" cy="148.2422" fill="#84BE84" rx="3" ry="3" style="stroke:#038048;stroke-width:1.0;"/><text fill="#000000" font-family="sans-serif" font-size="14" lengthAdjust="spacing" textLength="179" x="63" y="151.5889">connectedCallback(): void</text><ellipse cx="54" cy="164.5391" fill="#84BE84" rx="3" ry="3" style="stroke:#038048;stroke-width:1.0;"/><text fill="#000000" font-family="sans-serif" font-size="14" lengthAdjust="spacing" textLength="199" x="63" y="167.8857">disconnectedCallback(): void</text><line style="stroke:#181818;stroke-width:1.0;stroke-dasharray:1.0,2.0;" x1="44" x2="456" y1="175.1875" y2="175.1875"/><ellipse cx="54" cy="188.8359" fill="#84BE84" rx="3" ry="3" style="stroke:#038048;stroke-width:1.0;"/><a href="./LitElement_requestUpdate.svg" target="_top" title="./LitElement_requestUpdate.svg" xlink:actuate="onRequest" xlink:href="./LitElement_requestUpdate.svg" xlink:show="new" xlink:title="./LitElement_requestUpdate.svg" xlink:type="simple"><text fill="#0000FF" font-family="sans-serif" font-size="14" lengthAdjust="spacing" text-decoration="underline" textLength="104" x="63" y="192.1826">requestUpdate</text></a><text fill="#000000" font-family="sans-serif" font-size="14" lengthAdjust="spacing" textLength="47" x="167" y="192.1826">(): void</text><polygon fill="#FFFF44" points="54,200.1328,58,204.1328,54,208.1328,50,204.1328" style="stroke:#B38D22;stroke-width:1.0;"/><a href="./LitElement_performUpdate.svg" target="_top" title="./LitElement_performUpdate.svg" xlink:actuate="onRequest" xlink:href="./LitElement_performUpdate.svg" xlink:show="new" xlink:title="./LitElement_performUpdate.svg" xlink:type="simple"><text fill="#0000FF" font-family="sans-serif" font-size="14" lengthAdjust="spacing" text-decoration="underline" textLength="104" x="63" y="208.4795">performUpdate</text></a><text fill="#000000" font-family="sans-serif" font-size="14" lengthAdjust="spacing" textLength="47" x="167" y="208.4795">(): void</text><polygon fill="#FFFF44" points="54,216.4297,58,220.4297,54,224.4297,50,220.4297" style="stroke:#B38D22;stroke-width:1.0;"/><text fill="#000000" font-family="sans-serif" font-size="14" lengthAdjust="spacing" textLength="385" x="63" y="224.7764">shouldUpdate(props: Map&lt;string, unknown&gt;): boolean</text><polygon fill="#FFFF44" points="54,232.7266,58,236.7266,54,240.7266,50,236.7266" style="stroke:#B38D22;stroke-width:1.0;"/><text fill="#000000" font-family="sans-serif" font-size="14" lengthAdjust="spacing" textLength="274" x="63" y="241.0732">willUpdate(values: PropertyValues): void</text><polygon fill="#FFFF44" points="54,249.0234,58,253.0234,54,257.0234,50,253.0234" style="stroke:#B38D22;stroke-width:1.0;"/><a href="./LitElement_update.svg" target="_top" title="./LitElement_update.svg" xlink:actuate="onRequest" xlink:href="./LitElement_update.svg" xlink:show="new" xlink:title="./LitElement_update.svg" xlink:type="simple"><text fill="#0000FF" font-family="sans-serif" font-size="14" lengthAdjust="spacing" text-decoration="underline" textLength="49" x="63" y="257.3701">update</text></a><text fill="#000000" font-family="sans-serif" font-size="14" lengthAdjust="spacing" textLength="204" x="112" y="257.3701">(values: PropertyValues): void</text><line style="stroke:#181818;stroke-width:1.0;stroke-dasharray:1.0,2.0;" x1="44" x2="456" y1="264.6719" y2="264.6719"/><polygon fill="#FFFF44" points="54,273.3203,58,277.3203,54,281.3203,50,277.3203" style="stroke:#B38D22;stroke-width:1.0;"/><text fill="#000000" font-family="sans-serif" font-size="14" lengthAdjust="spacing" textLength="388" x="63" y="281.667">firstUpdated(props: Map&lt;PropertyKey, unknown&gt;): void</text><polygon fill="#FFFF44" points="54,289.6172,58,293.6172,54,297.6172,50,293.6172" style="stroke:#B38D22;stroke-width:1.0;"/><text fill="#000000" font-family="sans-serif" font-size="14" lengthAdjust="spacing" textLength="318" x="63" y="297.9639">updated(props: Map&lt;string, unknown&gt;): void</text><polygon fill="#FFFF44" points="54,305.9141,58,309.9141,54,313.9141,50,309.9141" style="stroke:#B38D22;stroke-width:1.0;"/><a href="./LitElement_getUpdateComplete.svg" target="_top" title="./LitElement_getUpdateComplete.svg" xlink:actuate="onRequest" xlink:href="./LitElement_getUpdateComplete.svg" xlink:show="new" xlink:title="./LitElement_getUpdateComplete.svg" xlink:type="simple"><text fill="#0000FF" font-family="sans-serif" font-size="14" lengthAdjust="spacing" text-decoration="underline" textLength="140" x="63" y="314.2607">getUpdateComplete</text></a><text fill="#000000" font-family="sans-serif" font-size="14" lengthAdjust="spacing" textLength="127" x="203" y="314.2607">(): Promise&lt;void&gt;</text></g></a><!--class UnifiedElement--><g id="elem_UnifiedElement"><rect codeLine="21" fill="#F1F1F1" height="64.2969" id="UnifiedElement" rx="2.5" ry="2.5" style="stroke:#181818;stroke-width:0.5;" width="136" x="182" y="381.2969"/><ellipse cx="197" cy="397.2969" fill="#ADD1B2" rx="11" ry="11" style="stroke:#181818;stroke-width:1.0;"/><path d="M199.9688,402.9375 Q199.3906,403.2344 198.75,403.375 Q198.1094,403.5313 197.4063,403.5313 Q194.9063,403.5313 193.5781,401.8906 Q192.2656,400.2344 192.2656,397.1094 Q192.2656,393.9844 193.5781,392.3281 Q194.9063,390.6719 197.4063,390.6719 Q198.1094,390.6719 198.75,390.8281 Q199.4063,390.9844 199.9688,391.2813 L199.9688,394 Q199.3438,393.4219 198.75,393.1563 Q198.1563,392.875 197.5313,392.875 Q196.1875,392.875 195.5,393.9531 Q194.8125,395.0156 194.8125,397.1094 Q194.8125,399.2031 195.5,400.2813 Q196.1875,401.3438 197.5313,401.3438 Q198.1563,401.3438 198.75,401.0781 Q199.3438,400.7969 199.9688,400.2188 L199.9688,402.9375 Z " fill="#000000"/><text fill="#000000" font-family="sans-serif" font-size="14" lengthAdjust="spacing" textLength="104" x="211" y="402.1436">UnifiedElement</text><line style="stroke:#181818;stroke-width:0.5;" x1="183" x2="317" y1="413.2969" y2="413.2969"/><line style="stroke:#181818;stroke-width:0.5;" x1="183" x2="317" y1="421.2969" y2="421.2969"/><ellipse cx="193" cy="434.9453" fill="#84BE84" rx="3" ry="3" style="stroke:#038048;stroke-width:1.0;"/><text fill="#000000" font-family="sans-serif" font-size="14" lengthAdjust="spacing" textLength="106" x="202" y="438.292">get uid(): string</text></g><!--class AbstractChartElement--><g id="elem_AbstractChartElement"><rect codeLine="167" fill="#F1F1F1" height="218.6719" id="AbstractChartElement" rx="2.5" ry="2.5" style="stroke:#181818;stroke-width:0.5;" width="411" x="44.5" y="520.2969"/><ellipse cx="170.25" cy="536.2969" fill="#A9DCDF" rx="11" ry="11" style="stroke:#181818;stroke-width:1.0;"/><path d="M170.3594,531.6406 L169.2031,536.7188 L171.5313,536.7188 L170.3594,531.6406 Z M168.875,529.4063 L171.8594,529.4063 L175.2188,541.7969 L172.7656,541.7969 L172,538.7344 L168.7188,538.7344 L167.9688,541.7969 L165.5313,541.7969 L168.875,529.4063 Z " fill="#000000"/><text fill="#000000" font-family="sans-serif" font-size="14" font-style="italic" lengthAdjust="spacing" textLength="151" x="190.75" y="541.1436">AbstractChartElement</text><line style="stroke:#181818;stroke-width:0.5;" x1="45.5" x2="454.5" y1="552.2969" y2="552.2969"/><rect fill="none" height="6" style="stroke:#C82930;stroke-width:1.0;" width="6" x="52.5" y="562.9453"/><text fill="#000000" font-family="sans-serif" font-size="14" lengthAdjust="spacing" textLength="157" x="64.5" y="569.292">_forceUpdate: boolean</text><line style="stroke:#181818;stroke-width:1.0;stroke-dasharray:1.0,2.0;" x1="45.5" x2="454.5" y1="576.5938" y2="576.5938"/><ellipse cx="55.5" cy="590.2422" fill="#84BE84" rx="3" ry="3" style="stroke:#038048;stroke-width:1.0;"/><a href="./AbstractChartElement_forceUpdate.svg" target="_top" title="./AbstractChartElement_forceUpdate.svg" xlink:actuate="onRequest" xlink:href="./AbstractChartElement_forceUpdate.svg" xlink:show="new" xlink:title="./AbstractChartElement_forceUpdate.svg" xlink:type="simple"><text fill="#0000FF" font-family="sans-serif" font-size="14" lengthAdjust="spacing" text-decoration="underline" textLength="85" x="64.5" y="593.5889">forceUpdate</text></a><text fill="#000000" font-family="sans-serif" font-size="14" lengthAdjust="spacing" textLength="47" x="149.5" y="593.5889">(): void</text><polygon fill="#FFFF44" points="55.5,601.5391,59.5,605.5391,55.5,609.5391,51.5,605.5391" style="stroke:#B38D22;stroke-width:1.0;"/><a href="./AbstractChartElement_shouldUpdate.svg" target="_top" title="./AbstractChartElement_shouldUpdate.svg" xlink:actuate="onRequest" xlink:href="./AbstractChartElement_shouldUpdate.svg" xlink:show="new" xlink:title="./AbstractChartElement_shouldUpdate.svg" xlink:type="simple"><text fill="#0000FF" font-family="sans-serif" font-size="14" lengthAdjust="spacing" text-decoration="underline" textLength="97" x="64.5" y="609.8857">shouldUpdate</text></a><text fill="#000000" font-family="sans-serif" font-size="14" lengthAdjust="spacing" textLength="288" x="161.5" y="609.8857">(props: Map&lt;string, unknown&gt;): boolean</text><line style="stroke:#181818;stroke-width:1.0;stroke-dasharray:1.0,2.0;" x1="45.5" x2="454.5" y1="617.1875" y2="617.1875"/><polygon fill="#FFFF44" points="55.5,625.8359,59.5,629.8359,55.5,633.8359,51.5,629.8359" style="stroke:#B38D22;stroke-width:1.0;"/><a href="./AbstractChartElement_firstUpdated.svg" target="_top" title="./AbstractChartElement_firstUpdated.svg" xlink:actuate="onRequest" xlink:href="./AbstractChartElement_firstUpdated.svg" xlink:show="new" xlink:title="./AbstractChartElement_firstUpdated.svg" xlink:type="simple"><text fill="#0000FF" font-family="sans-serif" font-size="14" lengthAdjust="spacing" text-decoration="underline" textLength="84" x="64.5" y="634.1826">firstUpdated</text></a><text fill="#000000" font-family="sans-serif" font-size="14" lengthAdjust="spacing" textLength="260" x="148.5" y="634.1826">(props: Map&lt;string, unknown&gt;): void</text><polygon fill="#FFFF44" points="55.5,642.1328,59.5,646.1328,55.5,650.1328,51.5,646.1328" style="stroke:#B38D22;stroke-width:1.0;"/><a href="./AbstractChartElement_updated.svg" target="_top" title="./AbstractChartElement_updated.svg" xlink:actuate="onRequest" xlink:href="./AbstractChartElement_updated.svg" xlink:show="new" xlink:title="./AbstractChartElement_updated.svg" xlink:type="simple"><text fill="#0000FF" font-family="sans-serif" font-size="14" lengthAdjust="spacing" text-decoration="underline" textLength="58" x="64.5" y="650.4795">updated</text></a><text fill="#000000" font-family="sans-serif" font-size="14" lengthAdjust="spacing" textLength="260" x="122.5" y="650.4795">(props: Map&lt;string, unknown&gt;): void</text><line style="stroke:#181818;stroke-width:1.0;stroke-dasharray:1.0,2.0;" x1="45.5" x2="454.5" y1="657.7813" y2="657.7813"/><polygon fill="#FFFF44" points="55.5,666.4297,59.5,670.4297,55.5,674.4297,51.5,670.4297" style="stroke:#B38D22;stroke-width:1.0;"/><text fill="#000000" font-family="sans-serif" font-size="14" font-style="italic" lengthAdjust="spacing" textLength="161" x="64.5" y="674.7764">renderGeometry(): void</text><polygon fill="#FFFF44" points="55.5,682.7266,59.5,686.7266,55.5,690.7266,51.5,686.7266" style="stroke:#B38D22;stroke-width:1.0;"/><text fill="#000000" font-family="sans-serif" font-size="14" font-style="italic" lengthAdjust="spacing" textLength="126" x="64.5" y="691.0732">renderStyle(): void</text><line style="stroke:#181818;stroke-width:1.0;stroke-dasharray:1.0,2.0;" x1="45.5" x2="454.5" y1="698.375" y2="698.375"/><polygon fill="#FFFF44" points="55.5,707.0234,59.5,711.0234,55.5,715.0234,51.5,711.0234" style="stroke:#B38D22;stroke-width:1.0;"/><text fill="#000000" font-family="sans-serif" font-size="14" font-style="italic" lengthAdjust="spacing" textLength="164" x="64.5" y="715.3701">updateGeometry(): void</text><polygon fill="#FFFF44" points="55.5,723.3203,59.5,727.3203,55.5,731.3203,51.5,727.3203" style="stroke:#B38D22;stroke-width:1.0;"/><text fill="#000000" font-family="sans-serif" font-size="14" font-style="italic" lengthAdjust="spacing" textLength="129" x="64.5" y="731.667">updateStyle(): void</text></g><!--class AbstractStyleElement--><g id="elem_AbstractStyleElement"><rect codeLine="184" fill="#F1F1F1" height="666.0938" id="AbstractStyleElement" rx="2.5" ry="2.5" style="stroke:#181818;stroke-width:0.5;" width="457" x="21.5" y="799.2969"/><ellipse cx="172.25" cy="815.2969" fill="#A9DCDF" rx="11" ry="11" style="stroke:#181818;stroke-width:1.0;"/><path d="M172.3594,810.6406 L171.2031,815.7188 L173.5313,815.7188 L172.3594,810.6406 Z M170.875,808.4063 L173.8594,808.4063 L177.2188,820.7969 L174.7656,820.7969 L174,817.7344 L170.7188,817.7344 L169.9688,820.7969 L167.5313,820.7969 L170.875,808.4063 Z " fill="#000000"/><text fill="#000000" font-family="sans-serif" font-size="14" font-style="italic" lengthAdjust="spacing" textLength="147" x="192.75" y="820.1436">AbstractStyleElement</text><line style="stroke:#181818;stroke-width:0.5;" x1="22.5" x2="477.5" y1="831.2969" y2="831.2969"/><rect fill="none" height="6" style="stroke:#C82930;stroke-width:1.0;" width="6" x="29.5" y="841.9453"/><text fill="#000000" font-family="sans-serif" font-size="14" lengthAdjust="spacing" textLength="281" x="41.5" y="848.292">_shadowStyle: CompletedCSSStyleSheet</text><rect fill="none" height="6" style="stroke:#C82930;stroke-width:1.0;" width="6" x="29.5" y="858.2422"/><text fill="#000000" font-family="sans-serif" font-size="14" lengthAdjust="spacing" textLength="293" x="41.5" y="864.5889">_geometryStyle: CompletedCSSStyleSheet</text><rect fill="none" height="6" style="stroke:#C82930;stroke-width:1.0;" width="6" x="29.5" y="874.5391"/><text fill="#000000" font-family="sans-serif" font-size="14" lengthAdjust="spacing" textLength="259" x="41.5" y="880.8857">_computedStyle: CSSStyleDeclaration</text><rect fill="none" height="6" style="stroke:#C82930;stroke-width:1.0;" width="6" x="29.5" y="890.8359"/><text fill="#000000" font-family="sans-serif" font-size="14" lengthAdjust="spacing" textLength="227" x="41.5" y="897.1826">_trackedStyleStore: TrackedStyle</text><rect fill="none" height="6" style="stroke:#C82930;stroke-width:1.0;" width="6" x="29.5" y="907.1328"/><text fill="#000000" font-family="sans-serif" font-size="14" lengthAdjust="spacing" textLength="234" x="41.5" y="913.4795">_trackedStyleCache: TrackedStyle</text><line style="stroke:#181818;stroke-width:1.0;stroke-dasharray:1.0,2.0;" x1="22.5" x2="477.5" y1="920.7813" y2="920.7813"/><polygon fill="none" points="32.5,929.4297,36.5,933.4297,32.5,937.4297,28.5,933.4297" style="stroke:#B38D22;stroke-width:1.0;"/><text fill="#000000" font-family="sans-serif" font-size="14" font-style="italic" lengthAdjust="spacing" textLength="141" x="41.5" y="937.7764">selector: null | string</text><line style="stroke:#181818;stroke-width:1.0;stroke-dasharray:1.0,2.0;" x1="22.5" x2="477.5" y1="945.0781" y2="945.0781"/><ellipse cx="32.5" cy="958.7266" fill="#84BE84" rx="3" ry="3" style="stroke:#038048;stroke-width:1.0;"/><text fill="#000000" font-family="sans-serif" font-size="14" lengthAdjust="spacing" textLength="323" x="41.5" y="962.0732">get geometryStyle(): CompletedCSSStyleSheet</text><ellipse cx="32.5" cy="975.0234" fill="#84BE84" rx="3" ry="3" style="stroke:#038048;stroke-width:1.0;"/><text fill="#000000" font-family="sans-serif" font-size="14" lengthAdjust="spacing" textLength="203" x="41.5" y="978.3701">get staticStyle(): lit.CSSResult</text><ellipse cx="32.5" cy="991.3203" fill="#84BE84" rx="3" ry="3" style="stroke:#038048;stroke-width:1.0;"/><text fill="#000000" font-family="sans-serif" font-size="14" lengthAdjust="spacing" textLength="220" x="41.5" y="994.667">get trackedStyle(): TrackedStyle</text><line style="stroke:#181818;stroke-width:1.0;stroke-dasharray:1.0,2.0;" x1="22.5" x2="477.5" y1="1001.9688" y2="1001.9688"/><ellipse cx="32.5" cy="1015.6172" fill="#84BE84" rx="3" ry="3" style="stroke:#038048;stroke-width:1.0;"/><a href="./AbstractStyleElement_connectedCallback.svg" target="_top" title="./AbstractStyleElement_connectedCallback.svg" xlink:actuate="onRequest" xlink:href="./AbstractStyleElement_connectedCallback.svg" xlink:show="new" xlink:title="./AbstractStyleElement_connectedCallback.svg" xlink:type="simple"><text fill="#0000FF" font-family="sans-serif" font-size="14" lengthAdjust="spacing" text-decoration="underline" textLength="132" x="41.5" y="1018.9639">connectedCallback</text></a><text fill="#000000" font-family="sans-serif" font-size="14" lengthAdjust="spacing" textLength="47" x="173.5" y="1018.9639">(): void</text><ellipse cx="32.5" cy="1031.9141" fill="#84BE84" rx="3" ry="3" style="stroke:#038048;stroke-width:1.0;"/><a href="./AbstractStyleElement_disconnectedCallback.svg" target="_top" title="./AbstractStyleElement_disconnectedCallback.svg" xlink:actuate="onRequest" xlink:href="./AbstractStyleElement_disconnectedCallback.svg" xlink:show="new" xlink:title="./AbstractStyleElement_disconnectedCallback.svg" xlink:type="simple"><text fill="#0000FF" font-family="sans-serif" font-size="14" lengthAdjust="spacing" text-decoration="underline" textLength="152" x="41.5" y="1035.2607">disconnectedCallback</text></a><text fill="#000000" font-family="sans-serif" font-size="14" lengthAdjust="spacing" textLength="47" x="193.5" y="1035.2607">(): void</text><line style="stroke:#181818;stroke-width:1.0;stroke-dasharray:1.0,2.0;" x1="22.5" x2="477.5" y1="1042.5625" y2="1042.5625"/><rect fill="#F24D5C" height="6" style="stroke:#C82930;stroke-width:1.0;" width="6" x="29.5" y="1053.2109"/><text fill="#000000" font-family="sans-serif" font-size="14" lengthAdjust="spacing" textLength="148" x="41.5" y="1059.5576">observersStart(): void</text><rect fill="#F24D5C" height="6" style="stroke:#C82930;stroke-width:1.0;" width="6" x="29.5" y="1069.5078"/><text fill="#000000" font-family="sans-serif" font-size="14" lengthAdjust="spacing" textLength="148" x="41.5" y="1075.8545">observersStop(): void</text><rect fill="#F24D5C" height="6" style="stroke:#C82930;stroke-width:1.0;" width="6" x="29.5" y="1085.8047"/><text fill="#000000" font-family="sans-serif" font-size="14" lengthAdjust="spacing" textLength="213" x="41.5" y="1092.1514">clearTrackedStyleCache(): void</text><rect fill="#F24D5C" height="6" style="stroke:#C82930;stroke-width:1.0;" width="6" x="29.5" y="1102.1016"/><a href="./AbstractStyleElement_htmlStyleChangedListener.svg" target="_top" title="./AbstractStyleElement_htmlStyleChangedListener.svg" xlink:actuate="onRequest" xlink:href="./AbstractStyleElement_htmlStyleChangedListener.svg" xlink:show="new" xlink:title="./AbstractStyleElement_htmlStyleChangedListener.svg" xlink:type="simple"><text fill="#0000FF" font-family="sans-serif" font-size="14" lengthAdjust="spacing" text-decoration="underline" textLength="181" x="41.5" y="1108.4482">htmlStyleChangedListener</text></a><text fill="#000000" font-family="sans-serif" font-size="14" lengthAdjust="spacing" textLength="204" x="222.5" y="1108.4482">(evt: HtmlStyleChanged): void</text><line style="stroke:#181818;stroke-width:1.0;stroke-dasharray:1.0,2.0;" x1="22.5" x2="477.5" y1="1115.75" y2="1115.75"/><polygon fill="#FFFF44" points="32.5,1124.3984,36.5,1128.3984,32.5,1132.3984,28.5,1128.3984" style="stroke:#B38D22;stroke-width:1.0;"/><a href="./AbstractStyleElement_shouldUpdate.svg" target="_top" title="./AbstractStyleElement_shouldUpdate.svg" xlink:actuate="onRequest" xlink:href="./AbstractStyleElement_shouldUpdate.svg" xlink:show="new" xlink:title="./AbstractStyleElement_shouldUpdate.svg" xlink:type="simple"><text fill="#0000FF" font-family="sans-serif" font-size="14" lengthAdjust="spacing" text-decoration="underline" textLength="97" x="41.5" y="1132.7451">shouldUpdate</text></a><text fill="#000000" font-family="sans-serif" font-size="14" lengthAdjust="spacing" textLength="288" x="138.5" y="1132.7451">(props: Map&lt;string, unknown&gt;): boolean</text><line style="stroke:#181818;stroke-width:1.0;stroke-dasharray:1.0,2.0;" x1="22.5" x2="477.5" y1="1140.0469" y2="1140.0469"/><polygon fill="#FFFF44" points="32.5,1148.6953,36.5,1152.6953,32.5,1156.6953,28.5,1152.6953" style="stroke:#B38D22;stroke-width:1.0;"/><a href="./AbstractStyleElement_renderStyle.svg" target="_top" title="./AbstractStyleElement_renderStyle.svg" xlink:actuate="onRequest" xlink:href="./AbstractStyleElement_renderStyle.svg" xlink:show="new" xlink:title="./AbstractStyleElement_renderStyle.svg" xlink:type="simple"><text fill="#0000FF" font-family="sans-serif" font-size="14" lengthAdjust="spacing" text-decoration="underline" textLength="79" x="41.5" y="1157.042">renderStyle</text></a><text fill="#000000" font-family="sans-serif" font-size="14" lengthAdjust="spacing" textLength="47" x="120.5" y="1157.042">(): void</text><polygon fill="#FFFF44" points="32.5,1164.9922,36.5,1168.9922,32.5,1172.9922,28.5,1168.9922" style="stroke:#B38D22;stroke-width:1.0;"/><a href="./AbstractStyleElement_updateStyle.svg" target="_top" title="./AbstractStyleElement_updateStyle.svg" xlink:actuate="onRequest" xlink:href="./AbstractStyleElement_updateStyle.svg" xlink:show="new" xlink:title="./AbstractStyleElement_updateStyle.svg" xlink:type="simple"><text fill="#0000FF" font-family="sans-serif" font-size="14" lengthAdjust="spacing" text-decoration="underline" textLength="82" x="41.5" y="1173.3389">updateStyle</text></a><text fill="#000000" font-family="sans-serif" font-size="14" lengthAdjust="spacing" textLength="47" x="123.5" y="1173.3389">(): void</text><line style="stroke:#181818;stroke-width:1.0;stroke-dasharray:1.0,2.0;" x1="22.5" x2="477.5" y1="1180.6406" y2="1180.6406"/><rect fill="#F24D5C" height="6" style="stroke:#C82930;stroke-width:1.0;" width="6" x="29.5" y="1191.2891"/><a href="./AbstractStyleElement_updateShadowStyle.svg" target="_top" title="./AbstractStyleElement_updateShadowStyle.svg" xlink:actuate="onRequest" xlink:href="./AbstractStyleElement_updateShadowStyle.svg" xlink:show="new" xlink:title="./AbstractStyleElement_updateShadowStyle.svg" xlink:type="simple"><text fill="#0000FF" font-family="sans-serif" font-size="14" lengthAdjust="spacing" text-decoration="underline" textLength="137" x="41.5" y="1197.6357">updateShadowStyle</text></a><text fill="#000000" font-family="sans-serif" font-size="14" lengthAdjust="spacing" textLength="47" x="178.5" y="1197.6357">(): void</text><polygon fill="#FFFF44" points="32.5,1205.5859,36.5,1209.5859,32.5,1213.5859,28.5,1209.5859" style="stroke:#B38D22;stroke-width:1.0;"/><text fill="#000000" font-family="sans-serif" font-size="14" lengthAdjust="spacing" textLength="179" x="41.5" y="1213.9326">getShadowStyle(): string[]</text><line style="stroke:#181818;stroke-width:1.0;stroke-dasharray:1.0,2.0;" x1="22.5" x2="477.5" y1="1221.2344" y2="1221.2344"/><rect fill="#F24D5C" height="6" style="stroke:#C82930;stroke-width:1.0;" width="6" x="29.5" y="1231.8828"/><a href="./AbstractStyleElement_updateGeometryStyle.svg" target="_top" title="./AbstractStyleElement_updateGeometryStyle.svg" xlink:actuate="onRequest" xlink:href="./AbstractStyleElement_updateGeometryStyle.svg" xlink:show="new" xlink:title="./AbstractStyleElement_updateGeometryStyle.svg" xlink:type="simple"><text fill="#0000FF" font-family="sans-serif" font-size="14" lengthAdjust="spacing" text-decoration="underline" textLength="150" x="41.5" y="1238.2295">updateGeometryStyle</text></a><text fill="#000000" font-family="sans-serif" font-size="14" lengthAdjust="spacing" textLength="47" x="191.5" y="1238.2295">(): void</text><polygon fill="#FFFF44" points="32.5,1246.1797,36.5,1250.1797,32.5,1254.1797,28.5,1250.1797" style="stroke:#B38D22;stroke-width:1.0;"/><a href="./AbstractStyleElement_getGeometryStyle.svg" target="_top" title="./AbstractStyleElement_getGeometryStyle.svg" xlink:actuate="onRequest" xlink:href="./AbstractStyleElement_getGeometryStyle.svg" xlink:show="new" xlink:title="./AbstractStyleElement_getGeometryStyle.svg" xlink:type="simple"><text fill="#0000FF" font-family="sans-serif" font-size="14" lengthAdjust="spacing" text-decoration="underline" textLength="124" x="41.5" y="1254.5264">getGeometryStyle</text></a><text fill="#000000" font-family="sans-serif" font-size="14" lengthAdjust="spacing" textLength="68" x="165.5" y="1254.5264">(): string[]</text><line style="stroke:#181818;stroke-width:1.0;stroke-dasharray:1.0,2.0;" x1="22.5" x2="477.5" y1="1261.8281" y2="1261.8281"/><rect fill="#F24D5C" height="6" style="stroke:#C82930;stroke-width:1.0;" width="6" x="29.5" y="1272.4766"/><text fill="#000000" font-family="sans-serif" font-size="14" lengthAdjust="spacing" textLength="353" x="41.5" y="1278.8232">getSvgStateStyle(state?: hover|focus|active): string</text><rect fill="#F24D5C" height="6" style="stroke:#C82930;stroke-width:1.0;" width="6" x="29.5" y="1288.7734"/><text fill="#000000" font-family="sans-serif" font-size="14" lengthAdjust="spacing" textLength="363" x="41.5" y="1295.1201">getSvgCursorStyle(state?: hover|focus|active): string</text><rect fill="#F24D5C" height="6" style="stroke:#C82930;stroke-width:1.0;" width="6" x="29.5" y="1305.0703"/><text fill="#000000" font-family="sans-serif" font-size="14" lengthAdjust="spacing" textLength="366" x="41.5" y="1311.417">getSvgOutlineStyle(state?: hover|focus|active): string</text><rect fill="#F24D5C" height="6" style="stroke:#C82930;stroke-width:1.0;" width="6" x="29.5" y="1321.3672"/><text fill="#000000" font-family="sans-serif" font-size="14" lengthAdjust="spacing" textLength="390" x="41.5" y="1327.7139">getSvgFontFamilyStyle(state?: hover|focus|active): string</text><rect fill="#F24D5C" height="6" style="stroke:#C82930;stroke-width:1.0;" width="6" x="29.5" y="1337.6641"/><text fill="#000000" font-family="sans-serif" font-size="14" lengthAdjust="spacing" textLength="377" x="41.5" y="1344.0107">getSvgFontSizeStyle(state?: hover|focus|active): string</text><rect fill="#F24D5C" height="6" style="stroke:#C82930;stroke-width:1.0;" width="6" x="29.5" y="1353.9609"/><text fill="#000000" font-family="sans-serif" font-size="14" lengthAdjust="spacing" textLength="396" x="41.5" y="1360.3076">getSvgFontWeightStyle(state?: hover|focus|active): string</text><rect fill="#F24D5C" height="6" style="stroke:#C82930;stroke-width:1.0;" width="6" x="29.5" y="1370.2578"/><text fill="#000000" font-family="sans-serif" font-size="14" lengthAdjust="spacing" textLength="381" x="41.5" y="1376.6045">getSvgFontStyleStyle(state?: hover|focus|active): string</text><rect fill="#F24D5C" height="6" style="stroke:#C82930;stroke-width:1.0;" width="6" x="29.5" y="1386.5547"/><text fill="#000000" font-family="sans-serif" font-size="14" lengthAdjust="spacing" textLength="362" x="41.5" y="1392.9014">getSvgStrokeStyle(state?: hover|focus|active): string</text><rect fill="#F24D5C" height="6" style="stroke:#C82930;stroke-width:1.0;" width="6" x="29.5" y="1402.8516"/><text fill="#000000" font-family="sans-serif" font-size="14" lengthAdjust="spacing" textLength="401" x="41.5" y="1409.1982">getSvgStrokeWidthStyle(state?: hover|focus|active): string</text><rect fill="#F24D5C" height="6" style="stroke:#C82930;stroke-width:1.0;" width="6" x="29.5" y="1419.1484"/><text fill="#000000" font-family="sans-serif" font-size="14" lengthAdjust="spacing" textLength="431" x="41.5" y="1425.4951">getSvgStrokeDasharrayStyle(state?: hover|focus|active): string</text><rect fill="#F24D5C" height="6" style="stroke:#C82930;stroke-width:1.0;" width="6" x="29.5" y="1435.4453"/><text fill="#000000" font-family="sans-serif" font-size="14" lengthAdjust="spacing" textLength="415" x="41.5" y="1441.792">getSvgStrokeLinecapStyle(state?: hover|focus|active): string</text><rect fill="#F24D5C" height="6" style="stroke:#C82930;stroke-width:1.0;" width="6" x="29.5" y="1451.7422"/><text fill="#000000" font-family="sans-serif" font-size="14" lengthAdjust="spacing" textLength="334" x="41.5" y="1458.0889">getSvgFillStyle(state?: hover|focus|active): string</text></g><!--reverse link LitElement to UnifiedElement--><g id="link_LitElement_UnifiedElement"><path d="M250,339.3769 C250,361.4569 250,364.6569 250,381.0169 " fill="none" id="LitElement-backto-UnifiedElement" style="stroke:#181818;stroke-width:1.0;"/><polygon fill="none" points="250,321.3769,244,339.3769,256,339.3769,250,321.3769" style="stroke:#181818;stroke-width:1.0;"/></g><!--reverse link UnifiedElement to AbstractChartElement--><g id="link_UnifiedElement_AbstractChartElement"><path codeLine="182" d="M250,463.4869 C250,483.4769 250,492.7169 250,520.0869 " fill="none" id="UnifiedElement-backto-AbstractChartElement" style="stroke:#181818;stroke-width:1.0;"/><polygon fill="none" points="250,445.4869,244,463.4869,256,463.4869,250,445.4869" style="stroke:#181818;stroke-width:1.0;"/></g><!--reverse link AbstractChartElement to AbstractStyleElement--><g id="link_AbstractChartElement_AbstractStyleElement"><path codeLine="229" d="M250,757.3969 C250,775.9369 250,778.0369 250,798.9869 " fill="none" id="AbstractChartElement-backto-AbstractStyleElement" style="stroke:#181818;stroke-width:1.0;"/><polygon fill="none" points="250,739.3969,244,757.3969,256,757.3969,250,739.3969" style="stroke:#181818;stroke-width:1.0;"/></g><!--SRC=[jLbRRzis57xlho3IXwRRR6-lHj6jSTS6M8eDjTi-64P1IySM4KhKICgfq_I_ZnTTI8bKd0HxIdGk7xz37fv3qWX98YcWFx8qfpCEHGeSE2fnSettyEmPQlv5PzOaONdEYZE41RB_ek_A2A64OY7G5P5_KiYXa6YzpgGinNmseqHEKpZCKfQ86Ix9hBEQRJQrFq8_hzTJH_KrOOMGl4eaurDns2FdUxCvVpbt1giHfjC6IjaMa4X85vZIhOf0snyOIHk3b8ZxR3gq7Z4E_rOWvASonH8CDKzYoJb0ptl-9V0TuxdZxqc6_Y9Z5KsjzhpaJCqg-e3BLsewIB7_1LN5TS5kYjVARSiO1LmqdZU4qjhlWAdYE4V_A7_WylZPV8yphJgALSFj59nswfxl26_c9NMfDzv_mT7ZxvAfXcw1Y4Vexw4UUi7oaa8ToK1g9rmnoec0LnhljG7yySp9x4y5sH58c-o6RrBj5I_XspnM0w2Af1hKygtHQiJUXchsdDbIxGQqO2yG55MELYIvNieZ1T7ArJ1dKf4uSxwvocRt6oWbfO16L8TJOougVe3LiUnX5bXM75CNXf82C7SbIRKbYIiG4ahtUmkt13oNBHP4U1YOfwJmHqgmp2jA9sebHaXV6F0LBlPgrdts6UFabXNIXpseH2D99mjWBdH47rZ192j8GkJHW_tceXr7O9Pg7XQPPkRpseBQtk2Yv2HDgIV1EzbDMOjD2YNTuGJGYgkyWTJaWGC-dGfo2_M6CqWt99NP72bIM-2TE0Eop-H0FfsMJ119ME5YI5OE4IZiWluuLIkv5wv_BLk5O6hTno2THdl1f6HvL7qLff9KNAXkuH2n4cyZMbETrSXCbMkkfL_2yzUgtYII7634u1rBAZ6YlsGg8mFi3QM4KJy2BLreuI28JjLGYXhKbABwcb9ubeHEkJubauTXHACQesGCHYWPVOpIJhKqEqleN7VjFMTLaRvq-McJo9IrgXY_rY32hzL7-QdwWtOu9_JeSLBYTqOQm6nrKLQjHOnMQp3Agryhj72fP650hHbZfFKZVBHwbCsDAKbzFb_gGXM2jBenJjPYX9Kr69-bViARQC89twf69seauLjzZ9BgNTT3Ih8v4yoTuu6lZXGohRgCDOD4jx7XQ4bpMfWx1uUU-aAt-0kGk855wr-dqzysVJElVSz3FRtdiQYF2YieXEfJu_0BUuRuoF8tjCpkuJ9e-_F8SQ3dr_Nv-Q3njntS_lNQzcGoNAo-mM1-WmR12GjQnc896hjnr7Pugp8I9x8-1x-fFvKLxnrzzVnClXu8tEXPLrNw3bsg4-vd9N3lQTPCY0n0PM1p24yNowNXijHorz1CbZAizMz14U5OdrWSgmGd6RJ3kh493qiTmz9vHEya_FFlJTW_r7s1vI3vSGaKzEMp7MMmKxiiqLS0FH7w3d3FL1XR6wIs7WlJc4hBNTk6mwW1TQHn8szpTnThxH1QuPZVo0NwnKdNR6FroFjjVyqUVTTyyOZRfl7X8C0MRvFDujp-wLRH9FDw4nbisQwwfutaeRqRlg-pSU3bcbhugAapmCHcdjtpwHLHDxa2-C1ZijTngcnCEixwMKV5-H54HMMlwlLkow_kL84PoQjWKVb9LqidUMr1EhqSwGslhbq9s9JelutuppiX7DVRl1mut-57dY2Aczq6nXKed8Syw7GFAt7IpYwmh1t1lSET557be5SF1-w2E2sxGuOc8yvFm1tP2Y738QvDwPCJUYn93VWmIKM6KtPJ7-P6-g6sRPlHITQ9KbUotZ_ntg9DfRFJbhfv-9qZQBUmJJTW5rmACT90tVse-vSNf-cBOv7MBQ-jJ-7ov3VGrd2ClbSRtENxEcXhpHkrBntKYJXYg5SQq91YWDjIdh2j07MKuq8LR2vxPgwMbNrbeaeDN_LNk6yLZI2JERLkVZinKSIKAX8ug8FWPKyVszlHqV__EkiDvzIX-ZU0zdkyENWeJjLnocaOfLlY- -2wWkA2Tj8XGTtVEtttTBtUF7Jmz-xETORtv0-O8SLi2DaNMhmePHtTOQyFC7M1rxK2Vf-ZJD-vxtRwPdw7pGNUVxHlVHVc7V6HpdzNidtMUhZtk_Pfvma0-Ytc2UxsqUGfuzk-yYZ_fUJi-cdEvYdaIGXliMhJdEFZar2kL1eak7piH19A7-Pg3o_1Gx9tX75tdFwTwZy0]--></g></svg>