<?xml version="1.0" encoding="us-ascii" standalone="no"?><svg xmlns="http://www.w3.org/2000/svg" xmlns:xlink="http://www.w3.org/1999/xlink" contentStyleType="text/css" height="995px" preserveAspectRatio="none" style="width:467px;height:995px;background:#FFFFFF;" version="1.1" viewBox="0 0 467 995" width="467px" zoomAndPan="magnify"><defs/><g><text fill="#000000" font-family="sans-serif" font-size="14" font-weight="bold" lengthAdjust="spacing" textLength="260" x="102" y="32.9951">Disassembly of HTML documents</text><ellipse cx="232.5" cy="57.2969" fill="#222222" rx="10" ry="10" style="stroke:#222222;stroke-width:1.0;"/><polygon fill="#F1F1F1" points="195.5,87.2969,279.5,87.2969,269.5,121.2656,185.5,121.2656" style="stroke:#181818;stroke-width:0.5;"/><text fill="#000000" font-family="sans-serif" font-size="12" lengthAdjust="spacing" textLength="74" x="195.5" y="108.4355">hash, hddm</text><rect fill="#F1F1F1" height="33.9688" style="stroke:#181818;stroke-width:0.5;" width="393" x="36" y="185.2656"/><text fill="#000000" font-family="sans-serif" font-size="12" lengthAdjust="spacing" textLength="373" x="46" y="206.4043">name = hash + "." + md5("?model=" + model.name) + ".m"</text><rect fill="#F1F1F1" height="33.9688" style="stroke:#181818;stroke-width:0.5;" width="195" x="135" y="283.2344"/><text fill="#000000" font-family="sans-serif" font-size="12" lengthAdjust="spacing" textLength="175" x="145" y="304.373">content = fbs.Model(model)</text><rect fill="#F1F1F1" height="33.9688" style="stroke:#181818;stroke-width:0.5;" width="182" x="141.5" y="352.2031"/><text fill="#000000" font-family="sans-serif" font-size="12" lengthAdjust="spacing" textLength="162" x="151.5" y="373.3418">hdfs.save(name, content)</text><rect fill="#F1F1F1" height="33.9688" style="stroke:#181818;stroke-width:0.5;" width="166" x="149.5" y="406.1719"/><text fill="#000000" font-family="sans-serif" font-size="12" lengthAdjust="spacing" textLength="146" x="159.5" y="427.3105">lru.add(name, content)</text><polygon fill="#F1F1F1" points="177.5,239.2344,287.5,239.2344,299.5,251.2344,287.5,263.2344,177.5,263.2344,165.5,251.2344,177.5,239.2344" style="stroke:#181818;stroke-width:0.5;"/><text fill="#000000" font-family="sans-serif" font-size="11" lengthAdjust="spacing" textLength="110" x="177.5" y="255.0425">!lru.contains(name)</text><polygon fill="#F1F1F1" points="232.5,460.1406,244.5,472.1406,232.5,484.1406,220.5,472.1406,232.5,460.1406" style="stroke:#181818;stroke-width:0.5;"/><polygon fill="#F1F1F1" points="148.5,141.2656,316.5,141.2656,328.5,153.2656,316.5,165.2656,148.5,165.2656,136.5,153.2656,148.5,141.2656" style="stroke:#181818;stroke-width:0.5;"/><text fill="#000000" font-family="sans-serif" font-size="11" lengthAdjust="spacing" textLength="168" x="148.5" y="157.0737">hddm.models.forEach(model)</text><rect fill="#F1F1F1" height="33.9688" style="stroke:#181818;stroke-width:0.5;" width="382" x="41.5" y="570.1406"/><text fill="#000000" font-family="sans-serif" font-size="12" lengthAdjust="spacing" textLength="362" x="51.5" y="591.2793">name = hash + "." + md5("?frame=" + frame.name) + ".f"</text><rect fill="#F1F1F1" height="33.9688" style="stroke:#181818;stroke-width:0.5;" width="195" x="135" y="668.1094"/><text fill="#000000" font-family="sans-serif" font-size="12" lengthAdjust="spacing" textLength="175" x="145" y="689.248">content = fbs.Frame(frame)</text><rect fill="#F1F1F1" height="33.9688" style="stroke:#181818;stroke-width:0.5;" width="182" x="141.5" y="737.0781"/><text fill="#000000" font-family="sans-serif" font-size="12" lengthAdjust="spacing" textLength="162" x="151.5" y="758.2168">hdfs.save(name, content)</text><rect fill="#F1F1F1" height="33.9688" style="stroke:#181818;stroke-width:0.5;" width="166" x="149.5" y="791.0469"/><text fill="#000000" font-family="sans-serif" font-size="12" lengthAdjust="spacing" textLength="146" x="159.5" y="812.1855">lru.add(name, content)</text><polygon fill="#F1F1F1" points="177.5,624.1094,287.5,624.1094,299.5,636.1094,287.5,648.1094,177.5,648.1094,165.5,636.1094,177.5,624.1094" style="stroke:#181818;stroke-width:0.5;"/><text fill="#000000" font-family="sans-serif" font-size="11" lengthAdjust="spacing" textLength="110" x="177.5" y="639.9175">!lru.contains(name)</text><polygon fill="#F1F1F1" points="232.5,845.0156,244.5,857.0156,232.5,869.0156,220.5,857.0156,232.5,845.0156" style="stroke:#181818;stroke-width:0.5;"/><polygon fill="#F1F1F1" points="149.5,526.1406,315.5,526.1406,327.5,538.1406,315.5,550.1406,149.5,550.1406,137.5,538.1406,149.5,526.1406" style="stroke:#181818;stroke-width:0.5;"/><text fill="#000000" font-family="sans-serif" font-size="11" lengthAdjust="spacing" textLength="166" x="149.5" y="541.9487">hddm.frames.forEach(frame)</text><polygon fill="#F1F1F1" points="198,911.0156,277,911.0156,267,944.9844,188,944.9844" style="stroke:#181818;stroke-width:0.5;"/><text fill="#000000" font-family="sans-serif" font-size="12" lengthAdjust="spacing" textLength="69" x="198" y="932.1543">return true</text><ellipse cx="232.5" cy="974.9844" fill="none" rx="10" ry="10" style="stroke:#222222;stroke-width:1.5;"/><line style="stroke:#222222;stroke-width:2.5;" x1="226.3128" x2="238.6872" y1="968.7972" y2="981.1716"/><line style="stroke:#222222;stroke-width:2.5;" x1="238.6872" x2="226.3128" y1="968.7972" y2="981.1716"/><line style="stroke:#181818;stroke-width:1.0;" x1="232.5" x2="232.5" y1="67.2969" y2="87.2969"/><polygon fill="#181818" points="228.5,77.2969,232.5,87.2969,236.5,77.2969,232.5,81.2969" style="stroke:#181818;stroke-width:1.0;"/><line style="stroke:#181818;stroke-width:1.0;" x1="232.5" x2="232.5" y1="317.2031" y2="352.2031"/><polygon fill="#181818" points="228.5,342.2031,232.5,352.2031,236.5,342.2031,232.5,346.2031" style="stroke:#181818;stroke-width:1.0;"/><line style="stroke:#181818;stroke-width:1.0;" x1="232.5" x2="232.5" y1="386.1719" y2="406.1719"/><polygon fill="#181818" points="228.5,396.1719,232.5,406.1719,236.5,396.1719,232.5,400.1719" style="stroke:#181818;stroke-width:1.0;"/><line style="stroke:#181818;stroke-width:1.0;" x1="232.5" x2="232.5" y1="263.2344" y2="283.2344"/><polygon fill="#181818" points="228.5,273.2344,232.5,283.2344,236.5,273.2344,232.5,277.2344" style="stroke:#181818;stroke-width:1.0;"/><line style="stroke:#181818;stroke-width:1.0;" x1="299.5" x2="340" y1="251.2344" y2="251.2344"/><polygon fill="#181818" points="336,359.1875,340,369.1875,344,359.1875,340,363.1875" style="stroke:#181818;stroke-width:1.0;"/><line style="stroke:#181818;stroke-width:1.0;" x1="340" x2="340" y1="251.2344" y2="472.1406"/><line style="stroke:#181818;stroke-width:1.0;" x1="340" x2="244.5" y1="472.1406" y2="472.1406"/><polygon fill="#181818" points="254.5,468.1406,244.5,472.1406,254.5,476.1406,250.5,472.1406" style="stroke:#181818;stroke-width:1.0;"/><line style="stroke:#181818;stroke-width:1.0;" x1="232.5" x2="232.5" y1="440.1406" y2="460.1406"/><polygon fill="#181818" points="228.5,450.1406,232.5,460.1406,236.5,450.1406,232.5,454.1406" style="stroke:#181818;stroke-width:1.0;"/><line style="stroke:#181818;stroke-width:1.0;" x1="232.5" x2="232.5" y1="219.2344" y2="239.2344"/><polygon fill="#181818" points="228.5,229.2344,232.5,239.2344,236.5,229.2344,232.5,233.2344" style="stroke:#181818;stroke-width:1.0;"/><line style="stroke:#181818;stroke-width:1.0;" x1="232.5" x2="232.5" y1="165.2656" y2="185.2656"/><polygon fill="#181818" points="228.5,175.2656,232.5,185.2656,236.5,175.2656,232.5,179.2656" style="stroke:#181818;stroke-width:1.0;"/><line style="stroke:#181818;stroke-width:1.0;" x1="232.5" x2="232.5" y1="484.1406" y2="494.1406"/><line style="stroke:#181818;stroke-width:1.0;" x1="232.5" x2="441" y1="494.1406" y2="494.1406"/><polygon fill="#181818" points="437,332.7031,441,322.7031,445,332.7031,441,328.7031" style="stroke:#181818;stroke-width:1.0;"/><line style="stroke:#181818;stroke-width:1.0;" x1="441" x2="441" y1="153.2656" y2="494.1406"/><line style="stroke:#181818;stroke-width:1.0;" x1="441" x2="328.5" y1="153.2656" y2="153.2656"/><polygon fill="#181818" points="338.5,149.2656,328.5,153.2656,338.5,157.2656,334.5,153.2656" style="stroke:#181818;stroke-width:1.0;"/><line style="stroke:#181818;stroke-width:1.0;" x1="136.5" x2="24" y1="153.2656" y2="153.2656"/><polygon fill="#181818" points="20,318.7031,24,328.7031,28,318.7031,24,322.7031" style="stroke:#181818;stroke-width:1.0;"/><line style="stroke:#181818;stroke-width:1.0;" x1="24" x2="24" y1="153.2656" y2="506.1406"/><line style="stroke:#181818;stroke-width:1.0;" x1="24" x2="232.5" y1="506.1406" y2="506.1406"/><line style="stroke:#181818;stroke-width:1.0;" x1="232.5" x2="232.5" y1="506.1406" y2="526.1406"/><polygon fill="#181818" points="228.5,516.1406,232.5,526.1406,236.5,516.1406,232.5,520.1406" style="stroke:#181818;stroke-width:1.0;"/><line style="stroke:#181818;stroke-width:1.0;" x1="232.5" x2="232.5" y1="121.2656" y2="141.2656"/><polygon fill="#181818" points="228.5,131.2656,232.5,141.2656,236.5,131.2656,232.5,135.2656" style="stroke:#181818;stroke-width:1.0;"/><line style="stroke:#181818;stroke-width:1.0;" x1="232.5" x2="232.5" y1="702.0781" y2="737.0781"/><polygon fill="#181818" points="228.5,727.0781,232.5,737.0781,236.5,727.0781,232.5,731.0781" style="stroke:#181818;stroke-width:1.0;"/><line style="stroke:#181818;stroke-width:1.0;" x1="232.5" x2="232.5" y1="771.0469" y2="791.0469"/><polygon fill="#181818" points="228.5,781.0469,232.5,791.0469,236.5,781.0469,232.5,785.0469" style="stroke:#181818;stroke-width:1.0;"/><line style="stroke:#181818;stroke-width:1.0;" x1="232.5" x2="232.5" y1="648.1094" y2="668.1094"/><polygon fill="#181818" points="228.5,658.1094,232.5,668.1094,236.5,658.1094,232.5,662.1094" style="stroke:#181818;stroke-width:1.0;"/><line style="stroke:#181818;stroke-width:1.0;" x1="299.5" x2="340" y1="636.1094" y2="636.1094"/><polygon fill="#181818" points="336,744.0625,340,754.0625,344,744.0625,340,748.0625" style="stroke:#181818;stroke-width:1.0;"/><line style="stroke:#181818;stroke-width:1.0;" x1="340" x2="340" y1="636.1094" y2="857.0156"/><line style="stroke:#181818;stroke-width:1.0;" x1="340" x2="244.5" y1="857.0156" y2="857.0156"/><polygon fill="#181818" points="254.5,853.0156,244.5,857.0156,254.5,861.0156,250.5,857.0156" style="stroke:#181818;stroke-width:1.0;"/><line style="stroke:#181818;stroke-width:1.0;" x1="232.5" x2="232.5" y1="825.0156" y2="845.0156"/><polygon fill="#181818" points="228.5,835.0156,232.5,845.0156,236.5,835.0156,232.5,839.0156" style="stroke:#181818;stroke-width:1.0;"/><line style="stroke:#181818;stroke-width:1.0;" x1="232.5" x2="232.5" y1="604.1094" y2="624.1094"/><polygon fill="#181818" points="228.5,614.1094,232.5,624.1094,236.5,614.1094,232.5,618.1094" style="stroke:#181818;stroke-width:1.0;"/><line style="stroke:#181818;stroke-width:1.0;" x1="232.5" x2="232.5" y1="550.1406" y2="570.1406"/><polygon fill="#181818" points="228.5,560.1406,232.5,570.1406,236.5,560.1406,232.5,564.1406" style="stroke:#181818;stroke-width:1.0;"/><line style="stroke:#181818;stroke-width:1.0;" x1="232.5" x2="232.5" y1="869.0156" y2="879.0156"/><line style="stroke:#181818;stroke-width:1.0;" x1="232.5" x2="435.5" y1="879.0156" y2="879.0156"/><polygon fill="#181818" points="431.5,717.5781,435.5,707.5781,439.5,717.5781,435.5,713.5781" style="stroke:#181818;stroke-width:1.0;"/><line style="stroke:#181818;stroke-width:1.0;" x1="435.5" x2="435.5" y1="538.1406" y2="879.0156"/><line style="stroke:#181818;stroke-width:1.0;" x1="435.5" x2="327.5" y1="538.1406" y2="538.1406"/><polygon fill="#181818" points="337.5,534.1406,327.5,538.1406,337.5,542.1406,333.5,538.1406" style="stroke:#181818;stroke-width:1.0;"/><line style="stroke:#181818;stroke-width:1.0;" x1="137.5" x2="29.5" y1="538.1406" y2="538.1406"/><polygon fill="#181818" points="25.5,703.5781,29.5,713.5781,33.5,703.5781,29.5,707.5781" style="stroke:#181818;stroke-width:1.0;"/><line style="stroke:#181818;stroke-width:1.0;" x1="29.5" x2="29.5" y1="538.1406" y2="891.0156"/><line style="stroke:#181818;stroke-width:1.0;" x1="29.5" x2="232.5" y1="891.0156" y2="891.0156"/><line style="stroke:#181818;stroke-width:1.0;" x1="232.5" x2="232.5" y1="891.0156" y2="911.0156"/><polygon fill="#181818" points="228.5,901.0156,232.5,911.0156,236.5,901.0156,232.5,905.0156" style="stroke:#181818;stroke-width:1.0;"/><line style="stroke:#181818;stroke-width:1.0;" x1="232.5" x2="232.5" y1="944.9844" y2="964.9844"/><polygon fill="#181818" points="228.5,954.9844,232.5,964.9844,236.5,954.9844,232.5,958.9844" style="stroke:#181818;stroke-width:1.0;"/><!--SRC=[lP0zQmCn38Pt_mhr9XyDpfGb4BgqfKEp5JfbSCuoDfnji7m9_VUrXI61K2W4ijZwUFHAl035bndXrPCcmd2SVo1P-FZQVu99qn8m5X82W8hEfVu0MwV9hS0P4zQ2AsVdguHi5HMImPcKJVbDJqvoEewCrT6e0y8EcW8ymw26-WQpaSCBWplEMwGQEJ8JXaCVznRaqvmNDQLOj8yacHgXE8oTgKjQjvvTzzWZgNsJwtSSBf0pbXJf4xB62lhGDT8sQMF-032QUf3euNUpuDODc-linGrE_-C6W-m6HrTksFlSU6zo_Ow7kB7DM9OSeUG5ruAxlm00]--></g></svg>