<?xml version="1.0" encoding="us-ascii" standalone="no"?><svg xmlns="http://www.w3.org/2000/svg" xmlns:xlink="http://www.w3.org/1999/xlink" contentStyleType="text/css" height="621px" preserveAspectRatio="none" style="width:790px;height:621px;background:#FFFFFF;" version="1.1" viewBox="0 0 790 621" width="790px" zoomAndPan="magnify"><defs/><g><text fill="#000000" font-family="sans-serif" font-size="14" font-weight="bold" lengthAdjust="spacing" textLength="243" x="275.25" y="27.9951">POST /api/v1/hdio/:tenant/docs</text><rect fill="none" height="143.0625" style="stroke:#000000;stroke-width:1.5;" width="477.5" x="211" y="231.2578"/><rect fill="none" height="75.3984" style="stroke:#000000;stroke-width:1.5;" width="433" x="351.5" y="388.3203"/><rect fill="none" height="46.2656" style="stroke:#000000;stroke-width:1.5;" width="337" x="351.5" y="477.7188"/><line style="stroke:#181818;stroke-width:0.5;stroke-dasharray:5.0,5.0;" x1="212" x2="212" y1="118.5938" y2="540.9844"/><line style="stroke:#181818;stroke-width:0.5;stroke-dasharray:5.0,5.0;" x1="431.5" x2="431.5" y1="118.5938" y2="540.9844"/><line style="stroke:#181818;stroke-width:0.5;stroke-dasharray:5.0,5.0;" x1="620.5" x2="620.5" y1="118.5938" y2="540.9844"/><line style="stroke:#181818;stroke-width:0.5;stroke-dasharray:5.0,5.0;" x1="732.5" x2="732.5" y1="118.5938" y2="540.9844"/><text fill="#000000" font-family="sans-serif" font-size="14" lengthAdjust="spacing" textLength="39" x="190" y="115.292">Client</text><ellipse cx="212.5" cy="50.7969" fill="#E2E2F0" rx="8" ry="8" style="stroke:#181818;stroke-width:0.5;"/><path d="M212.5,58.7969 L212.5,85.7969 M199.5,66.7969 L225.5,66.7969 M212.5,85.7969 L199.5,100.7969 M212.5,85.7969 L225.5,100.7969 " fill="none" style="stroke:#181818;stroke-width:0.5;"/><text fill="#000000" font-family="sans-serif" font-size="14" lengthAdjust="spacing" textLength="39" x="190" y="552.9795">Client</text><ellipse cx="212.5" cy="564.7813" fill="#E2E2F0" rx="8" ry="8" style="stroke:#181818;stroke-width:0.5;"/><path d="M212.5,572.7813 L212.5,599.7813 M199.5,580.7813 L225.5,580.7813 M212.5,599.7813 L199.5,614.7813 M212.5,599.7813 L225.5,614.7813 " fill="none" style="stroke:#181818;stroke-width:0.5;"/><rect fill="#E2E2F0" height="30.2969" rx="2.5" ry="2.5" style="stroke:#181818;stroke-width:0.5;" width="140" x="361.5" y="87.2969"/><text fill="#000000" font-family="sans-serif" font-size="14" lengthAdjust="spacing" textLength="126" x="368.5" y="107.292">HyperData Service</text><rect fill="#E2E2F0" height="30.2969" rx="2.5" ry="2.5" style="stroke:#181818;stroke-width:0.5;" width="140" x="361.5" y="539.9844"/><text fill="#000000" font-family="sans-serif" font-size="14" lengthAdjust="spacing" textLength="126" x="368.5" y="559.9795">HyperData Service</text><a href="https://askubuntu.com/questions/152868/how-do-i-make-a-ram-disk" target="_top" title="https://askubuntu.com/questions/152868/how-do-i-make-a-ram-disk" xlink:actuate="onRequest" xlink:href="https://askubuntu.com/questions/152868/how-do-i-make-a-ram-disk" xlink:show="new" xlink:title="https://askubuntu.com/questions/152868/how-do-i-make-a-ram-disk" xlink:type="simple"><text fill="#000000" font-family="sans-serif" font-size="14" lengthAdjust="spacing" textLength="110" x="562.5" y="115.292">Memory System</text><path d="M602.5,66.2969 C602.5,56.2969 620.5,56.2969 620.5,56.2969 C620.5,56.2969 638.5,56.2969 638.5,66.2969 L638.5,92.2969 C638.5,102.2969 620.5,102.2969 620.5,102.2969 C620.5,102.2969 602.5,102.2969 602.5,92.2969 L602.5,66.2969 " fill="#E2E2F0" style="stroke:#181818;stroke-width:1.5;"/><path d="M602.5,66.2969 C602.5,76.2969 620.5,76.2969 620.5,76.2969 C620.5,76.2969 638.5,76.2969 638.5,66.2969 " fill="none" style="stroke:#181818;stroke-width:1.5;"/><text fill="#000000" font-family="sans-serif" font-size="14" lengthAdjust="spacing" textLength="110" x="562.5" y="552.9795">Memory System</text><path d="M602.5,566.2813 C602.5,556.2813 620.5,556.2813 620.5,556.2813 C620.5,556.2813 638.5,556.2813 638.5,566.2813 L638.5,592.2813 C638.5,602.2813 620.5,602.2813 620.5,602.2813 C620.5,602.2813 602.5,602.2813 602.5,592.2813 L602.5,566.2813 " fill="#E2E2F0" style="stroke:#181818;stroke-width:1.5;"/><path d="M602.5,566.2813 C602.5,576.2813 620.5,576.2813 620.5,576.2813 C620.5,576.2813 638.5,576.2813 638.5,566.2813 " fill="none" style="stroke:#181818;stroke-width:1.5;"/></a><a href="../general/fs.svg" target="_top" title="../general/fs.svg" xlink:actuate="onRequest" xlink:href="../general/fs.svg" xlink:show="new" xlink:title="../general/fs.svg" xlink:type="simple"><text fill="#000000" font-family="sans-serif" font-size="14" lengthAdjust="spacing" textLength="78" x="690.5" y="115.292">File System</text><path d="M714.5,66.2969 C714.5,56.2969 732.5,56.2969 732.5,56.2969 C732.5,56.2969 750.5,56.2969 750.5,66.2969 L750.5,92.2969 C750.5,102.2969 732.5,102.2969 732.5,102.2969 C732.5,102.2969 714.5,102.2969 714.5,92.2969 L714.5,66.2969 " fill="#E2E2F0" style="stroke:#181818;stroke-width:1.5;"/><path d="M714.5,66.2969 C714.5,76.2969 732.5,76.2969 732.5,76.2969 C732.5,76.2969 750.5,76.2969 750.5,66.2969 " fill="none" style="stroke:#181818;stroke-width:1.5;"/><text fill="#000000" font-family="sans-serif" font-size="14" lengthAdjust="spacing" textLength="78" x="690.5" y="552.9795">File System</text><path d="M714.5,566.2813 C714.5,556.2813 732.5,556.2813 732.5,556.2813 C732.5,556.2813 750.5,556.2813 750.5,566.2813 L750.5,592.2813 C750.5,602.2813 732.5,602.2813 732.5,602.2813 C732.5,602.2813 714.5,602.2813 714.5,592.2813 L714.5,566.2813 " fill="#E2E2F0" style="stroke:#181818;stroke-width:1.5;"/><path d="M714.5,566.2813 C714.5,576.2813 732.5,576.2813 732.5,576.2813 C732.5,576.2813 750.5,576.2813 750.5,566.2813 " fill="none" style="stroke:#181818;stroke-width:1.5;"/></a><polygon fill="#181818" points="419.5,178.9922,429.5,182.9922,419.5,186.9922,423.5,182.9922" style="stroke:#181818;stroke-width:1.0;"/><line style="stroke:#181818;stroke-width:1.0;" x1="212.5" x2="425.5" y1="182.9922" y2="182.9922"/><text fill="#000000" font-family="sans-serif" font-size="13" lengthAdjust="spacing" textLength="195" x="219.5" y="177.9263">POST /api/v1/hdio/:tenant/docs</text><path d="M5,133.5938 L5,218.5938 L208,218.5938 L208,143.5938 L198,133.5938 L5,133.5938 " fill="#FEFFDD" style="stroke:#181818;stroke-width:0.5;"/><path d="M198,133.5938 L198,143.5938 L208,143.5938 L198,133.5938 " fill="#FEFFDD" style="stroke:#181818;stroke-width:0.5;"/><text fill="#000000" font-family="sans-serif" font-size="13" lengthAdjust="spacing" textLength="56" x="11" y="150.6606">headers:</text><text fill="#000000" font-family="sans-serif" font-size="13" lengthAdjust="spacing" textLength="108" x="19" y="165.7935">hdml-auth: &lt;...&gt;</text><text fill="#000000" font-family="sans-serif" font-size="13" lengthAdjust="spacing" textLength="174" x="19" y="180.9263">Authorization: Barear &lt;...&gt;</text><text fill="#000000" font-family="sans-serif" font-size="13" lengthAdjust="spacing" textLength="12" x="19" y="196.0591">...</text><text fill="#000000" font-family="sans-serif" font-size="13" lengthAdjust="spacing" textLength="92" x="11" y="211.1919">payload: &lt;...&gt;</text><path d="M211,231.2578 L335,231.2578 L335,238.3906 L325,248.3906 L211,248.3906 L211,231.2578 " fill="#EEEEEE" style="stroke:#000000;stroke-width:1.5;"/><rect fill="none" height="143.0625" style="stroke:#000000;stroke-width:1.5;" width="477.5" x="211" y="231.2578"/><text fill="#000000" font-family="sans-serif" font-size="13" font-weight="bold" lengthAdjust="spacing" textLength="79" x="226" y="244.3247">Prepare IO</text><polygon fill="#181818" points="608.5,313.9219,618.5,317.9219,608.5,321.9219,612.5,317.9219" style="stroke:#181818;stroke-width:1.0;"/><line style="stroke:#181818;stroke-width:1.0;" x1="431.5" x2="614.5" y1="317.9219" y2="317.9219"/><text fill="#000000" font-family="sans-serif" font-size="13" lengthAdjust="spacing" textLength="146" x="438.5" y="312.856">saves /hdio/:id/req.json</text><path d="M221,253.3906 L221,368.3906 L426,368.3906 L426,263.3906 L416,253.3906 L221,253.3906 " fill="#FEFFDD" style="stroke:#181818;stroke-width:0.5;"/><path d="M416,253.3906 L416,263.3906 L426,263.3906 L416,253.3906 " fill="#FEFFDD" style="stroke:#181818;stroke-width:0.5;"/><text fill="#000000" font-family="sans-serif" font-size="13" lengthAdjust="spacing" textLength="81" x="227" y="270.4575">"api": "docs",</text><text fill="#000000" font-family="sans-serif" font-size="13" lengthAdjust="spacing" textLength="116" x="227" y="285.5903">"method": "POST",</text><text fill="#000000" font-family="sans-serif" font-size="13" lengthAdjust="spacing" textLength="78" x="227" y="300.7231">"headers": {</text><text fill="#000000" font-family="sans-serif" font-size="13" lengthAdjust="spacing" textLength="110" x="235" y="315.856">"hdml-auth": "...",</text><text fill="#000000" font-family="sans-serif" font-size="13" lengthAdjust="spacing" textLength="176" x="235" y="330.9888">"Authorization": "Barear ...",</text><text fill="#000000" font-family="sans-serif" font-size="13" lengthAdjust="spacing" textLength="12" x="235" y="346.1216">...</text><text fill="#000000" font-family="sans-serif" font-size="13" lengthAdjust="spacing" textLength="8" x="227" y="361.2544">}</text><path d="M351.5,388.3203 L477.5,388.3203 L477.5,395.4531 L467.5,405.4531 L351.5,405.4531 L351.5,388.3203 " fill="#EEEEEE" style="stroke:#000000;stroke-width:1.5;"/><rect fill="none" height="75.3984" style="stroke:#000000;stroke-width:1.5;" width="433" x="351.5" y="388.3203"/><text fill="#000000" font-family="sans-serif" font-size="13" font-weight="bold" lengthAdjust="spacing" textLength="81" x="366.5" y="401.3872">Auth query</text><polygon fill="#181818" points="720.5,422.5859,730.5,426.5859,720.5,430.5859,724.5,426.5859" style="stroke:#181818;stroke-width:1.0;"/><line style="stroke:#181818;stroke-width:1.0;" x1="431.5" x2="726.5" y1="426.5859" y2="426.5859"/><text fill="#000000" font-family="sans-serif" font-size="13" lengthAdjust="spacing" textLength="277" x="438.5" y="421.52">loads hdfs/usr/:tenant/bin/wasm/auth.wasm</text><polygon fill="#181818" points="442.5,451.7188,432.5,455.7188,442.5,459.7188,438.5,455.7188" style="stroke:#181818;stroke-width:1.0;"/><line style="stroke:#181818;stroke-width:1.0;" x1="436.5" x2="731.5" y1="455.7188" y2="455.7188"/><text fill="#000000" font-family="sans-serif" font-size="13" lengthAdjust="spacing" textLength="70" x="448.5" y="450.6528">auth.wasm</text><path d="M351.5,477.7188 L454.5,477.7188 L454.5,484.8516 L444.5,494.8516 L351.5,494.8516 L351.5,477.7188 " fill="#EEEEEE" style="stroke:#000000;stroke-width:1.5;"/><rect fill="none" height="46.2656" style="stroke:#000000;stroke-width:1.5;" width="337" x="351.5" y="477.7188"/><text fill="#000000" font-family="sans-serif" font-size="13" font-weight="bold" lengthAdjust="spacing" textLength="58" x="366.5" y="490.7856">Clear IO</text><polygon fill="#181818" points="608.5,511.9844,618.5,515.9844,608.5,519.9844,612.5,515.9844" style="stroke:#181818;stroke-width:1.0;"/><line style="stroke:#181818;stroke-width:1.0;" x1="431.5" x2="614.5" y1="515.9844" y2="515.9844"/><text fill="#000000" font-family="sans-serif" font-size="13" lengthAdjust="spacing" textLength="165" x="438.5" y="510.9185">removes /hdio/:id/req.json</text><!--SRC=[bL9DQzmm4BtdLmm-rn8fj0GJ0cr2QGybWUqjX31hJTRgsfAZaJUufV-z8zjnx8Qbv69cdjvyl3S6Y3RM13VNcn-WiRNwSAehOxqk8ZbqKHjVyia909RH1yWkQqikPe0COoXFBOPeIziA7RAlVKlX2YF2XiB1bZHmP_H-GgNCIBf59iY-K-D33vkU8pK3VqJkHmHkRwiOMowqHjvtsyx5JfM-qOyTSRJUiJxzyFxiuvck_5DkV6xp1lUKOnwmoOtb_TtTQjuNAv8NqrB-CaiflID70Mlzm8eFEwbE3enw8RzuhQRudu40paU2hO_HDv81L8I60XT38gbfwXoxM1LmhfIwcE1FWlXWVs6IMS1d38HXnP1mY5hiQu_cfPoS6OQcrNV1TotS199J4Nox7YfUgKZILiONm7WWXacGDJhGe_h9tWqD_fMKYVoiW2mfpjwDK4CYm2GqEVICJk85_Zt9o6O34bSaJ5HvMNcGNYSNbgHd5_uiXG-XV6S3KYUGdoRqnmrO_0i594TPRlF0kkCmdtHhdNv2RdJQLwNeIB_pVDrloK-xpPjTradH6muJ93rw6cdz5m00]--></g></svg>