<?xml version="1.0" encoding="us-ascii" standalone="no"?><svg xmlns="http://www.w3.org/2000/svg" xmlns:xlink="http://www.w3.org/1999/xlink" contentStyleType="text/css" height="488px" preserveAspectRatio="none" style="width:517px;height:488px;background:#FFFFFF;" version="1.1" viewBox="0 0 517 488" width="517px" zoomAndPan="magnify"><defs/><g><text fill="#000000" font-family="sans-serif" font-size="14" font-weight="bold" lengthAdjust="spacing" textLength="243" x="138.75" y="27.9951">POST /api/v1/hdio/:tenant/docs</text><rect fill="none" height="132.5313" style="stroke:#000000;stroke-width:1.5;" width="393.5" x="86" y="258.2578"/><line style="stroke:#181818;stroke-width:0.5;stroke-dasharray:5.0,5.0;" x1="118" x2="118" y1="118.5938" y2="407.7891"/><line style="stroke:#181818;stroke-width:0.5;stroke-dasharray:5.0,5.0;" x1="337.5" x2="337.5" y1="118.5938" y2="407.7891"/><line style="stroke:#181818;stroke-width:0.5;stroke-dasharray:5.0,5.0;" x1="474.5" x2="474.5" y1="118.5938" y2="407.7891"/><text fill="#000000" font-family="sans-serif" font-size="14" lengthAdjust="spacing" textLength="39" x="96" y="115.292">Client</text><ellipse cx="118.5" cy="50.7969" fill="#E2E2F0" rx="8" ry="8" style="stroke:#181818;stroke-width:0.5;"/><path d="M118.5,58.7969 L118.5,85.7969 M105.5,66.7969 L131.5,66.7969 M118.5,85.7969 L105.5,100.7969 M118.5,85.7969 L131.5,100.7969 " fill="none" style="stroke:#181818;stroke-width:0.5;"/><text fill="#000000" font-family="sans-serif" font-size="14" lengthAdjust="spacing" textLength="39" x="96" y="419.7842">Client</text><ellipse cx="118.5" cy="431.5859" fill="#E2E2F0" rx="8" ry="8" style="stroke:#181818;stroke-width:0.5;"/><path d="M118.5,439.5859 L118.5,466.5859 M105.5,447.5859 L131.5,447.5859 M118.5,466.5859 L105.5,481.5859 M118.5,466.5859 L131.5,481.5859 " fill="none" style="stroke:#181818;stroke-width:0.5;"/><rect fill="#E2E2F0" height="30.2969" rx="2.5" ry="2.5" style="stroke:#181818;stroke-width:0.5;" width="140" x="267.5" y="87.2969"/><text fill="#000000" font-family="sans-serif" font-size="14" lengthAdjust="spacing" textLength="126" x="274.5" y="107.292">HyperData Service</text><rect fill="#E2E2F0" height="30.2969" rx="2.5" ry="2.5" style="stroke:#181818;stroke-width:0.5;" width="140" x="267.5" y="406.7891"/><text fill="#000000" font-family="sans-serif" font-size="14" lengthAdjust="spacing" textLength="126" x="274.5" y="426.7842">HyperData Service</text><a href="../general/fs.svg" target="_top" title="../general/fs.svg" xlink:actuate="onRequest" xlink:href="../general/fs.svg" xlink:show="new" xlink:title="../general/fs.svg" xlink:type="simple"><text fill="#000000" font-family="sans-serif" font-size="14" lengthAdjust="spacing" textLength="78" x="432.5" y="115.292">File System</text><path d="M456.5,66.2969 C456.5,56.2969 474.5,56.2969 474.5,56.2969 C474.5,56.2969 492.5,56.2969 492.5,66.2969 L492.5,92.2969 C492.5,102.2969 474.5,102.2969 474.5,102.2969 C474.5,102.2969 456.5,102.2969 456.5,92.2969 L456.5,66.2969 " fill="#E2E2F0" style="stroke:#181818;stroke-width:1.5;"/><path d="M456.5,66.2969 C456.5,76.2969 474.5,76.2969 474.5,76.2969 C474.5,76.2969 492.5,76.2969 492.5,66.2969 " fill="none" style="stroke:#181818;stroke-width:1.5;"/><text fill="#000000" font-family="sans-serif" font-size="14" lengthAdjust="spacing" textLength="78" x="432.5" y="419.7842">File System</text><path d="M456.5,433.0859 C456.5,423.0859 474.5,423.0859 474.5,423.0859 C474.5,423.0859 492.5,423.0859 492.5,433.0859 L492.5,459.0859 C492.5,469.0859 474.5,469.0859 474.5,469.0859 C474.5,469.0859 456.5,469.0859 456.5,459.0859 L456.5,433.0859 " fill="#E2E2F0" style="stroke:#181818;stroke-width:1.5;"/><path d="M456.5,433.0859 C456.5,443.0859 474.5,443.0859 474.5,443.0859 C474.5,443.0859 492.5,443.0859 492.5,433.0859 " fill="none" style="stroke:#181818;stroke-width:1.5;"/></a><polygon fill="#181818" points="325.5,171.4258,335.5,175.4258,325.5,179.4258,329.5,175.4258" style="stroke:#181818;stroke-width:1.0;"/><line style="stroke:#181818;stroke-width:1.0;" x1="118.5" x2="331.5" y1="175.4258" y2="175.4258"/><text fill="#000000" font-family="sans-serif" font-size="13" lengthAdjust="spacing" textLength="195" x="125.5" y="170.3599">POST /api/v1/hdio/:tenant/docs</text><path d="M5,133.5938 L5,203.5938 L114,203.5938 L114,143.5938 L104,133.5938 L5,133.5938 " fill="#FEFFDD" style="stroke:#181818;stroke-width:0.5;"/><path d="M104,133.5938 L104,143.5938 L114,143.5938 L104,133.5938 " fill="#FEFFDD" style="stroke:#181818;stroke-width:0.5;"/><text fill="#000000" font-family="sans-serif" font-size="13" lengthAdjust="spacing" textLength="56" x="11" y="150.6606">headers:</text><text fill="#000000" font-family="sans-serif" font-size="13" lengthAdjust="spacing" textLength="80" x="19" y="165.7935">HDAuth: "..."</text><text fill="#000000" font-family="sans-serif" font-size="13" lengthAdjust="spacing" textLength="12" x="19" y="180.9263">...</text><text fill="#000000" font-family="sans-serif" font-size="13" lengthAdjust="spacing" textLength="80" x="11" y="196.0591">payload: "..."</text><line style="stroke:#181818;stroke-width:1.0;" x1="337.5" x2="379.5" y1="230.2578" y2="230.2578"/><line style="stroke:#181818;stroke-width:1.0;" x1="379.5" x2="379.5" y1="230.2578" y2="243.2578"/><line style="stroke:#181818;stroke-width:1.0;" x1="338.5" x2="379.5" y1="243.2578" y2="243.2578"/><polygon fill="#181818" points="348.5,239.2578,338.5,243.2578,348.5,247.2578,344.5,243.2578" style="stroke:#181818;stroke-width:1.0;"/><a href="./req_auth.svg" target="_top" title="./req_auth.svg" xlink:actuate="onRequest" xlink:href="./req_auth.svg" xlink:show="new" xlink:title="./req_auth.svg" xlink:type="simple"><text fill="#0000FF" font-family="sans-serif" font-size="13" lengthAdjust="spacing" text-decoration="underline" textLength="121" x="344.5" y="225.1919">Authorizes request</text></a><path d="M86,258.2578 L150,258.2578 L150,265.3906 L140,275.3906 L86,275.3906 L86,258.2578 " fill="#EEEEEE" style="stroke:#000000;stroke-width:1.5;"/><rect fill="none" height="132.5313" style="stroke:#000000;stroke-width:1.5;" width="393.5" x="86" y="258.2578"/><text fill="#000000" font-family="sans-serif" font-size="13" font-weight="bold" lengthAdjust="spacing" textLength="19" x="101" y="271.3247">alt</text><text fill="#000000" font-family="sans-serif" font-size="11" font-weight="bold" lengthAdjust="spacing" textLength="80" x="165" y="270.4683">[auth failed]</text><polygon fill="#181818" points="129.5,292.5234,119.5,296.5234,129.5,300.5234,125.5,296.5234" style="stroke:#181818;stroke-width:1.0;"/><line style="stroke:#181818;stroke-width:1.0;" x1="123.5" x2="336.5" y1="296.5234" y2="296.5234"/><text fill="#000000" font-family="sans-serif" font-size="13" lengthAdjust="spacing" textLength="74" x="135.5" y="291.4575">returns 403</text><line style="stroke:#000000;stroke-width:1.0;stroke-dasharray:2.0,2.0;" x1="86" x2="479.5" y1="305.5234" y2="305.5234"/><line style="stroke:#181818;stroke-width:1.0;" x1="337.5" x2="379.5" y1="327.6563" y2="327.6563"/><line style="stroke:#181818;stroke-width:1.0;" x1="379.5" x2="379.5" y1="327.6563" y2="340.6563"/><line style="stroke:#181818;stroke-width:1.0;" x1="338.5" x2="379.5" y1="340.6563" y2="340.6563"/><polygon fill="#181818" points="348.5,336.6563,338.5,340.6563,348.5,344.6563,344.5,340.6563" style="stroke:#181818;stroke-width:1.0;"/><text fill="#000000" font-family="sans-serif" font-size="13" lengthAdjust="spacing" textLength="112" x="344.5" y="322.5903">calcs HDDM hash</text><line style="stroke:#181818;stroke-width:1.0;" x1="337.5" x2="379.5" y1="369.7891" y2="369.7891"/><line style="stroke:#181818;stroke-width:1.0;" x1="379.5" x2="379.5" y1="369.7891" y2="382.7891"/><line style="stroke:#181818;stroke-width:1.0;" x1="338.5" x2="379.5" y1="382.7891" y2="382.7891"/><polygon fill="#181818" points="348.5,378.7891,338.5,382.7891,348.5,386.7891,344.5,382.7891" style="stroke:#181818;stroke-width:1.0;"/><a href="./hddm_disasm.svg" target="_top" title="./hddm_disasm.svg" xlink:actuate="onRequest" xlink:href="./hddm_disasm.svg" xlink:show="new" xlink:title="./hddm_disasm.svg" xlink:type="simple"><text fill="#0000FF" font-family="sans-serif" font-size="13" lengthAdjust="spacing" text-decoration="underline" textLength="123" x="344.5" y="364.7231">runs HDDM disasm</text></a><!--SRC=[bL71JiCm3BtlAwpUru3WL24aH3NjWa0QjscglCPR8wL9ITn9u-jnqWeE0m4tlvTd-pq7W0rRWfVdpIie78mwNQjE6wyg9eUEbVPjN2m0i6KVe7YqXXmNW16cKfu636nQCuWSYlLve50Z8smed4nBMVl9DZChRLhW7YD1iJ9YONEEJ7rM9znC6BRRibH7SXJGgaCiu-cusosIesa_BEylfrU_1G9mdWdsdjdtWW0wGaqXLXa0hEk7aRiAYh8iYvcJCbS3dgr7_VL8JkTvoTM5bnyCIYuLwAr1MPD2GThdWtcd2CAF55boojqjGzB00UKgEXkOazyjlniSYCVW8jnUtIHhDbBk-Qkl5cqh_rNNJz1XxFxLcp9rMlUDDX5ZdsE5qStZ9ZA7aeDz0000]--></g></svg>