<?xml version="1.0" encoding="us-ascii" standalone="no"?><svg xmlns="http://www.w3.org/2000/svg" xmlns:xlink="http://www.w3.org/1999/xlink" contentStyleType="text/css" height="1196px" preserveAspectRatio="none" style="width:678px;height:1196px;background:#FFFFFF;" version="1.1" viewBox="0 0 678 1196" width="678px" zoomAndPan="magnify"><defs/><g><text fill="#000000" font-family="sans-serif" font-size="14" font-weight="bold" lengthAdjust="spacing" textLength="176" x="252" y="27.9951">Request Authorization</text><rect fill="none" height="829.8828" style="stroke:#000000;stroke-width:1.5;" width="661" x="10" y="179.8594"/><rect fill="none" height="171.0625" style="stroke:#000000;stroke-width:1.5;" width="557" x="20" y="233.125"/><rect fill="none" height="321.4922" style="stroke:#000000;stroke-width:1.5;" width="517" x="70" y="418.1875"/><rect fill="none" height="77.3984" style="stroke:#000000;stroke-width:1.5;" width="296.5" x="280.5" y="554.8828"/><rect fill="none" height="104.5313" style="stroke:#000000;stroke-width:1.5;" width="507" x="70" y="753.6797"/><rect fill="none" height="77.3984" style="stroke:#000000;stroke-width:1.5;" width="227" x="3" y="1023.7422"/><line style="stroke:#181818;stroke-width:0.5;stroke-dasharray:5.0,5.0;" x1="150" x2="150" y1="104.5938" y2="1118.1406"/><line style="stroke:#181818;stroke-width:0.5;stroke-dasharray:5.0,5.0;" x1="334.5" x2="334.5" y1="465.9688" y2="1118.1406"/><line style="stroke:#181818;stroke-width:0.5;stroke-dasharray:5.0,5.0;" x1="509" x2="509" y1="104.5938" y2="1118.1406"/><line style="stroke:#181818;stroke-width:0.5;stroke-dasharray:5.0,5.0;" x1="619" x2="619" y1="104.5938" y2="1118.1406"/><rect fill="#E2E2F0" height="30.2969" rx="2.5" ry="2.5" style="stroke:#181818;stroke-width:0.5;" width="140" x="80" y="73.2969"/><text fill="#000000" font-family="sans-serif" font-size="14" lengthAdjust="spacing" textLength="126" x="87" y="93.292">HyperData Service</text><rect fill="#E2E2F0" height="30.2969" rx="2.5" ry="2.5" style="stroke:#181818;stroke-width:0.5;" width="140" x="80" y="1117.1406"/><text fill="#000000" font-family="sans-serif" font-size="14" lengthAdjust="spacing" textLength="126" x="87" y="1137.1357">HyperData Service</text><rect fill="#E2E2F0" height="30.2969" rx="2.5" ry="2.5" style="stroke:#181818;stroke-width:0.5;" width="89" x="290.5" y="1117.1406"/><text fill="#000000" font-family="sans-serif" font-size="14" lengthAdjust="spacing" textLength="75" x="297.5" y="1137.1357">auth.wasm</text><a href="https://askubuntu.com/questions/152868/how-do-i-make-a-ram-disk" target="_top" title="https://askubuntu.com/questions/152868/how-do-i-make-a-ram-disk" xlink:actuate="onRequest" xlink:href="https://askubuntu.com/questions/152868/how-do-i-make-a-ram-disk" xlink:show="new" xlink:title="https://askubuntu.com/questions/152868/how-do-i-make-a-ram-disk" xlink:type="simple"><text fill="#000000" font-family="sans-serif" font-size="14" lengthAdjust="spacing" textLength="110" x="451" y="101.292">Memory System</text><path d="M491,52.2969 C491,42.2969 509,42.2969 509,42.2969 C509,42.2969 527,42.2969 527,52.2969 L527,78.2969 C527,88.2969 509,88.2969 509,88.2969 C509,88.2969 491,88.2969 491,78.2969 L491,52.2969 " fill="#E2E2F0" style="stroke:#181818;stroke-width:1.5;"/><path d="M491,52.2969 C491,62.2969 509,62.2969 509,62.2969 C509,62.2969 527,62.2969 527,52.2969 " fill="none" style="stroke:#181818;stroke-width:1.5;"/><text fill="#000000" font-family="sans-serif" font-size="14" lengthAdjust="spacing" textLength="110" x="451" y="1130.1357">Memory System</text><path d="M491,1143.4375 C491,1133.4375 509,1133.4375 509,1133.4375 C509,1133.4375 527,1133.4375 527,1143.4375 L527,1169.4375 C527,1179.4375 509,1179.4375 509,1179.4375 C509,1179.4375 491,1179.4375 491,1169.4375 L491,1143.4375 " fill="#E2E2F0" style="stroke:#181818;stroke-width:1.5;"/><path d="M491,1143.4375 C491,1153.4375 509,1153.4375 509,1153.4375 C509,1153.4375 527,1153.4375 527,1143.4375 " fill="none" style="stroke:#181818;stroke-width:1.5;"/></a><a href="../general/fs.svg" target="_top" title="../general/fs.svg" xlink:actuate="onRequest" xlink:href="../general/fs.svg" xlink:show="new" xlink:title="../general/fs.svg" xlink:type="simple"><text fill="#000000" font-family="sans-serif" font-size="14" lengthAdjust="spacing" textLength="78" x="577" y="101.292">File System</text><path d="M601,52.2969 C601,42.2969 619,42.2969 619,42.2969 C619,42.2969 637,42.2969 637,52.2969 L637,78.2969 C637,88.2969 619,88.2969 619,88.2969 C619,88.2969 601,88.2969 601,78.2969 L601,52.2969 " fill="#E2E2F0" style="stroke:#181818;stroke-width:1.5;"/><path d="M601,52.2969 C601,62.2969 619,62.2969 619,62.2969 C619,62.2969 637,62.2969 637,52.2969 " fill="none" style="stroke:#181818;stroke-width:1.5;"/><text fill="#000000" font-family="sans-serif" font-size="14" lengthAdjust="spacing" textLength="78" x="577" y="1130.1357">File System</text><path d="M601,1143.4375 C601,1133.4375 619,1133.4375 619,1133.4375 C619,1133.4375 637,1133.4375 637,1143.4375 L637,1169.4375 C637,1179.4375 619,1179.4375 619,1179.4375 C619,1179.4375 601,1179.4375 601,1169.4375 L601,1143.4375 " fill="#E2E2F0" style="stroke:#181818;stroke-width:1.5;"/><path d="M601,1143.4375 C601,1153.4375 619,1153.4375 619,1153.4375 C619,1153.4375 637,1153.4375 637,1143.4375 " fill="none" style="stroke:#181818;stroke-width:1.5;"/></a><polygon fill="#181818" points="138,131.7266,148,135.7266,138,139.7266,142,135.7266" style="stroke:#181818;stroke-width:1.0;"/><line style="stroke:#181818;stroke-width:1.0;" x1="0" x2="144" y1="135.7266" y2="135.7266"/><text fill="#000000" font-family="sans-serif" font-size="13" lengthAdjust="spacing" textLength="85" x="7" y="130.6606">HTTP request</text><polygon fill="#181818" points="607,160.8594,617,164.8594,607,168.8594,611,164.8594" style="stroke:#181818;stroke-width:1.0;"/><line style="stroke:#181818;stroke-width:1.0;" x1="150" x2="613" y1="164.8594" y2="164.8594"/><text fill="#000000" font-family="sans-serif" font-size="13" lengthAdjust="spacing" textLength="277" x="157" y="159.7935">loads hdfs/usr/:tenant/bin/wasm/auth.wasm</text><path d="M10,179.8594 L74,179.8594 L74,186.9922 L64,196.9922 L10,196.9922 L10,179.8594 " fill="#EEEEEE" style="stroke:#000000;stroke-width:1.5;"/><rect fill="none" height="829.8828" style="stroke:#000000;stroke-width:1.5;" width="661" x="10" y="179.8594"/><text fill="#000000" font-family="sans-serif" font-size="13" font-weight="bold" lengthAdjust="spacing" textLength="19" x="25" y="192.9263">alt</text><text fill="#000000" font-family="sans-serif" font-size="11" font-weight="bold" lengthAdjust="spacing" textLength="137" x="89" y="192.0698">[auth.wasm is exists]</text><polygon fill="#181818" points="161,214.125,151,218.125,161,222.125,157,218.125" style="stroke:#181818;stroke-width:1.0;"/><line style="stroke:#181818;stroke-width:1.0;" x1="155" x2="618" y1="218.125" y2="218.125"/><text fill="#000000" font-family="sans-serif" font-size="13" lengthAdjust="spacing" textLength="70" x="167" y="213.0591">auth.wasm</text><path d="M20,233.125 L144,233.125 L144,240.2578 L134,250.2578 L20,250.2578 L20,233.125 " fill="#EEEEEE" style="stroke:#000000;stroke-width:1.5;"/><rect fill="none" height="171.0625" style="stroke:#000000;stroke-width:1.5;" width="557" x="20" y="233.125"/><text fill="#000000" font-family="sans-serif" font-size="13" font-weight="bold" lengthAdjust="spacing" textLength="79" x="35" y="246.1919">IO prepare</text><polygon fill="#181818" points="497,300.6563,507,304.6563,497,308.6563,501,304.6563" style="stroke:#181818;stroke-width:1.0;"/><line style="stroke:#181818;stroke-width:1.0;" x1="150" x2="503" y1="304.6563" y2="304.6563"/><text fill="#000000" font-family="sans-serif" font-size="13" lengthAdjust="spacing" textLength="124" x="157" y="299.5903">saves /hdio/:id/auth</text><path d="M30,255.2578 L30,340.2578 L145,340.2578 L145,265.2578 L135,255.2578 L30,255.2578 " fill="#FEFFDD" style="stroke:#181818;stroke-width:0.5;"/><path d="M135,255.2578 L135,265.2578 L145,265.2578 L135,255.2578 " fill="#FEFFDD" style="stroke:#181818;stroke-width:0.5;"/><text fill="#000000" font-family="sans-serif" font-size="13" lengthAdjust="spacing" textLength="63" x="36" y="272.3247">"api": "...",</text><text fill="#000000" font-family="sans-serif" font-size="13" lengthAdjust="spacing" textLength="94" x="36" y="287.4575">"method": "...",</text><text fill="#000000" font-family="sans-serif" font-size="13" lengthAdjust="spacing" textLength="78" x="36" y="302.5903">"headers": {</text><text fill="#000000" font-family="sans-serif" font-size="13" lengthAdjust="spacing" textLength="12" x="44" y="317.7231">...</text><text fill="#000000" font-family="sans-serif" font-size="13" lengthAdjust="spacing" textLength="8" x="36" y="332.856">}</text><polygon fill="#181818" points="497,363.0547,507,367.0547,497,371.0547,501,367.0547" style="stroke:#181818;stroke-width:1.0;"/><line style="stroke:#181818;stroke-width:1.0;" x1="150" x2="503" y1="367.0547" y2="367.0547"/><text fill="#000000" font-family="sans-serif" font-size="13" lengthAdjust="spacing" textLength="144" x="157" y="361.9888">creates /hdio/:id/scope</text><polygon fill="#181818" points="497,392.1875,507,396.1875,497,400.1875,501,396.1875" style="stroke:#181818;stroke-width:1.0;"/><line style="stroke:#181818;stroke-width:1.0;" x1="150" x2="503" y1="396.1875" y2="396.1875"/><text fill="#000000" font-family="sans-serif" font-size="13" lengthAdjust="spacing" textLength="137" x="157" y="391.1216">creates /hdio/:id/error</text><path d="M70,418.1875 L191,418.1875 L191,425.3203 L181,435.3203 L70,435.3203 L70,418.1875 " fill="#EEEEEE" style="stroke:#000000;stroke-width:1.5;"/><rect fill="none" height="321.4922" style="stroke:#000000;stroke-width:1.5;" width="517" x="70" y="418.1875"/><text fill="#000000" font-family="sans-serif" font-size="13" font-weight="bold" lengthAdjust="spacing" textLength="76" x="85" y="431.2544">Evaluation</text><polygon fill="#181818" points="278.5,452.4531,288.5,456.4531,278.5,460.4531,282.5,456.4531" style="stroke:#181818;stroke-width:1.0;"/><line style="stroke:#181818;stroke-width:1.0;" x1="150" x2="284.5" y1="456.4531" y2="456.4531"/><text fill="#000000" font-family="sans-serif" font-size="13" lengthAdjust="spacing" textLength="102" x="157" y="451.3872">runs auth.wasm</text><rect fill="#E2E2F0" height="30.2969" rx="2.5" ry="2.5" style="stroke:#181818;stroke-width:0.5;" width="89" x="290.5" y="435.3203"/><text fill="#000000" font-family="sans-serif" font-size="14" lengthAdjust="spacing" textLength="75" x="297.5" y="455.3154">auth.wasm</text><polygon fill="#181818" points="346,493.75,336,497.75,346,501.75,342,497.75" style="stroke:#181818;stroke-width:1.0;"/><polygon fill="#181818" points="497,493.75,507,497.75,497,501.75,501,497.75" style="stroke:#181818;stroke-width:1.0;"/><line style="stroke:#181818;stroke-width:1.0;" x1="340" x2="503" y1="497.75" y2="497.75"/><text fill="#000000" font-family="sans-serif" font-size="13" lengthAdjust="spacing" textLength="116" x="352" y="492.6841">read /hdio/:id/auth</text><line style="stroke:#181818;stroke-width:1.0;" x1="335" x2="377" y1="526.8828" y2="526.8828"/><line style="stroke:#181818;stroke-width:1.0;" x1="377" x2="377" y1="526.8828" y2="539.8828"/><line style="stroke:#181818;stroke-width:1.0;" x1="336" x2="377" y1="539.8828" y2="539.8828"/><polygon fill="#181818" points="346,535.8828,336,539.8828,346,543.8828,342,539.8828" style="stroke:#181818;stroke-width:1.0;"/><text fill="#000000" font-family="sans-serif" font-size="13" lengthAdjust="spacing" textLength="88" x="342" y="521.8169">evaluate auth</text><path d="M280.5,554.8828 L344.5,554.8828 L344.5,562.0156 L334.5,572.0156 L280.5,572.0156 L280.5,554.8828 " fill="#EEEEEE" style="stroke:#000000;stroke-width:1.5;"/><rect fill="none" height="77.3984" style="stroke:#000000;stroke-width:1.5;" width="296.5" x="280.5" y="554.8828"/><text fill="#000000" font-family="sans-serif" font-size="13" font-weight="bold" lengthAdjust="spacing" textLength="19" x="295.5" y="567.9497">alt</text><text fill="#000000" font-family="sans-serif" font-size="11" font-weight="bold" lengthAdjust="spacing" textLength="80" x="359.5" y="567.0933">[auth failed]</text><polygon fill="#181818" points="497,589.1484,507,593.1484,497,597.1484,501,593.1484" style="stroke:#181818;stroke-width:1.0;"/><line style="stroke:#181818;stroke-width:1.0;" x1="335" x2="503" y1="593.1484" y2="593.1484"/><text fill="#000000" font-family="sans-serif" font-size="13" lengthAdjust="spacing" textLength="143" x="342" y="588.0825">saves to /hdio/:id/error</text><line style="stroke:#000000;stroke-width:1.0;stroke-dasharray:2.0,2.0;" x1="280.5" x2="577" y1="602.1484" y2="602.1484"/><polygon fill="#181818" points="497,620.2813,507,624.2813,497,628.2813,501,624.2813" style="stroke:#181818;stroke-width:1.0;"/><line style="stroke:#181818;stroke-width:1.0;" x1="335" x2="503" y1="624.2813" y2="624.2813"/><text fill="#000000" font-family="sans-serif" font-size="13" lengthAdjust="spacing" textLength="150" x="342" y="619.2153">saves to /hdio/:id/scope</text><polygon fill="#181818" points="161,656.4141,151,660.4141,161,664.4141,157,660.4141" style="stroke:#181818;stroke-width:1.0;"/><line style="stroke:#181818;stroke-width:1.0;" x1="155" x2="508" y1="660.4141" y2="660.4141"/><text fill="#000000" font-family="sans-serif" font-size="13" lengthAdjust="spacing" textLength="123" x="167" y="655.3481">loads /hdio/:id/error</text><polygon fill="#181818" points="161,685.5469,151,689.5469,161,693.5469,157,689.5469" style="stroke:#181818;stroke-width:1.0;"/><line style="stroke:#181818;stroke-width:1.0;" x1="155" x2="508" y1="689.5469" y2="689.5469"/><text fill="#000000" font-family="sans-serif" font-size="13" lengthAdjust="spacing" textLength="130" x="167" y="684.481">loads /hdio/:id/scope</text><line style="stroke:#181818;stroke-width:1.0;" x1="150" x2="192" y1="718.6797" y2="718.6797"/><line style="stroke:#181818;stroke-width:1.0;" x1="192" x2="192" y1="718.6797" y2="731.6797"/><line style="stroke:#181818;stroke-width:1.0;" x1="151" x2="192" y1="731.6797" y2="731.6797"/><polygon fill="#181818" points="161,727.6797,151,731.6797,161,735.6797,157,731.6797" style="stroke:#181818;stroke-width:1.0;"/><text fill="#000000" font-family="sans-serif" font-size="13" lengthAdjust="spacing" textLength="171" x="157" y="713.6138">configures scope and error</text><path d="M70,753.6797 L193,753.6797 L193,760.8125 L183,770.8125 L70,770.8125 L70,753.6797 " fill="#EEEEEE" style="stroke:#000000;stroke-width:1.5;"/><rect fill="none" height="104.5313" style="stroke:#000000;stroke-width:1.5;" width="507" x="70" y="753.6797"/><text fill="#000000" font-family="sans-serif" font-size="13" font-weight="bold" lengthAdjust="spacing" textLength="78" x="85" y="766.7466">IO cleanup</text><polygon fill="#181818" points="497,787.9453,507,791.9453,497,795.9453,501,791.9453" style="stroke:#181818;stroke-width:1.0;"/><line style="stroke:#181818;stroke-width:1.0;" x1="150" x2="503" y1="791.9453" y2="791.9453"/><text fill="#000000" font-family="sans-serif" font-size="13" lengthAdjust="spacing" textLength="143" x="157" y="786.8794">removes /hdio/:id/auth</text><polygon fill="#181818" points="497,817.0781,507,821.0781,497,825.0781,501,821.0781" style="stroke:#181818;stroke-width:1.0;"/><line style="stroke:#181818;stroke-width:1.0;" x1="150" x2="503" y1="821.0781" y2="821.0781"/><text fill="#000000" font-family="sans-serif" font-size="13" lengthAdjust="spacing" textLength="152" x="157" y="816.0122">removes /hdio/:id/scope</text><polygon fill="#181818" points="497,846.2109,507,850.2109,497,854.2109,501,850.2109" style="stroke:#181818;stroke-width:1.0;"/><line style="stroke:#181818;stroke-width:1.0;" x1="150" x2="503" y1="850.2109" y2="850.2109"/><text fill="#000000" font-family="sans-serif" font-size="13" lengthAdjust="spacing" textLength="145" x="157" y="845.145">removes /hdio/:id/error</text><line style="stroke:#000000;stroke-width:1.0;stroke-dasharray:2.0,2.0;" x1="10" x2="671" y1="866.2109" y2="866.2109"/><polygon fill="#181818" points="607,884.3438,617,888.3438,607,892.3438,611,888.3438" style="stroke:#181818;stroke-width:1.0;"/><line style="stroke:#181818;stroke-width:1.0;" x1="150" x2="613" y1="888.3438" y2="888.3438"/><text fill="#000000" font-family="sans-serif" font-size="13" lengthAdjust="spacing" textLength="244" x="157" y="883.2778">loads hdfs/usr/:tenant/data/tenant.key</text><polygon fill="#181818" points="161,913.4766,151,917.4766,161,921.4766,157,917.4766" style="stroke:#181818;stroke-width:1.0;"/><line style="stroke:#181818;stroke-width:1.0;" x1="155" x2="618" y1="917.4766" y2="917.4766"/><text fill="#000000" font-family="sans-serif" font-size="13" lengthAdjust="spacing" textLength="68" x="167" y="912.4106">tenant.key</text><line style="stroke:#181818;stroke-width:1.0;" x1="150" x2="192" y1="946.6094" y2="946.6094"/><line style="stroke:#181818;stroke-width:1.0;" x1="192" x2="192" y1="946.6094" y2="959.6094"/><line style="stroke:#181818;stroke-width:1.0;" x1="151" x2="192" y1="959.6094" y2="959.6094"/><polygon fill="#181818" points="161,955.6094,151,959.6094,161,963.6094,157,959.6094" style="stroke:#181818;stroke-width:1.0;"/><text fill="#000000" font-family="sans-serif" font-size="13" lengthAdjust="spacing" textLength="168" x="157" y="941.5435">decrypts "HDAuth" header</text><line style="stroke:#181818;stroke-width:1.0;" x1="150" x2="192" y1="988.7422" y2="988.7422"/><line style="stroke:#181818;stroke-width:1.0;" x1="192" x2="192" y1="988.7422" y2="1001.7422"/><line style="stroke:#181818;stroke-width:1.0;" x1="151" x2="192" y1="1001.7422" y2="1001.7422"/><polygon fill="#181818" points="161,997.7422,151,1001.7422,161,1005.7422,157,1001.7422" style="stroke:#181818;stroke-width:1.0;"/><text fill="#000000" font-family="sans-serif" font-size="13" lengthAdjust="spacing" textLength="171" x="157" y="983.6763">configures scope and error</text><path d="M3,1023.7422 L67,1023.7422 L67,1030.875 L57,1040.875 L3,1040.875 L3,1023.7422 " fill="#EEEEEE" style="stroke:#000000;stroke-width:1.5;"/><rect fill="none" height="77.3984" style="stroke:#000000;stroke-width:1.5;" width="227" x="3" y="1023.7422"/><text fill="#000000" font-family="sans-serif" font-size="13" font-weight="bold" lengthAdjust="spacing" textLength="19" x="18" y="1036.8091">alt</text><text fill="#000000" font-family="sans-serif" font-size="11" font-weight="bold" lengthAdjust="spacing" textLength="80" x="82" y="1035.9526">[auth failed]</text><polygon fill="#181818" points="11,1058.0078,1,1062.0078,11,1066.0078,7,1062.0078" style="stroke:#181818;stroke-width:1.0;"/><line style="stroke:#181818;stroke-width:1.0;" x1="5" x2="149" y1="1062.0078" y2="1062.0078"/><text fill="#000000" font-family="sans-serif" font-size="13" lengthAdjust="spacing" textLength="81" x="17" y="1056.9419">returns error</text><line style="stroke:#000000;stroke-width:1.0;stroke-dasharray:2.0,2.0;" x1="3" x2="230" y1="1071.0078" y2="1071.0078"/><polygon fill="#181818" points="11,1089.1406,1,1093.1406,11,1097.1406,7,1093.1406" style="stroke:#181818;stroke-width:1.0;"/><line style="stroke:#181818;stroke-width:1.0;" x1="5" x2="149" y1="1093.1406" y2="1093.1406"/><text fill="#000000" font-family="sans-serif" font-size="13" lengthAdjust="spacing" textLength="88" x="17" y="1088.0747">returns scope</text><!--SRC=[hLLDQzj04BtxLmmwXafB2or1X40XBUcXj3IvXH3Msh6rMDfLTtQTkgN_lQCFor8i9xLRuuDsDE_Ds_aIWDU-GFY6tmEIX_V1vzRfdz9hQsOpW4ewhpDTIUCXkjvKwAwabt23RgqpZ40IzDQ7pleK9faqUPHKDkxrwQ4-iPjYr5mIGlGPI-isSBCXZwrVQtbeBN1tbtjVKIg4f5MO1-D3ajbIDB9PAudNRz-SlpiNkNsCbOrrNCeLnZ9sieoLfjNz_IZUHyst7aIhpxjOIIAMQD39GYmeeVMIqNKsuilzswPmVNlx5LoRmTgB_tjUDNGG8uN2IaMGgmM9G4wa7WqdIyor4NLoH9-qbb0M7deJQ0ByeSaJlvaATX6FW-t86i3IsL31fozGEUHAOMCy87fKXXH8hf50v4fRaMhLoEpWndg4kVNUbfq5kFQLZbA8aYI9Nksi9NARgOaNEKg5ZlZDhzu8m4xzwNVtX4Or4O_GdZcKVgIUCblz6mCwPzsi4pJCxeUrB48xHi_mzyC0PsSfk608XeMlVpkNYtr1h4TDLsCFFOoM0hRo40QGRO_1GdBpg3xb8ux9Vl1sCYMSb8BmL9vXSVha7kZs9spjS4rBEWN_OfzCR8NCceLU1iVNQk0WkMCFjWiFOrQWDA4weXqT7m-Eusa4nqx4FiFuYeCME7adrbjRjC_92ZT_kVDU14oNJM7cDfKd_jfTrL_32DgTDFjljUygFpLjV8S9DeS-EDuCFS4sey-xRql9yVu0]--></g></svg>